<svg width="452" height="573" viewBox="0 0 452 573" fill="none" xmlns="http://www.w3.org/2000/svg">
<g filter="url(#filter0_d)">
<path d="M140.052 5.42717L140.973 5.03644C143.26 4.06536 145.902 5.1327 146.873 7.42042L170.512 63.111L161.307 67.0183L137.668 11.3277C136.697 9.04002 137.764 6.39824 140.052 5.42717Z" stroke="#f9b253" stroke-width="5"/>
<path d="M315.449 5.03638L316.369 5.42711C318.657 6.39819 319.724 9.03996 318.753 11.3277L307.813 37.1018L295.114 67.0182L285.909 63.1109L309.548 7.42036C310.519 5.13265 313.161 4.0653 315.449 5.03638Z" stroke="#f9b253" stroke-width="5"/>
<path d="M364.078 143.039C370.863 159.419 374.634 176.876 375.224 194.569C375.267 195.861 374.209 196.985 372.806 196.985H227.806L82.8058 196.985C81.4023 196.985 80.3446 195.861 80.3877 194.569C80.9777 176.876 84.7487 159.419 91.5336 143.039C98.9461 125.143 109.811 108.883 123.508 95.1864C137.204 81.4898 153.464 70.625 171.36 63.2125C189.256 55.7999 208.436 51.9847 227.806 51.9847C247.176 51.9847 266.356 55.7999 284.252 63.2124C302.147 70.625 318.407 81.4898 332.104 95.1864C345.801 108.883 356.665 125.143 364.078 143.039Z" stroke="#f9b253" stroke-width="5"/>
<path d="M190.806 151.955C190.806 166.575 186.329 178.426 180.806 178.426C175.283 178.426 170.806 166.575 170.806 151.955C170.806 137.336 175.283 125.485 180.806 125.485C186.329 125.485 190.806 137.336 190.806 151.955Z" fill="#f9b253"/>
<path d="M190.806 151.955C190.806 166.575 186.329 178.426 180.806 178.426C175.283 178.426 170.806 166.575 170.806 151.955C170.806 137.336 175.283 125.485 180.806 125.485C186.329 125.485 190.806 137.336 190.806 151.955Z" stroke="black"/>
<path d="M285.806 151.955C285.806 166.575 281.329 178.426 275.806 178.426C270.283 178.426 265.806 166.575 265.806 151.955C265.806 137.336 270.283 125.485 275.806 125.485C281.329 125.485 285.806 137.336 285.806 151.955Z" fill="#f9b253"/>
<path d="M285.806 151.955C285.806 166.575 281.329 178.426 275.806 178.426C270.283 178.426 265.806 166.575 265.806 151.955C265.806 137.336 270.283 125.485 275.806 125.485C281.329 125.485 285.806 137.336 285.806 151.955Z" stroke="black"/>
<path d="M51.5 246V364.421C51.5 376.847 41.4264 386.921 29 386.921C16.5736 386.921 6.5 376.847 6.5 364.421V246C6.5 233.574 16.5736 223.5 29 223.5C41.4264 223.5 51.5 233.574 51.5 246Z" stroke="#f9b253" stroke-width="5"/>
<rect x="400.305" y="223.985" width="45" height="166.053" rx="22.5" stroke="#f9b253" stroke-width="5"/>
<path d="M82.8058 214.985H372.806C374.186 214.985 375.306 216.104 375.306 217.485V448.485C375.306 458.15 367.471 465.985 357.806 465.985H97.8058C88.1408 465.985 80.3058 458.15 80.3058 448.485V217.485C80.3058 216.104 81.4251 214.985 82.8058 214.985Z" stroke="#f9b253" stroke-width="5"/>
<path d="M174.624 387.552L172.089 383.242L170.593 384.122L169.964 385.74L174.624 387.552ZM179.52 385.728L178.275 380.886L178.258 380.89L178.241 380.894L179.52 385.728ZM194.688 386.304L192.853 390.955L192.925 390.984L192.999 391.01L194.688 386.304ZM199.488 390.624L204.213 388.988L204.207 388.97L204.201 388.952L199.488 390.624ZM203.232 402.24L208.016 400.784L208.016 400.784L203.232 402.24ZM207.264 415.968L202.454 417.333L202.457 417.342L202.459 417.35L207.264 415.968ZM211.2 429.888L206.383 431.226L206.385 431.235L206.388 431.244L211.2 429.888ZM214.56 441.984L218.357 445.238L220.082 443.226L219.384 440.668L214.56 441.984ZM211.104 444.096L209.523 439.353L209.436 439.382L209.349 439.414L211.104 444.096ZM201.696 444.576L200.484 449.427L200.517 449.435L200.551 449.443L201.696 444.576ZM199.104 443.424L195.981 447.328L196.071 447.4L196.164 447.468L199.104 443.424ZM197.472 441.408L192.933 443.503L192.997 443.643L193.07 443.778L197.472 441.408ZM196.416 438.528L191.578 439.79L191.598 439.865L191.62 439.939L196.416 438.528ZM194.688 431.904L199.527 430.642L198.551 426.904H194.688V431.904ZM177.312 431.904V426.904H173.471L172.481 430.616L177.312 431.904ZM175.776 437.856L170.926 436.643L170.926 436.643L175.776 437.856ZM174.24 443.808L175.922 448.517L178.395 447.634L179.072 445.096L174.24 443.808ZM171.36 444.576L170.439 439.662L170.254 439.696L170.072 439.745L171.36 444.576ZM160.512 443.328L157.512 447.328L157.605 447.397L157.701 447.463L160.512 443.328ZM158.592 435.936L153.785 434.562L153.785 434.562L158.592 435.936ZM159.456 432.768L164.292 434.04L164.294 434.032L164.296 434.023L159.456 432.768ZM161.28 426.336L156.525 424.791L156.508 424.845L156.491 424.899L161.28 426.336ZM163.968 418.08L168.722 419.63L168.727 419.615L168.732 419.6L163.968 418.08ZM167.04 408.864L162.317 407.225L162.317 407.225L167.04 408.864ZM170.112 400.032L174.833 401.679L174.839 401.662L174.845 401.645L170.112 400.032ZM172.704 392.544L168.034 390.758L168.011 390.819L167.99 390.88L172.704 392.544ZM186.144 399.936V394.936H182.541L181.401 398.355L186.144 399.936ZM183.072 408.96L178.348 407.324L178.338 407.352L178.329 407.379L183.072 408.96ZM180.096 418.944L175.262 417.667L173.604 423.944H180.096V418.944ZM192 418.944V423.944H198.462L196.84 417.689L192 418.944ZM189.216 408.864L184.388 410.164L184.403 410.22L184.42 410.275L189.216 408.864ZM186.72 399.936L191.519 398.532L190.467 394.936H186.72V399.936ZM177.16 391.862C177.662 391.566 178.778 391.097 180.8 390.562L178.241 380.894C175.911 381.511 173.763 382.258 172.089 383.242L177.16 391.862ZM180.766 390.57C182.612 390.096 184.434 389.864 186.24 389.864V379.864C183.567 379.864 180.909 380.208 178.275 380.886L180.766 390.57ZM186.24 389.864C188.949 389.864 191.12 390.271 192.853 390.955L196.524 381.653C193.393 380.417 189.932 379.864 186.24 379.864V389.864ZM192.999 391.01C194.483 391.543 194.7 392.082 194.776 392.296L204.201 388.952C202.869 385.198 199.886 382.857 196.378 381.598L192.999 391.01ZM194.764 392.26C195.89 395.513 197.118 399.323 198.449 403.696L208.016 400.784C206.659 396.325 205.391 392.391 204.213 388.988L194.764 392.26ZM198.449 403.696C199.783 408.08 201.118 412.625 202.454 417.333L212.075 414.603C210.723 409.839 209.37 405.232 208.016 400.784L198.449 403.696ZM202.459 417.35C203.799 422.008 205.107 426.633 206.383 431.226L216.018 428.55C214.734 423.927 213.418 419.272 212.07 414.586L202.459 417.35ZM206.388 431.244C207.665 435.778 208.781 439.796 209.737 443.3L219.384 440.668C218.42 437.132 217.296 433.086 216.013 428.532L206.388 431.244ZM210.764 438.73C210.764 438.73 210.76 438.735 210.752 438.743C210.744 438.751 210.731 438.763 210.712 438.779C210.673 438.811 210.61 438.859 210.513 438.918C210.317 439.038 210.001 439.193 209.523 439.353L212.686 448.839C214.774 448.143 216.819 447.032 218.357 445.238L210.764 438.73ZM209.349 439.414C208.51 439.729 207.309 439.96 205.632 439.96V449.96C208.18 449.96 210.627 449.615 212.86 448.778L209.349 439.414ZM205.632 439.96C204.35 439.96 203.444 439.851 202.842 439.709L200.551 449.443C202.125 449.813 203.843 449.96 205.632 449.96V439.96ZM202.909 439.725C202.379 439.593 202.133 439.444 202.045 439.38L196.164 447.468C197.484 448.428 198.966 449.047 200.484 449.427L202.909 439.725ZM202.228 439.52C202.187 439.487 202.052 439.367 201.875 439.038L193.07 443.778C193.789 445.113 194.742 446.337 195.981 447.328L202.228 439.52ZM202.012 439.313C201.751 438.747 201.48 438.024 201.213 437.117L191.62 439.939C191.993 441.208 192.426 442.405 192.933 443.503L202.012 439.313ZM201.255 437.266L199.527 430.642L189.85 433.166L191.578 439.79L201.255 437.266ZM194.688 426.904H177.312V436.904H194.688V426.904ZM172.481 430.616C171.962 432.562 171.444 434.572 170.926 436.643L180.627 439.069C181.133 437.044 181.639 435.086 182.144 433.192L172.481 430.616ZM170.926 436.643C170.42 438.668 169.914 440.626 169.409 442.52L179.072 445.096C179.591 443.15 180.109 441.14 180.627 439.069L170.926 436.643ZM172.559 439.099C171.932 439.323 171.229 439.514 170.439 439.662L172.282 449.49C173.54 449.254 174.757 448.933 175.922 448.517L172.559 439.099ZM170.072 439.745C169.667 439.853 168.947 439.96 167.808 439.96V449.96C169.486 449.96 171.134 449.811 172.649 449.407L170.072 439.745ZM167.808 439.96C164.93 439.96 163.7 439.449 163.324 439.193L157.701 447.463C160.525 449.383 164.159 449.96 167.808 449.96V439.96ZM163.512 439.328C163.312 439.178 163.278 439.095 163.275 439.089C163.269 439.077 163.208 438.958 163.208 438.624H153.208C153.208 442.12 154.669 445.195 157.512 447.328L163.512 439.328ZM163.208 438.624C163.208 438.211 163.267 437.777 163.4 437.31L153.785 434.562C153.406 435.887 153.208 437.245 153.208 438.624H163.208ZM163.4 437.31C163.668 436.371 163.966 435.279 164.292 434.04L154.621 431.496C154.307 432.689 154.029 433.709 153.785 434.562L163.4 437.31ZM164.296 434.023C164.723 432.378 165.312 430.299 166.07 427.773L156.491 424.899C155.713 427.493 155.086 429.702 154.617 431.513L164.296 434.023ZM166.036 427.881C166.867 425.323 167.763 422.573 168.722 419.63L159.215 416.53C158.254 419.475 157.358 422.229 156.525 424.791L166.036 427.881ZM168.732 419.6C169.678 416.634 170.689 413.601 171.764 410.503L162.317 407.225C161.216 410.399 160.178 413.51 159.205 416.56L168.732 419.6ZM171.764 410.503C172.851 407.369 173.875 404.428 174.833 401.679L165.391 398.385C164.43 401.14 163.406 404.087 162.317 407.225L171.764 410.503ZM174.845 401.645C175.801 398.842 176.659 396.363 177.419 394.208L167.99 390.88C167.214 393.077 166.344 395.59 165.38 398.419L174.845 401.645ZM177.375 394.33C178.206 392.156 178.842 390.503 179.285 389.364L169.964 385.74C169.511 386.905 168.867 388.58 168.034 390.758L177.375 394.33ZM181.401 398.355C180.512 401.021 179.495 404.01 178.348 407.324L187.797 410.596C188.954 407.254 189.985 404.227 190.888 401.517L181.401 398.355ZM178.329 407.379C177.207 410.745 176.185 414.175 175.262 417.667L184.931 420.221C185.8 416.929 186.762 413.703 187.816 410.541L178.329 407.379ZM180.096 423.944H192V413.944H180.096V423.944ZM196.84 417.689C195.932 414.183 194.989 410.771 194.013 407.453L184.42 410.275C185.364 413.485 186.277 416.792 187.161 420.199L196.84 417.689ZM194.045 407.564C193.141 404.21 192.3 401.198 191.519 398.532L181.922 401.34C182.677 403.922 183.5 406.862 184.388 410.164L194.045 407.564ZM186.72 394.936H186.144V404.936H186.72V394.936ZM222.671 429.504L219.007 426.102L219.007 426.102L222.671 429.504ZM236.303 429.504L239.967 426.102L239.967 426.102L236.303 429.504ZM236.303 442.944L239.967 446.346L239.967 446.346L236.303 442.944ZM222.671 442.944L219.007 446.346L222.671 442.944ZM225.175 436.224C225.175 434.662 225.618 433.678 226.335 432.906L219.007 426.102C216.396 428.914 215.175 432.41 215.175 436.224H225.175ZM226.335 432.906C226.884 432.315 227.728 431.816 229.487 431.816V421.816C225.486 421.816 221.786 423.109 219.007 426.102L226.335 432.906ZM229.487 431.816C231.246 431.816 232.09 432.315 232.639 432.906L239.967 426.102C237.188 423.109 233.488 421.816 229.487 421.816V431.816ZM232.639 432.906C233.356 433.678 233.799 434.662 233.799 436.224H243.799C243.799 432.41 242.578 428.914 239.967 426.102L232.639 432.906ZM233.799 436.224C233.799 437.786 233.356 438.77 232.639 439.542L239.967 446.346C242.578 443.534 243.799 440.038 243.799 436.224H233.799ZM232.639 439.542C232.09 440.133 231.246 440.632 229.487 440.632V450.632C233.488 450.632 237.188 449.339 239.967 446.346L232.639 439.542ZM229.487 440.632C227.728 440.632 226.884 440.133 226.335 439.542L219.007 446.346C221.786 449.339 225.486 450.632 229.487 450.632V440.632ZM226.335 439.542C225.618 438.77 225.175 437.786 225.175 436.224H215.175C215.175 440.038 216.396 443.534 219.007 446.346L226.335 439.542ZM263.69 420.864L262.077 425.597L262.093 425.602L262.109 425.607L263.69 420.864ZM256.01 417.984L253.979 422.553L254.033 422.577L254.087 422.599L256.01 417.984ZM246.122 409.344L241.565 411.402L241.606 411.492L241.65 411.58L246.122 409.344ZM251.018 389.088L247.961 385.132L247.946 385.143L247.932 385.154L251.018 389.088ZM276.362 384.768L277.162 379.832L277.162 379.832L276.362 384.768ZM282.41 386.592L280.174 391.064L280.276 391.115L280.379 391.161L282.41 386.592ZM286.442 389.664L282.442 392.664L282.479 392.714L282.518 392.762L286.442 389.664ZM286.73 398.304L290.89 401.078L290.924 401.026L290.957 400.974L286.73 398.304ZM283.946 401.28L281.262 405.498L284.209 407.374L286.983 405.252L283.946 401.28ZM278.282 398.976L276.857 403.769L276.917 403.787L276.977 403.803L278.282 398.976ZM264.17 399.168L266.651 403.509L266.727 403.466L266.802 403.419L264.17 399.168ZM263.402 404.544L260.353 408.507L260.453 408.584L260.556 408.655L263.402 404.544ZM267.146 406.176L268.673 401.415L268.645 401.406L268.616 401.397L267.146 406.176ZM272.234 407.808L270.707 412.569L270.714 412.571L272.234 407.808ZM286.058 415.2L282.633 418.843L282.671 418.878L282.709 418.913L286.058 415.2ZM284.522 440.544L287.588 444.494L287.606 444.48L287.624 444.465L284.522 440.544ZM257.354 444.768L258.335 439.865L258.286 439.855L258.237 439.847L257.354 444.768ZM250.73 442.752L248.433 447.193L248.523 447.24L248.616 447.283L250.73 442.752ZM246.314 439.296L242.27 442.237L242.346 442.341L242.428 442.442L246.314 439.296ZM246.41 429.792L250.22 433.03L250.259 432.985L250.296 432.938L246.41 429.792ZM249.962 426.72L253.051 422.788L250.45 420.745L247.552 422.339L249.962 426.72ZM256.49 430.368L254.633 435.01L254.653 435.018L254.672 435.026L256.49 430.368ZM271.658 430.464L274.658 434.464L274.658 434.464L271.658 430.464ZM272.042 424.224L269.209 428.344L269.299 428.406L269.392 428.464L272.042 424.224ZM267.722 422.208L269.352 417.481L269.328 417.473L269.303 417.465L267.722 422.208ZM265.303 416.131C262.573 415.201 260.118 414.279 257.933 413.369L254.087 422.599C256.51 423.609 259.175 424.607 262.077 425.597L265.303 416.131ZM258.041 413.415C256.104 412.554 254.538 411.577 253.288 410.519L246.828 418.153C248.906 419.911 251.308 421.366 253.979 422.553L258.041 413.415ZM253.288 410.519C252.132 409.542 251.247 408.413 250.594 407.108L241.65 411.58C242.917 414.115 244.656 416.314 246.828 418.153L253.288 410.519ZM250.679 407.286C250.147 406.109 249.778 404.45 249.778 402.144H239.778C239.778 405.47 240.305 408.611 241.565 411.402L250.679 407.286ZM249.778 402.144C249.778 398.188 251.192 395.306 254.104 393.022L247.932 385.154C242.524 389.398 239.778 395.22 239.778 402.144H249.778ZM254.075 393.044C257.125 390.687 261.789 389.192 268.682 389.192V379.192C260.471 379.192 253.359 380.961 247.961 385.132L254.075 393.044ZM268.682 389.192C271.204 389.192 273.493 389.368 275.562 389.704L277.162 379.832C274.495 379.4 271.664 379.192 268.682 379.192V389.192ZM275.562 389.704C277.567 390.029 279.071 390.513 280.174 391.064L284.646 382.12C282.421 381.007 279.893 380.275 277.162 379.832L275.562 389.704ZM280.379 391.161C281.47 391.646 282.08 392.181 282.442 392.664L290.442 386.664C288.884 384.587 286.806 383.074 284.441 382.023L280.379 391.161ZM282.518 392.762C282.728 393.028 282.882 393.355 282.882 393.984H292.882C292.882 391.285 292.076 388.732 290.366 386.566L282.518 392.762ZM282.882 393.984C282.882 394.854 282.691 395.336 282.503 395.634L290.957 400.974C292.305 398.84 292.882 396.442 292.882 393.984H282.882ZM282.57 395.53C282.104 396.229 281.554 396.815 280.909 397.308L286.983 405.252C288.514 404.081 289.82 402.683 290.89 401.078L282.57 395.53ZM286.63 397.062C284.647 395.799 282.236 394.865 279.587 394.149L276.977 403.803C279.064 404.367 280.429 404.969 281.262 405.498L286.63 397.062ZM279.707 394.183C276.817 393.324 273.738 392.92 270.506 392.92V402.92C272.906 402.92 275.011 403.22 276.857 403.769L279.707 394.183ZM270.506 392.92C267.352 392.92 264.089 393.338 261.538 394.917L266.802 403.419C266.8 403.42 266.863 403.382 267.02 403.325C267.177 403.268 267.408 403.201 267.728 403.138C268.38 403.009 269.289 402.92 270.506 402.92V392.92ZM261.689 394.827C259.281 396.203 257.154 398.63 257.154 402.144H267.154C267.154 402.307 267.131 402.509 267.063 402.73C266.996 402.951 266.9 403.142 266.798 403.292C266.599 403.585 266.455 403.621 266.651 403.509L261.689 394.827ZM257.154 402.144C257.154 404.816 258.423 407.022 260.353 408.507L266.451 400.581C266.518 400.633 266.723 400.813 266.902 401.157C267.088 401.516 267.154 401.874 267.154 402.144H257.154ZM260.556 408.655C262.007 409.659 263.82 410.384 265.676 410.955L268.616 401.397C267.144 400.944 266.461 400.581 266.248 400.433L260.556 408.655ZM265.619 410.937L270.707 412.569L273.761 403.047L268.673 401.415L265.619 410.937ZM270.714 412.571C276.308 414.357 280.161 416.519 282.633 418.843L289.483 411.557C285.555 407.865 280.192 405.099 273.754 403.045L270.714 412.571ZM282.709 418.913C284.746 420.75 285.954 423.335 285.954 427.296H295.954C295.954 421.017 293.898 415.538 289.407 411.487L282.709 418.913ZM285.954 427.296C285.954 431.198 284.516 434.173 281.42 436.623L287.624 444.465C293.104 440.131 295.954 434.274 295.954 427.296H285.954ZM281.456 436.594C278.403 438.964 273.38 440.536 265.61 440.536V450.536C274.48 450.536 282.065 448.78 287.588 444.494L281.456 436.594ZM265.61 440.536C262.954 440.536 260.534 440.305 258.335 439.865L256.373 449.671C259.294 450.255 262.378 450.536 265.61 450.536V440.536ZM258.237 439.847C256.086 439.461 254.305 438.903 252.844 438.221L248.616 447.283C250.995 448.393 253.63 449.179 256.471 449.689L258.237 439.847ZM253.027 438.311C251.659 437.603 250.773 436.857 250.2 436.15L242.428 442.442C244.031 444.423 246.089 445.981 248.433 447.193L253.027 438.311ZM250.358 436.355C249.974 435.828 249.778 435.264 249.778 434.496H239.778C239.778 437.312 240.606 439.948 242.27 442.237L250.358 436.355ZM249.778 434.496C249.778 433.693 249.982 433.31 250.22 433.03L242.6 426.554C240.662 428.834 239.778 431.587 239.778 434.496H249.778ZM250.296 432.938C251.05 432.007 251.753 431.441 252.372 431.101L247.552 422.339C245.611 423.407 243.946 424.889 242.524 426.646L250.296 432.938ZM246.873 430.652C249.108 432.408 251.72 433.845 254.633 435.01L258.347 425.726C256.14 424.843 254.4 423.848 253.051 422.788L246.873 430.652ZM254.672 435.026C257.926 436.296 261.397 436.904 265.034 436.904V426.904C262.527 426.904 260.302 426.488 258.308 425.71L254.672 435.026ZM265.034 436.904C268.374 436.904 272.006 436.453 274.658 434.464L268.658 426.464C268.779 426.373 268.651 426.512 267.98 426.658C267.33 426.799 266.371 426.904 265.034 426.904V436.904ZM274.658 434.464C276.848 432.822 278.578 430.348 278.578 427.104H268.578C268.578 427.002 268.591 426.879 268.627 426.746C268.662 426.613 268.711 426.503 268.757 426.423C268.846 426.266 268.879 426.298 268.658 426.464L274.658 434.464ZM278.578 427.104C278.578 424.225 277.281 421.602 274.692 419.984L269.392 428.464C269.245 428.372 268.982 428.152 268.782 427.777C268.589 427.415 268.578 427.14 268.578 427.104H278.578ZM274.875 420.104C273.329 419.041 271.418 418.194 269.352 417.481L266.092 426.935C267.738 427.502 268.707 427.999 269.209 428.344L274.875 420.104ZM269.303 417.465L265.271 416.121L262.109 425.607L266.141 426.951L269.303 417.465Z" fill="#f9b253"/>
<path d="M304.741 298.916C304.741 288.376 291.829 279.03 271.975 273.325C276.751 253.944 274.666 238.525 265.161 233.309C262.83 232.065 260.2 231.432 257.535 231.473C248.667 231.473 237.458 237.424 226.139 247.718C214.819 237.5 203.642 231.58 194.79 231.58C192.083 231.523 189.41 232.168 187.052 233.447C177.595 238.678 175.637 254.005 180.35 273.294C160.592 278.969 147.743 288.239 147.712 298.732C147.68 309.226 160.639 318.618 180.493 324.308C175.717 343.704 177.786 359.108 187.307 364.324C189.629 365.574 192.256 366.208 194.917 366.159C203.801 366.159 215.01 360.209 226.33 349.914C237.634 360.132 248.81 366.052 257.678 366.052C260.384 366.1 263.054 365.456 265.416 364.186C274.873 358.955 276.815 343.627 272.118 324.415C291.876 318.664 304.725 309.394 304.741 298.916ZM233.43 251.175C246.47 239.963 254.621 238.755 257.519 238.755C258.863 238.713 260.193 239.019 261.372 239.642C265.925 242.135 267.74 250.931 266.291 262.587C265.92 265.563 265.389 268.519 264.699 271.443C258.102 269.97 251.411 268.912 244.671 268.277C240.656 262.865 236.274 257.714 231.552 252.858C232.141 252.292 232.778 251.726 233.43 251.175ZM193.962 307.589C195.204 309.883 196.525 312.178 197.895 314.488C199.264 316.797 200.697 319.138 202.289 321.448C197.974 320.851 193.787 320.101 189.807 319.214C190.921 315.329 192.338 311.505 193.962 307.589ZM189.552 278.464C193.58 277.562 197.799 276.812 202.177 276.231C200.585 278.495 199.216 280.82 197.783 283.252C196.35 285.684 195.093 287.841 193.867 290.166C192.243 286.189 190.804 282.288 189.552 278.464ZM197.847 298.87C199.821 294.862 201.992 290.854 204.359 286.847C206.747 282.839 209.31 278.938 211.953 275.206C216.586 274.87 221.362 274.686 226.282 274.701C231.201 274.717 235.834 274.885 240.436 275.237C243.078 278.938 245.61 282.885 247.998 286.786C250.386 290.686 252.583 294.77 254.558 298.763C252.599 302.77 250.418 306.793 248.062 310.771C245.705 314.748 243.11 318.694 240.467 322.427C235.834 322.778 231.058 322.947 226.139 322.947C221.219 322.947 216.586 322.748 211.985 322.396C209.342 318.694 206.794 314.839 204.406 310.847C202.018 306.855 199.901 302.862 197.911 298.87H197.847ZM250.163 276.277C254.494 276.858 258.681 277.608 262.645 278.495C261.467 282.273 260.066 286.143 258.442 290.044C257.185 287.749 255.879 285.455 254.494 283.145C253.109 280.835 251.644 278.51 250.227 276.277H250.163ZM254.558 314.396C255.927 312.081 257.232 309.771 258.474 307.467C260.066 311.444 261.658 315.36 262.773 319.184C258.761 320.086 254.542 320.82 250.163 321.402C251.702 319.138 253.188 316.802 254.621 314.396H254.558ZM226.17 258.059C229.036 260.996 231.854 264.177 234.609 267.588C231.886 267.481 229.1 267.405 226.282 267.405C223.464 267.405 220.582 267.405 217.796 267.588C220.518 264.193 223.305 260.996 226.17 258.059ZM190.858 239.703C192.065 239.086 193.423 238.79 194.79 238.846C197.658 238.961 200.471 239.643 203.053 240.85C208.888 243.493 214.259 246.992 218.974 251.221L220.837 252.858C216.163 257.678 211.823 262.788 207.845 268.154C201.068 268.785 194.341 269.838 187.705 271.306C187.005 268.338 186.431 265.432 186.113 262.632C184.457 251.084 186.368 242.273 190.842 239.764L190.858 239.703ZM182.435 317.256C179.444 316.379 176.5 315.358 173.615 314.197C162.311 309.608 155.306 303.719 155.306 298.686C155.306 293.654 162.343 287.795 173.631 283.283C176.465 282.155 179.355 281.165 182.292 280.315C184.282 286.652 186.708 292.856 189.552 298.885C186.768 304.854 184.391 310.991 182.435 317.256ZM219.054 346.473C206.014 357.685 197.863 358.878 194.949 358.878C193.605 358.921 192.274 358.615 191.096 357.991C186.543 355.498 184.728 346.702 186.177 335.046C186.547 332.074 187.078 329.123 187.769 326.205C194.368 327.665 201.058 328.718 207.797 329.356C211.807 334.771 216.19 339.923 220.916 344.775L219.054 346.473ZM226.33 339.574C223.464 336.637 220.646 333.455 217.876 330.044C220.614 330.167 223.4 330.228 226.218 330.228C229.036 330.228 231.918 330.228 234.704 330.059C231.95 333.455 229.148 336.637 226.314 339.574H226.33ZM261.642 357.93C260.434 358.566 259.071 358.877 257.694 358.832C254.796 358.832 246.549 357.609 233.558 346.442L231.695 344.805C236.364 339.985 240.698 334.875 244.671 329.509C251.454 328.887 258.188 327.834 264.827 326.358C265.527 329.325 266.084 332.232 266.419 335.031C267.995 346.564 266.164 355.375 261.627 357.869L261.642 357.93ZM278.837 314.426C276.115 315.497 273.233 316.491 270.176 317.379C268.178 311.042 265.747 304.838 262.9 298.809C265.697 292.846 268.085 286.715 270.049 280.453C273.04 281.33 275.984 282.351 278.869 283.512C290.157 288.101 297.178 293.99 297.162 299.023C297.146 304.055 290.125 309.853 278.821 314.365L278.837 314.426ZM226.17 312.866C229.061 312.869 231.888 312.049 234.293 310.508C236.698 308.968 238.574 306.777 239.683 304.212C240.792 301.647 241.085 298.824 240.524 296.099C239.963 293.375 238.574 290.871 236.532 288.905C234.49 286.939 231.888 285.599 229.053 285.055C226.219 284.51 223.28 284.785 220.608 285.845C217.936 286.905 215.651 288.702 214.043 291.01C212.434 293.317 211.574 296.031 211.571 298.809C211.567 300.653 211.941 302.481 212.673 304.186C213.405 305.891 214.48 307.441 215.836 308.747C217.192 310.053 218.803 311.089 220.576 311.796C222.349 312.502 224.25 312.866 226.17 312.866ZM136.662 221.485V376.163H315.806V221.485H136.662ZM315.806 376.163H136.662V221.485H315.806V376.163ZM180.477 324.308C175.701 343.704 177.77 359.108 187.291 364.324C189.613 365.574 192.24 366.208 194.901 366.159C203.785 366.159 214.994 360.209 226.314 349.914C237.618 360.132 248.794 366.052 257.662 366.052C260.368 366.1 263.038 365.456 265.4 364.186C274.857 358.955 276.799 343.627 272.103 324.415C291.861 318.725 304.709 309.455 304.725 298.977C304.741 288.499 291.813 279.091 271.959 273.386C276.736 254.005 274.65 238.586 265.145 233.37C262.814 232.127 260.184 231.493 257.519 231.535C248.651 231.535 237.442 237.485 226.123 247.779C214.803 237.561 203.626 231.642 194.774 231.642C192.067 231.584 189.394 232.229 187.036 233.508C177.579 238.739 175.621 254.066 180.334 273.355C160.576 279.03 147.727 288.3 147.696 298.793C147.664 309.287 160.639 318.587 180.493 324.308H180.477ZM219.022 346.473C205.983 357.685 197.831 358.878 194.917 358.878C193.573 358.921 192.242 358.615 191.064 357.991C186.511 355.498 184.696 346.702 186.145 335.046C186.515 332.074 187.046 329.123 187.737 326.205C194.336 327.665 201.026 328.718 207.766 329.356C211.775 334.771 216.158 339.923 220.885 344.775L219.022 346.473ZM258.49 290.044C257.232 287.749 255.927 285.455 254.542 283.145C253.157 280.835 251.676 278.556 250.211 276.277C254.542 276.858 258.729 277.608 262.693 278.495C261.531 282.273 260.13 286.143 258.506 290.044H258.49ZM262.821 319.107C258.808 320.01 254.589 320.744 250.211 321.325C251.708 319.061 253.172 316.726 254.605 314.319C256.038 311.913 257.344 309.603 258.522 307.39C260.194 311.444 261.642 315.329 262.789 319.184L262.821 319.107ZM254.526 298.686C252.567 302.694 250.386 306.717 248.03 310.694C245.674 314.671 243.078 318.618 240.436 322.35C235.803 322.702 231.026 322.87 226.107 322.87C221.187 322.87 216.554 322.671 211.953 322.319C209.31 318.618 206.763 314.763 204.374 310.771C201.986 306.778 199.805 302.786 197.815 298.793C199.789 294.786 201.96 290.778 204.327 286.77C206.715 282.763 209.278 278.862 211.921 275.13C216.554 274.793 221.33 274.61 226.25 274.625C231.17 274.64 235.803 274.808 240.404 275.16C243.047 278.862 245.578 282.809 247.966 286.709C250.354 290.61 252.567 294.77 254.542 298.763L254.526 298.686ZM202.289 321.448C197.974 320.851 193.787 320.101 189.807 319.214C190.985 315.451 192.402 311.566 194.026 307.665C195.268 309.96 196.589 312.254 197.958 314.564C199.328 316.874 200.697 319.138 202.289 321.448ZM197.847 283.206C196.462 285.501 195.156 287.795 193.93 290.12C192.264 286.174 190.804 282.288 189.552 278.464C193.58 277.562 197.799 276.812 202.177 276.231C200.697 278.495 199.28 280.835 197.847 283.206ZM226.314 339.574C223.448 336.637 220.63 333.455 217.86 330.044C220.598 330.167 223.384 330.228 226.202 330.228C229.02 330.228 231.902 330.228 234.688 330.059C231.95 333.455 229.148 336.637 226.314 339.574ZM261.627 357.93C260.419 358.566 259.055 358.877 257.678 358.832C254.78 358.832 246.533 357.609 233.542 346.442L231.679 344.805C236.348 339.985 240.682 334.875 244.655 329.509C251.438 328.887 258.172 327.834 264.811 326.358C265.511 329.325 266.068 332.232 266.403 335.031C267.995 346.564 266.164 355.375 261.627 357.869V357.93ZM270.033 280.438C273.024 281.315 275.968 282.336 278.853 283.497C290.141 288.086 297.162 293.975 297.146 299.008C297.13 304.04 290.125 309.96 278.821 314.472C276.099 315.543 273.217 316.537 270.16 317.425C268.162 311.088 265.731 304.884 262.884 298.855C265.686 292.852 268.074 286.68 270.033 280.376V280.438ZM233.414 251.236C246.454 240.024 254.605 238.816 257.503 238.816C258.847 238.774 260.178 239.081 261.356 239.703C265.909 242.196 267.724 250.992 266.275 262.648C265.904 265.624 265.373 268.581 264.683 271.504C258.086 270.031 251.396 268.973 244.655 268.338C240.641 262.926 236.258 257.775 231.536 252.919C232.141 252.292 232.778 251.726 233.43 251.175L233.414 251.236ZM226.17 258.059C229.036 260.996 231.854 264.177 234.609 267.588C231.886 267.481 229.1 267.405 226.282 267.405C223.464 267.405 220.582 267.405 217.796 267.588C220.518 264.193 223.305 260.996 226.17 258.059ZM190.858 239.703C192.065 239.086 193.423 238.79 194.79 238.846C197.658 238.961 200.471 239.643 203.053 240.85C208.888 243.493 214.259 246.992 218.974 251.221L220.837 252.858C216.163 257.678 211.823 262.788 207.845 268.154C201.068 268.785 194.341 269.838 187.705 271.306C187.005 268.338 186.431 265.432 186.113 262.632C184.457 251.084 186.368 242.273 190.842 239.764L190.858 239.703ZM173.631 283.283C176.465 282.155 179.355 281.165 182.292 280.315C184.282 286.652 186.708 292.856 189.552 298.885C186.758 304.849 184.37 310.98 182.403 317.241C179.412 316.364 176.468 315.342 173.583 314.182C162.279 309.593 155.274 303.704 155.274 298.671C155.274 293.638 162.343 287.795 173.631 283.283ZM226.17 284.812C223.28 284.809 220.453 285.63 218.048 287.17C215.643 288.711 213.767 290.902 212.658 293.467C211.548 296.031 211.256 298.855 211.817 301.579C212.378 304.304 213.767 306.807 215.808 308.773C217.85 310.739 220.453 312.079 223.288 312.624C226.122 313.169 229.061 312.894 231.733 311.834C234.405 310.774 236.689 308.976 238.298 306.669C239.907 304.361 240.767 301.647 240.77 298.87C240.785 297.019 240.418 295.183 239.691 293.469C238.964 291.755 237.891 290.196 236.533 288.882C235.176 287.568 233.562 286.525 231.783 285.814C230.005 285.102 228.097 284.736 226.17 284.736V284.812ZM226.17 284.812C223.28 284.809 220.453 285.63 218.048 287.17C215.643 288.711 213.767 290.902 212.658 293.467C211.548 296.031 211.256 298.855 211.817 301.579C212.378 304.304 213.767 306.807 215.808 308.773C217.85 310.739 220.453 312.079 223.288 312.624C226.122 313.169 229.061 312.894 231.733 311.834C234.405 310.774 236.689 308.976 238.298 306.669C239.907 304.361 240.767 301.647 240.77 298.87C240.785 297.019 240.418 295.183 239.691 293.469C238.964 291.755 237.891 290.196 236.533 288.882C235.176 287.568 233.562 286.525 231.783 285.814C230.005 285.102 228.097 284.736 226.17 284.736V284.812ZM226.17 284.812C223.28 284.809 220.453 285.63 218.048 287.17C215.643 288.711 213.767 290.902 212.658 293.467C211.548 296.031 211.256 298.855 211.817 301.579C212.378 304.304 213.767 306.807 215.808 308.773C217.85 310.739 220.453 312.079 223.288 312.624C226.122 313.169 229.061 312.894 231.733 311.834C234.405 310.774 236.689 308.976 238.298 306.669C239.907 304.361 240.767 301.647 240.77 298.87C240.785 297.019 240.418 295.183 239.691 293.469C238.964 291.755 237.891 290.196 236.533 288.882C235.176 287.568 233.562 286.525 231.783 285.814C230.005 285.102 228.097 284.736 226.17 284.736V284.812ZM304.741 298.946C304.741 288.407 291.829 279.061 271.975 273.355C276.751 253.975 274.666 238.556 265.161 233.34C262.83 232.096 260.2 231.463 257.535 231.504C248.667 231.504 237.458 237.454 226.139 247.749C214.819 237.531 203.642 231.611 194.79 231.611C192.083 231.554 189.41 232.198 187.052 233.477C177.595 238.709 175.637 254.036 180.35 273.325C160.592 279 147.743 288.269 147.712 298.763C147.68 309.256 160.639 318.648 180.493 324.339C175.717 343.735 177.786 359.138 187.307 364.354C189.629 365.605 192.256 366.238 194.917 366.19C203.801 366.19 215.01 360.24 226.33 349.945C237.634 360.163 248.81 366.083 257.678 366.083C260.384 366.131 263.054 365.486 265.416 364.217C274.873 358.985 276.815 343.658 272.118 324.446C291.876 318.664 304.725 309.394 304.741 298.916V298.946ZM233.43 251.175C246.47 239.963 254.621 238.755 257.519 238.755C258.863 238.713 260.193 239.019 261.372 239.642C265.925 242.135 267.74 250.931 266.291 262.587C265.92 265.563 265.389 268.519 264.699 271.443C258.102 269.97 251.411 268.912 244.671 268.277C240.656 262.865 236.274 257.714 231.552 252.858C232.141 252.292 232.778 251.726 233.43 251.175ZM193.962 307.589C195.204 309.883 196.525 312.178 197.895 314.488C199.264 316.797 200.697 319.138 202.289 321.448C197.974 320.851 193.787 320.101 189.807 319.214C190.921 315.329 192.338 311.505 193.962 307.589ZM189.552 278.464C193.58 277.562 197.799 276.812 202.177 276.231C200.585 278.495 199.216 280.82 197.783 283.252C196.35 285.684 195.093 287.841 193.867 290.166C192.243 286.189 190.804 282.288 189.552 278.464ZM197.847 298.87C199.821 294.862 201.992 290.854 204.359 286.847C206.747 282.839 209.31 278.938 211.953 275.206C216.586 274.87 221.362 274.686 226.282 274.701C231.201 274.717 235.834 274.885 240.436 275.237C243.078 278.938 245.61 282.885 247.998 286.786C250.386 290.686 252.583 294.77 254.558 298.763C252.599 302.77 250.418 306.793 248.062 310.771C245.705 314.748 243.11 318.694 240.467 322.427C235.834 322.778 231.058 322.947 226.139 322.947C221.219 322.947 216.586 322.748 211.985 322.396C209.342 318.694 206.794 314.839 204.406 310.847C202.018 306.855 199.901 302.862 197.911 298.87H197.847ZM250.163 276.277C254.494 276.858 258.681 277.608 262.645 278.495C261.467 282.273 260.066 286.143 258.442 290.044C257.185 287.749 255.879 285.455 254.494 283.145C253.109 280.835 251.644 278.51 250.227 276.277H250.163ZM254.558 314.396C255.927 312.081 257.232 309.771 258.474 307.467C260.066 311.444 261.658 315.36 262.773 319.184C258.761 320.086 254.542 320.82 250.163 321.402C251.702 319.138 253.188 316.802 254.621 314.396H254.558ZM226.17 258.059C229.036 260.996 231.854 264.177 234.609 267.588C231.886 267.481 229.1 267.405 226.282 267.405C223.464 267.405 220.582 267.405 217.796 267.588C220.518 264.193 223.305 260.996 226.17 258.059ZM190.858 239.703C192.065 239.086 193.423 238.79 194.79 238.846C197.658 238.961 200.471 239.643 203.053 240.85C208.888 243.493 214.259 246.992 218.974 251.221L220.837 252.858C216.163 257.678 211.823 262.788 207.845 268.154C201.068 268.785 194.341 269.838 187.705 271.306C187.005 268.338 186.431 265.432 186.113 262.632C184.457 251.084 186.368 242.273 190.842 239.764L190.858 239.703ZM182.435 317.256C179.444 316.379 176.5 315.358 173.615 314.197C162.311 309.608 155.306 303.719 155.306 298.686C155.306 293.654 162.343 287.795 173.631 283.283C176.465 282.155 179.355 281.165 182.292 280.315C184.282 286.652 186.708 292.856 189.552 298.885C186.768 304.854 184.391 310.991 182.435 317.256ZM219.054 346.473C206.014 357.685 197.863 358.878 194.949 358.878C193.605 358.921 192.274 358.615 191.096 357.991C186.543 355.498 184.728 346.702 186.177 335.046C186.547 332.074 187.078 329.123 187.769 326.205C194.368 327.665 201.058 328.718 207.797 329.356C211.807 334.771 216.19 339.923 220.916 344.775L219.054 346.473ZM226.33 339.574C223.464 336.637 220.646 333.455 217.876 330.044C220.614 330.167 223.4 330.228 226.218 330.228C229.036 330.228 231.918 330.228 234.704 330.059C231.95 333.455 229.148 336.637 226.314 339.574H226.33ZM261.642 357.93C260.434 358.566 259.071 358.877 257.694 358.832C254.796 358.832 246.549 357.609 233.558 346.442L231.695 344.805C236.364 339.985 240.698 334.875 244.671 329.509C251.454 328.887 258.188 327.834 264.827 326.358C265.527 329.325 266.084 332.232 266.419 335.031C267.995 346.564 266.164 355.375 261.627 357.869L261.642 357.93ZM278.837 314.426C276.115 315.497 273.233 316.491 270.176 317.379C268.178 311.042 265.747 304.838 262.9 298.809C265.697 292.846 268.085 286.715 270.049 280.453C273.04 281.33 275.984 282.351 278.869 283.512C290.157 288.101 297.178 293.99 297.162 299.023C297.146 304.055 290.125 309.853 278.821 314.365L278.837 314.426ZM226.17 312.866C229.061 312.869 231.888 312.049 234.293 310.508C236.698 308.968 238.574 306.777 239.683 304.212C240.792 301.647 241.085 298.824 240.524 296.099C239.963 293.375 238.574 290.871 236.532 288.905C234.49 286.939 231.888 285.599 229.053 285.055C226.219 284.51 223.28 284.785 220.608 285.845C217.936 286.905 215.651 288.702 214.043 291.01C212.434 293.317 211.574 296.031 211.571 298.809C211.567 300.653 211.941 302.481 212.673 304.186C213.405 305.891 214.48 307.441 215.836 308.747C217.192 310.053 218.803 311.089 220.576 311.796C222.349 312.502 224.25 312.866 226.17 312.866Z" fill="#f9b253"/>
<path d="M276.5 466.5H321.5V540C321.5 552.426 311.427 562.5 299 562.5C286.574 562.5 276.5 552.426 276.5 540V466.5Z" stroke="#f9b253" stroke-width="5"/>
<path d="M135.5 466.5H180.5V540C180.5 552.426 170.427 562.5 158 562.5C145.574 562.5 135.5 552.426 135.5 540V466.5Z" stroke="#f9b253" stroke-width="5"/>
</g>
<defs>
<filter id="filter0_d" x="0" y="0" width="451.805" height="573" filterUnits="userSpaceOnUse" color-interpolation-filters="sRGB">
<feFlood flood-opacity="0" result="BackgroundImageFix"/>
<feColorMatrix in="SourceAlpha" type="matrix" values="0 0 0 0 0 0 0 0 0 0 0 0 0 0 0 0 0 0 127 0"/>
<feOffset dy="4"/>
<feGaussianBlur stdDeviation="2"/>
<feColorMatrix type="matrix" values="0 0 0 0 0 0 0 0 0 0 0 0 0 0 0 0 0 0 0.25 0"/>
<feBlend mode="normal" in2="BackgroundImageFix" result="effect1_dropShadow"/>
<feBlend mode="normal" in="SourceGraphic" in2="effect1_dropShadow" result="shape"/>
</filter>
</defs>
</svg>
