<svg width="526" height="565" viewBox="0 0 526 565" fill="none" xmlns="http://www.w3.org/2000/svg">
<path d="M196.052 5.42718L196.972 5.03645C199.26 4.06537 201.902 5.13272 202.873 7.42043L226.512 63.111L217.307 67.0183L193.668 11.3277C192.697 9.04003 193.764 6.39826 196.052 5.42718Z" stroke="#00FFD1" stroke-width="5"/>
<path d="M371.448 5.03638L372.369 5.42711C374.657 6.39819 375.724 9.03996 374.753 11.3277L363.812 37.1018L351.114 67.0182L341.909 63.1109L365.548 7.42036C366.519 5.13265 369.161 4.0653 371.448 5.03638Z" stroke="#00FFD1" stroke-width="5"/>
<path d="M420.077 143.039C426.862 159.419 430.633 176.876 431.223 194.569C431.266 195.861 430.209 196.985 428.805 196.985H283.805L138.805 196.985C137.402 196.985 136.344 195.861 136.387 194.569C136.977 176.876 140.748 159.419 147.533 143.039C154.946 125.143 165.81 108.883 179.507 95.1864C193.204 81.4898 209.464 70.625 227.359 63.2125C245.255 55.7999 264.435 51.9847 283.805 51.9847C303.175 51.9847 322.355 55.7999 340.251 63.2125C358.146 70.625 374.407 81.4898 388.103 95.1864C401.8 108.883 412.665 125.143 420.077 143.039Z" stroke="#00FFD1" stroke-width="5"/>
<path d="M246.805 151.955C246.805 166.575 242.328 178.426 236.805 178.426C231.283 178.426 226.805 166.575 226.805 151.955C226.805 137.336 231.283 125.485 236.805 125.485C242.328 125.485 246.805 137.336 246.805 151.955Z" fill="#00FFD1"/>
<path d="M246.805 151.955C246.805 166.575 242.328 178.426 236.805 178.426C231.283 178.426 226.805 166.575 226.805 151.955C226.805 137.336 231.283 125.485 236.805 125.485C242.328 125.485 246.805 137.336 246.805 151.955Z" stroke="black"/>
<path d="M341.805 151.955C341.805 166.575 337.328 178.426 331.805 178.426C326.283 178.426 321.805 166.575 321.805 151.955C321.805 137.336 326.283 125.485 331.805 125.485C337.328 125.485 341.805 137.336 341.805 151.955Z" fill="#00FFD1"/>
<path d="M341.805 151.955C341.805 166.575 337.328 178.426 331.805 178.426C326.283 178.426 321.805 166.575 321.805 151.955C321.805 137.336 326.283 125.485 331.805 125.485C337.328 125.485 341.805 137.336 341.805 151.955Z" stroke="black"/>
<path d="M73.8755 265.83L14.665 163.275C8.4518 152.513 12.139 138.752 22.9006 132.539C33.6621 126.326 47.4229 130.013 53.6361 140.775L112.847 243.33C119.06 254.092 115.373 267.853 104.611 274.066C93.8495 280.279 80.0887 276.592 73.8755 265.83Z" stroke="#00FFD1" stroke-width="5"/>
<rect x="435.582" y="232.637" width="45" height="166.053" rx="22.5" transform="rotate(-15 435.582 232.637)" stroke="#00FFD1" stroke-width="5"/>
<path d="M138.805 214.985H428.805C430.186 214.985 431.305 216.104 431.305 217.485V448.485C431.305 458.15 423.47 465.985 413.805 465.985H153.805C144.14 465.985 136.305 458.15 136.305 448.485V217.485C136.305 216.104 137.424 214.985 138.805 214.985Z" stroke="#00FFD1" stroke-width="5"/>
<path d="M230.624 387.552L228.089 383.242L226.593 384.122L225.964 385.74L230.624 387.552ZM235.52 385.728L234.275 380.886L234.258 380.89L234.241 380.894L235.52 385.728ZM250.688 386.304L248.852 390.955L248.925 390.984L248.999 391.01L250.688 386.304ZM255.488 390.624L260.213 388.988L260.207 388.97L260.2 388.952L255.488 390.624ZM259.232 402.24L264.015 400.784L264.015 400.784L259.232 402.24ZM263.264 415.968L258.454 417.333L258.456 417.342L258.459 417.35L263.264 415.968ZM267.2 429.888L262.382 431.226L262.385 431.235L262.387 431.244L267.2 429.888ZM270.56 441.984L274.356 445.238L276.081 443.226L275.384 440.668L270.56 441.984ZM267.104 444.096L265.523 439.353L265.435 439.382L265.348 439.414L267.104 444.096ZM257.696 444.576L256.483 449.427L256.517 449.435L256.551 449.443L257.696 444.576ZM255.104 443.424L251.981 447.328L252.07 447.4L252.163 447.468L255.104 443.424ZM253.472 441.408L248.932 443.503L248.997 443.643L249.07 443.778L253.472 441.408ZM252.416 438.528L247.578 439.79L247.597 439.865L247.619 439.939L252.416 438.528ZM250.688 431.904L255.526 430.642L254.551 426.904H250.688V431.904ZM233.312 431.904V426.904H229.471L228.481 430.616L233.312 431.904ZM231.776 437.856L226.925 436.643L226.925 436.643L231.776 437.856ZM230.24 443.808L231.922 448.517L234.395 447.634L235.071 445.096L230.24 443.808ZM227.36 444.576L226.439 439.662L226.254 439.696L226.072 439.745L227.36 444.576ZM216.512 443.328L213.512 447.328L213.605 447.397L213.7 447.463L216.512 443.328ZM214.592 435.936L209.784 434.562L209.784 434.562L214.592 435.936ZM215.456 432.768L220.291 434.04L220.294 434.032L220.296 434.023L215.456 432.768ZM217.28 426.336L212.525 424.791L212.507 424.845L212.491 424.899L217.28 426.336ZM219.968 418.08L224.722 419.63L224.727 419.615L224.731 419.6L219.968 418.08ZM223.04 408.864L218.316 407.225L218.316 407.225L223.04 408.864ZM226.112 400.032L230.833 401.679L230.839 401.662L230.845 401.645L226.112 400.032ZM228.704 392.544L224.034 390.758L224.011 390.819L223.989 390.88L228.704 392.544ZM242.144 399.936V394.936H238.54L237.401 398.355L242.144 399.936ZM239.072 408.96L234.347 407.324L234.338 407.352L234.329 407.379L239.072 408.96ZM236.096 418.944L231.262 417.667L229.604 423.944H236.096V418.944ZM248 418.944V423.944H254.462L252.84 417.689L248 418.944ZM245.216 408.864L240.388 410.164L240.403 410.22L240.419 410.275L245.216 408.864ZM242.72 399.936L247.519 398.532L246.466 394.936H242.72V399.936ZM233.159 391.862C233.662 391.566 234.777 391.097 236.799 390.562L234.241 380.894C231.911 381.511 229.762 382.258 228.089 383.242L233.159 391.862ZM236.765 390.57C238.612 390.096 240.434 389.864 242.24 389.864V379.864C239.566 379.864 236.908 380.208 234.275 380.886L236.765 390.57ZM242.24 389.864C244.948 389.864 247.12 390.271 248.852 390.955L252.524 381.653C249.392 380.417 245.932 379.864 242.24 379.864V389.864ZM248.999 391.01C250.482 391.543 250.7 392.082 250.776 392.296L260.2 388.952C258.868 385.198 255.886 382.857 252.377 381.598L248.999 391.01ZM250.763 392.26C251.889 395.513 253.118 399.323 254.449 403.696L264.015 400.784C262.658 396.325 261.391 392.391 260.213 388.988L250.763 392.26ZM254.449 403.696C255.783 408.08 257.118 412.625 258.454 417.333L268.074 414.603C266.722 409.839 265.369 405.232 264.015 400.784L254.449 403.696ZM258.459 417.35C259.799 422.008 261.107 426.633 262.382 431.226L272.018 428.55C270.733 423.927 269.417 419.272 268.069 414.586L258.459 417.35ZM262.387 431.244C263.665 435.778 264.781 439.796 265.736 443.3L275.384 440.668C274.419 437.132 273.295 433.086 272.013 428.532L262.387 431.244ZM266.764 438.73C266.764 438.73 266.76 438.735 266.752 438.743C266.743 438.751 266.73 438.763 266.711 438.779C266.673 438.811 266.609 438.859 266.513 438.918C266.316 439.038 266.001 439.193 265.523 439.353L268.685 448.839C270.774 448.143 272.818 447.032 274.356 445.238L266.764 438.73ZM265.348 439.414C264.509 439.729 263.308 439.96 261.632 439.96V449.96C264.18 449.96 266.627 449.615 268.86 448.778L265.348 439.414ZM261.632 439.96C260.349 439.96 259.444 439.851 258.841 439.709L256.551 449.443C258.124 449.813 259.843 449.96 261.632 449.96V439.96ZM258.909 439.725C258.378 439.593 258.132 439.444 258.045 439.38L252.163 447.468C253.484 448.428 254.966 449.047 256.483 449.427L258.909 439.725ZM258.227 439.52C258.187 439.487 258.052 439.367 257.874 439.038L249.07 443.778C249.788 445.113 250.741 446.337 251.981 447.328L258.227 439.52ZM258.012 439.313C257.751 438.747 257.479 438.024 257.213 437.117L247.619 439.939C247.993 441.208 248.425 442.405 248.932 443.503L258.012 439.313ZM257.254 437.266L255.526 430.642L245.85 433.166L247.578 439.79L257.254 437.266ZM250.688 426.904H233.312V436.904H250.688V426.904ZM228.481 430.616C227.962 432.562 227.443 434.572 226.925 436.643L236.627 439.069C237.133 437.044 237.638 435.086 238.143 433.192L228.481 430.616ZM226.925 436.643C226.419 438.668 225.914 440.626 225.409 442.52L235.071 445.096C235.59 443.15 236.109 441.14 236.627 439.069L226.925 436.643ZM228.558 439.099C227.932 439.323 227.228 439.514 226.439 439.662L228.281 449.49C229.54 449.254 230.756 448.933 231.922 448.517L228.558 439.099ZM226.072 439.745C225.666 439.853 224.946 439.96 223.808 439.96V449.96C225.486 449.96 227.134 449.811 228.648 449.407L226.072 439.745ZM223.808 439.96C220.93 439.96 219.7 439.449 219.324 439.193L213.7 447.463C216.524 449.383 220.158 449.96 223.808 449.96V439.96ZM219.512 439.328C219.312 439.178 219.277 439.095 219.274 439.089C219.269 439.077 219.208 438.958 219.208 438.624H209.208C209.208 442.12 210.668 445.195 213.512 447.328L219.512 439.328ZM219.208 438.624C219.208 438.211 219.266 437.777 219.4 437.31L209.784 434.562C209.406 435.887 209.208 437.245 209.208 438.624H219.208ZM219.4 437.31C219.668 436.371 219.965 435.279 220.291 434.04L210.621 431.496C210.307 432.689 210.028 433.709 209.784 434.562L219.4 437.31ZM220.296 434.023C220.723 432.378 221.311 430.299 222.069 427.773L212.491 424.899C211.713 427.493 211.085 429.702 210.616 431.513L220.296 434.023ZM222.035 427.881C222.867 425.323 223.762 422.573 224.722 419.63L215.214 416.53C214.254 419.475 213.357 422.229 212.525 424.791L222.035 427.881ZM224.731 419.6C225.678 416.634 226.689 413.601 227.764 410.503L218.316 407.225C217.215 410.399 216.178 413.51 215.205 416.56L224.731 419.6ZM227.764 410.503C228.851 407.369 229.874 404.428 230.833 401.679L221.391 398.385C220.43 401.14 219.405 404.087 218.316 407.225L227.764 410.503ZM230.845 401.645C231.8 398.842 232.658 396.363 233.419 394.208L223.989 390.88C223.214 393.077 222.344 395.59 221.379 398.419L230.845 401.645ZM233.374 394.33C234.205 392.156 234.841 390.503 235.284 389.364L225.964 385.74C225.511 386.905 224.867 388.58 224.034 390.758L233.374 394.33ZM237.401 398.355C236.512 401.021 235.494 404.01 234.347 407.324L243.797 410.596C244.954 407.254 245.984 404.227 246.887 401.517L237.401 398.355ZM234.329 407.379C233.206 410.745 232.184 414.175 231.262 417.667L240.93 420.221C241.8 416.929 242.762 413.703 243.815 410.541L234.329 407.379ZM236.096 423.944H248V413.944H236.096V423.944ZM252.84 417.689C251.931 414.183 250.989 410.771 250.013 407.453L240.419 410.275C241.363 413.485 242.277 416.792 243.16 420.199L252.84 417.689ZM250.044 407.564C249.141 404.21 248.299 401.198 247.519 398.532L237.921 401.34C238.677 403.922 239.499 406.862 240.388 410.164L250.044 407.564ZM242.72 394.936H242.144V404.936H242.72V394.936ZM278.671 429.504L275.007 426.102L275.007 426.102L278.671 429.504ZM292.303 429.504L295.966 426.102L295.966 426.102L292.303 429.504ZM292.303 442.944L295.966 446.346L295.966 446.346L292.303 442.944ZM278.671 442.944L275.007 446.346L278.671 442.944ZM281.175 436.224C281.175 434.662 281.618 433.678 282.334 432.906L275.007 426.102C272.395 428.914 271.175 432.41 271.175 436.224H281.175ZM282.334 432.906C282.884 432.315 283.728 431.816 285.487 431.816V421.816C281.485 421.816 277.785 423.109 275.007 426.102L282.334 432.906ZM285.487 431.816C287.245 431.816 288.089 432.315 288.639 432.906L295.966 426.102C293.188 423.109 289.488 421.816 285.487 421.816V431.816ZM288.639 432.906C289.355 433.678 289.799 434.662 289.799 436.224H299.799C299.799 432.41 298.578 428.914 295.966 426.102L288.639 432.906ZM289.799 436.224C289.799 437.786 289.355 438.77 288.639 439.542L295.966 446.346C298.578 443.534 299.799 440.038 299.799 436.224H289.799ZM288.639 439.542C288.089 440.133 287.245 440.632 285.487 440.632V450.632C289.488 450.632 293.188 449.339 295.966 446.346L288.639 439.542ZM285.487 440.632C283.728 440.632 282.884 440.133 282.334 439.542L275.007 446.346C277.785 449.339 281.485 450.632 285.487 450.632V440.632ZM282.334 439.542C281.618 438.77 281.175 437.786 281.175 436.224H271.175C271.175 440.038 272.395 443.534 275.007 446.346L282.334 439.542ZM319.69 420.864L318.076 425.597L318.092 425.602L318.108 425.607L319.69 420.864ZM312.01 417.984L309.979 422.553L310.032 422.577L310.086 422.599L312.01 417.984ZM302.122 409.344L297.565 411.402L297.605 411.492L297.649 411.58L302.122 409.344ZM307.018 389.088L303.96 385.132L303.946 385.143L303.931 385.154L307.018 389.088ZM332.362 384.768L333.162 379.832L333.162 379.832L332.362 384.768ZM338.41 386.592L336.173 391.064L336.275 391.115L336.379 391.161L338.41 386.592ZM342.442 389.664L338.442 392.664L338.479 392.714L338.517 392.762L342.442 389.664ZM342.73 398.304L346.89 401.078L346.924 401.026L346.957 400.974L342.73 398.304ZM339.946 401.28L337.261 405.498L340.208 407.374L342.983 405.252L339.946 401.28ZM334.282 398.976L332.857 403.769L332.917 403.787L332.977 403.803L334.282 398.976ZM320.17 399.168L322.65 403.509L322.727 403.466L322.801 403.419L320.17 399.168ZM319.402 404.544L316.353 408.507L316.452 408.584L316.555 408.655L319.402 404.544ZM323.146 406.176L324.673 401.415L324.644 401.406L324.616 401.397L323.146 406.176ZM328.234 407.808L326.706 412.569L326.713 412.571L328.234 407.808ZM342.058 415.2L338.633 418.843L338.67 418.878L338.709 418.913L342.058 415.2ZM340.522 440.544L343.587 444.494L343.605 444.48L343.624 444.465L340.522 440.544ZM313.354 444.768L314.334 439.865L314.286 439.855L314.237 439.847L313.354 444.768ZM306.73 442.752L304.432 447.193L304.523 447.24L304.615 447.283L306.73 442.752ZM302.314 439.296L298.27 442.237L298.346 442.341L298.427 442.442L302.314 439.296ZM302.41 429.792L306.219 433.03L306.258 432.985L306.296 432.938L302.41 429.792ZM305.962 426.72L309.051 422.788L306.45 420.745L303.552 422.339L305.962 426.72ZM312.49 430.368L310.633 435.01L310.652 435.018L310.672 435.026L312.49 430.368ZM327.658 430.464L330.658 434.464L330.658 434.464L327.658 430.464ZM328.042 424.224L325.209 428.344L325.299 428.406L325.392 428.464L328.042 424.224ZM323.722 422.208L325.351 417.481L325.327 417.473L325.303 417.465L323.722 422.208ZM321.303 416.131C318.572 415.201 316.118 414.279 313.933 413.369L310.086 422.599C312.509 423.609 315.175 424.607 318.076 425.597L321.303 416.131ZM314.04 413.415C312.103 412.554 310.538 411.577 309.287 410.519L302.828 418.153C304.905 419.911 307.308 421.366 309.979 422.553L314.04 413.415ZM309.287 410.519C308.132 409.542 307.246 408.413 306.594 407.108L297.649 411.58C298.917 414.115 300.655 416.314 302.828 418.153L309.287 410.519ZM306.678 407.286C306.147 406.109 305.778 404.45 305.778 402.144H295.778C295.778 405.47 296.304 408.611 297.565 411.402L306.678 407.286ZM305.778 402.144C305.778 398.188 307.192 395.306 310.104 393.022L303.931 385.154C298.523 389.398 295.778 395.22 295.778 402.144H305.778ZM310.075 393.044C313.125 390.687 317.788 389.192 324.682 389.192V379.192C316.471 379.192 309.358 380.961 303.96 385.132L310.075 393.044ZM324.682 389.192C327.204 389.192 329.493 389.368 331.561 389.704L333.162 379.832C330.494 379.4 327.663 379.192 324.682 379.192V389.192ZM331.561 389.704C333.566 390.029 335.071 390.513 336.173 391.064L340.646 382.12C338.42 381.007 335.893 380.275 333.162 379.832L331.561 389.704ZM336.379 391.161C337.469 391.646 338.079 392.181 338.442 392.664L346.442 386.664C344.884 384.587 342.806 383.074 340.44 382.023L336.379 391.161ZM338.517 392.762C338.727 393.028 338.882 393.355 338.882 393.984H348.882C348.882 391.285 348.076 388.732 346.366 386.566L338.517 392.762ZM338.882 393.984C338.882 394.854 338.69 395.336 338.502 395.634L346.957 400.974C348.305 398.84 348.882 396.442 348.882 393.984H338.882ZM338.569 395.53C338.104 396.229 337.554 396.815 336.908 397.308L342.983 405.252C344.513 404.081 345.819 402.683 346.89 401.078L338.569 395.53ZM342.63 397.062C340.646 395.799 338.235 394.865 335.586 394.149L332.977 403.803C335.064 404.367 336.429 404.969 337.261 405.498L342.63 397.062ZM335.706 394.183C332.816 393.324 329.738 392.92 326.506 392.92V402.92C328.905 402.92 331.011 403.22 332.857 403.769L335.706 394.183ZM326.506 392.92C323.351 392.92 320.088 393.338 317.538 394.917L322.801 403.419C322.8 403.42 322.863 403.382 323.02 403.325C323.177 403.268 323.407 403.201 323.728 403.138C324.38 403.009 325.289 402.92 326.506 402.92V392.92ZM317.689 394.827C315.28 396.203 313.154 398.63 313.154 402.144H323.154C323.154 402.307 323.13 402.509 323.063 402.73C322.996 402.951 322.899 403.142 322.797 403.292C322.599 403.585 322.454 403.621 322.65 403.509L317.689 394.827ZM313.154 402.144C313.154 404.816 314.423 407.022 316.353 408.507L322.45 400.581C322.518 400.633 322.722 400.813 322.902 401.157C323.088 401.516 323.154 401.874 323.154 402.144H313.154ZM316.555 408.655C318.006 409.659 319.82 410.384 321.675 410.955L324.616 401.397C323.143 400.944 322.461 400.581 322.248 400.433L316.555 408.655ZM321.618 410.937L326.706 412.569L329.761 403.047L324.673 401.415L321.618 410.937ZM326.713 412.571C332.307 414.357 336.161 416.519 338.633 418.843L345.482 411.557C341.554 407.865 336.192 405.099 329.754 403.045L326.713 412.571ZM338.709 418.913C340.745 420.75 341.954 423.335 341.954 427.296H351.954C351.954 421.017 349.898 415.538 345.406 411.487L338.709 418.913ZM341.954 427.296C341.954 431.198 340.516 434.173 337.419 436.623L343.624 444.465C349.103 440.131 351.954 434.274 351.954 427.296H341.954ZM337.456 436.594C334.403 438.964 329.379 440.536 321.609 440.536V450.536C330.48 450.536 338.064 448.78 343.587 444.494L337.456 436.594ZM321.609 440.536C318.954 440.536 316.533 440.305 314.334 439.865L312.373 449.671C315.294 450.255 318.377 450.536 321.609 450.536V440.536ZM314.237 439.847C312.086 439.461 310.304 438.903 308.844 438.221L304.615 447.283C306.995 448.393 309.629 449.179 312.47 449.689L314.237 439.847ZM309.027 438.311C307.659 437.603 306.772 436.857 306.2 436.15L298.427 442.442C300.031 444.423 302.088 445.981 304.432 447.193L309.027 438.311ZM306.357 436.355C305.974 435.828 305.778 435.264 305.778 434.496H295.778C295.778 437.312 296.605 439.948 298.27 442.237L306.357 436.355ZM305.778 434.496C305.778 433.693 305.982 433.31 306.219 433.03L298.6 426.554C296.661 428.834 295.778 431.587 295.778 434.496H305.778ZM306.296 432.938C307.05 432.007 307.753 431.441 308.371 431.101L303.552 422.339C301.61 423.407 299.945 424.889 298.523 426.646L306.296 432.938ZM302.872 430.652C305.108 432.408 307.719 433.845 310.633 435.01L314.346 425.726C312.14 424.843 310.399 423.848 309.051 422.788L302.872 430.652ZM310.672 435.026C313.926 436.296 317.396 436.904 321.034 436.904V426.904C318.527 426.904 316.301 426.488 314.307 425.71L310.672 435.026ZM321.034 436.904C324.374 436.904 328.005 436.453 330.658 434.464L324.658 426.464C324.778 426.373 324.651 426.512 323.979 426.658C323.329 426.799 322.371 426.904 321.034 426.904V436.904ZM330.658 434.464C332.847 432.822 334.578 430.348 334.578 427.104H324.578C324.578 427.002 324.591 426.879 324.626 426.746C324.662 426.613 324.71 426.503 324.756 426.423C324.846 426.266 324.879 426.298 324.658 426.464L330.658 434.464ZM334.578 427.104C334.578 424.225 333.28 421.602 330.691 419.984L325.392 428.464C325.245 428.372 324.982 428.152 324.782 427.777C324.589 427.415 324.578 427.14 324.578 427.104H334.578ZM330.874 420.104C329.328 419.041 327.418 418.194 325.351 417.481L322.092 426.935C323.737 427.502 324.707 427.999 325.209 428.344L330.874 420.104ZM325.303 417.465L321.271 416.121L318.108 425.607L322.14 426.951L325.303 417.465Z" fill="#00FFD1"/>
<path d="M360.74 298.916C360.74 288.376 347.828 279.03 327.975 273.325C332.751 253.944 330.665 238.525 321.16 233.309C318.83 232.065 316.2 231.432 313.534 231.473C304.666 231.473 293.458 237.424 282.138 247.718C270.818 237.5 259.642 231.58 250.789 231.58C248.083 231.523 245.41 232.168 243.052 233.447C233.595 238.678 231.636 254.005 236.349 273.294C216.591 278.969 203.743 288.239 203.711 298.732C203.679 309.226 216.639 318.618 236.492 324.308C231.716 343.704 233.786 359.108 243.307 364.324C245.628 365.574 248.255 366.208 250.917 366.159C259.801 366.159 271.009 360.209 282.329 349.914C293.633 360.132 304.809 366.052 313.677 366.052C316.383 366.1 319.054 365.456 321.415 364.186C330.872 358.955 332.815 343.627 328.118 324.415C347.876 318.664 360.724 309.394 360.74 298.916ZM289.43 251.175C302.469 239.963 310.621 238.755 313.518 238.755C314.862 238.713 316.193 239.019 317.371 239.642C321.925 242.135 323.74 250.931 322.291 262.587C321.92 265.563 321.388 268.519 320.699 271.443C314.101 269.97 307.411 268.912 300.67 268.277C296.656 262.865 292.273 257.714 287.551 252.858C288.14 252.292 288.777 251.726 289.43 251.175ZM249.962 307.589C251.203 309.883 252.525 312.178 253.894 314.488C255.263 316.797 256.696 319.138 258.288 321.448C253.974 320.851 249.786 320.101 245.806 319.214C246.921 315.329 248.338 311.505 249.962 307.589ZM245.551 278.464C249.579 277.562 253.798 276.812 258.177 276.231C256.585 278.495 255.215 280.82 253.783 283.252C252.35 285.684 251.092 287.841 249.866 290.166C248.242 286.189 246.804 282.288 245.551 278.464ZM253.846 298.87C255.82 294.862 257.991 290.854 260.358 286.847C262.746 282.839 265.309 278.938 267.952 275.206C272.585 274.87 277.362 274.686 282.281 274.701C287.201 274.717 291.834 274.885 296.435 275.237C299.078 278.938 301.609 282.885 303.997 286.786C306.386 290.686 308.583 294.77 310.557 298.763C308.599 302.77 306.417 306.793 304.061 310.771C301.705 314.748 299.11 318.694 296.467 322.427C291.834 322.778 287.058 322.947 282.138 322.947C277.218 322.947 272.585 322.748 267.984 322.396C265.341 318.694 262.794 314.839 260.406 310.847C258.018 306.855 255.9 302.862 253.91 298.87H253.846ZM306.163 276.277C310.493 276.858 314.681 277.608 318.645 278.495C317.467 282.273 316.066 286.143 314.442 290.044C313.184 287.749 311.878 285.455 310.493 283.145C309.108 280.835 307.643 278.51 306.226 276.277H306.163ZM310.557 314.396C311.926 312.081 313.232 309.771 314.474 307.467C316.066 311.444 317.658 315.36 318.772 319.184C314.76 320.086 310.541 320.82 306.163 321.402C307.702 319.138 309.188 316.802 310.621 314.396H310.557ZM282.17 258.059C285.036 260.996 287.854 264.177 290.608 267.588C287.885 267.481 285.099 267.405 282.281 267.405C279.463 267.405 276.581 267.405 273.795 267.588C276.518 264.193 279.304 260.996 282.17 258.059ZM246.857 239.703C248.065 239.086 249.423 238.79 250.789 238.846C253.658 238.961 256.471 239.643 259.052 240.85C264.887 243.493 270.258 246.992 274.973 251.221L276.836 252.858C272.162 257.678 267.822 262.788 263.845 268.154C257.067 268.785 250.34 269.838 243.705 271.306C243.004 268.338 242.431 265.432 242.112 262.632C240.457 251.084 242.367 242.273 246.841 239.764L246.857 239.703ZM238.435 317.256C235.443 316.379 232.499 315.358 229.614 314.197C218.311 309.608 211.305 303.719 211.305 298.686C211.305 293.654 218.342 287.795 229.63 283.283C232.464 282.155 235.355 281.165 238.291 280.315C240.282 286.652 242.707 292.856 245.551 298.885C242.768 304.854 240.39 310.991 238.435 317.256ZM275.053 346.473C262.014 357.685 253.862 358.878 250.949 358.878C249.605 358.921 248.273 358.615 247.096 357.991C242.542 355.498 240.727 346.702 242.176 335.046C242.546 332.074 243.077 329.123 243.768 326.205C250.367 327.665 257.057 328.718 263.797 329.356C267.806 334.771 272.189 339.923 276.916 344.775L275.053 346.473ZM282.329 339.574C279.463 336.637 276.645 333.455 273.875 330.044C276.613 330.167 279.399 330.228 282.218 330.228C285.036 330.228 287.917 330.228 290.703 330.059C287.949 333.455 285.147 336.637 282.313 339.574H282.329ZM317.642 357.93C316.434 358.566 315.07 358.877 313.693 358.832C310.796 358.832 302.549 357.609 289.557 346.442L287.694 344.805C292.363 339.985 296.698 334.875 300.67 329.509C307.454 328.887 314.187 327.834 320.826 326.358C321.527 329.325 322.084 332.232 322.418 335.031C323.994 346.564 322.163 355.375 317.626 357.869L317.642 357.93ZM334.837 314.426C332.114 315.497 329.232 316.491 326.175 317.379C324.177 311.042 321.747 304.838 318.9 298.809C321.696 292.846 324.084 286.715 326.048 280.453C329.04 281.33 331.983 282.351 334.868 283.512C346.156 288.101 353.178 293.99 353.162 299.023C353.146 304.055 346.125 309.853 334.821 314.365L334.837 314.426ZM282.17 312.866C285.06 312.869 287.887 312.049 290.292 310.508C292.698 308.968 294.573 306.777 295.683 304.212C296.792 301.647 297.084 298.824 296.523 296.099C295.963 293.375 294.573 290.871 292.532 288.905C290.49 286.939 287.887 285.599 285.053 285.055C282.218 284.51 279.279 284.785 276.607 285.845C273.935 286.905 271.651 288.702 270.042 291.01C268.434 293.317 267.573 296.031 267.57 298.809C267.566 300.653 267.941 302.481 268.672 304.186C269.404 305.891 270.479 307.441 271.835 308.747C273.191 310.053 274.802 311.089 276.575 311.796C278.349 312.502 280.25 312.866 282.17 312.866ZM192.662 221.485V376.163H371.805V221.485H192.662ZM371.805 376.163H192.662V221.485H371.805V376.163ZM236.476 324.308C231.7 343.704 233.77 359.108 243.291 364.324C245.613 365.574 248.239 366.208 250.901 366.159C259.785 366.159 270.993 360.209 282.313 349.914C293.617 360.132 304.794 366.052 313.662 366.052C316.367 366.1 319.038 365.456 321.399 364.186C330.856 358.955 332.799 343.627 328.102 324.415C347.86 318.725 360.708 309.455 360.724 298.977C360.74 288.499 347.812 279.091 327.959 273.386C332.735 254.005 330.649 238.586 321.144 233.37C318.814 232.127 316.184 231.493 313.518 231.535C304.65 231.535 293.442 237.485 282.122 247.779C270.802 237.561 259.626 231.642 250.773 231.642C248.067 231.584 245.394 232.229 243.036 233.508C233.579 238.739 231.62 254.066 236.333 273.355C216.575 279.03 203.727 288.3 203.695 298.793C203.663 309.287 216.639 318.587 236.492 324.308H236.476ZM275.021 346.473C261.982 357.685 253.83 358.878 250.917 358.878C249.573 358.921 248.242 358.615 247.064 357.991C242.51 355.498 240.695 346.702 242.144 335.046C242.514 332.074 243.045 329.123 243.736 326.205C250.336 327.665 257.026 328.718 263.765 329.356C267.774 334.771 272.157 339.923 276.884 344.775L275.021 346.473ZM314.489 290.044C313.232 287.749 311.926 285.455 310.541 283.145C309.156 280.835 307.675 278.556 306.211 276.277C310.541 276.858 314.728 277.608 318.693 278.495C317.53 282.273 316.129 286.143 314.505 290.044H314.489ZM318.82 319.107C314.808 320.01 310.589 320.744 306.211 321.325C307.707 319.061 309.172 316.726 310.605 314.319C312.038 311.913 313.343 309.603 314.521 307.39C316.193 311.444 317.642 315.329 318.788 319.184L318.82 319.107ZM310.525 298.686C308.567 302.694 306.386 306.717 304.029 310.694C301.673 314.671 299.078 318.618 296.435 322.35C291.802 322.702 287.026 322.87 282.106 322.87C277.186 322.87 272.553 322.671 267.952 322.319C265.309 318.618 262.762 314.763 260.374 310.771C257.986 306.778 255.805 302.786 253.814 298.793C255.789 294.786 257.959 290.778 260.326 286.77C262.714 282.763 265.278 278.862 267.92 275.13C272.553 274.793 277.33 274.61 282.249 274.625C287.169 274.64 291.802 274.808 296.403 275.16C299.046 278.862 301.577 282.809 303.966 286.709C306.354 290.61 308.567 294.77 310.541 298.763L310.525 298.686ZM258.288 321.448C253.974 320.851 249.786 320.101 245.806 319.214C246.984 315.451 248.401 311.566 250.025 307.665C251.267 309.96 252.588 312.254 253.958 314.564C255.327 316.874 256.696 319.138 258.288 321.448ZM253.846 283.206C252.461 285.501 251.156 287.795 249.93 290.12C248.263 286.174 246.804 282.288 245.551 278.464C249.579 277.562 253.798 276.812 258.177 276.231C256.696 278.495 255.279 280.835 253.846 283.206ZM282.313 339.574C279.447 336.637 276.629 333.455 273.859 330.044C276.597 330.167 279.384 330.228 282.202 330.228C285.02 330.228 287.901 330.228 290.688 330.059C287.949 333.455 285.147 336.637 282.313 339.574ZM317.626 357.93C316.418 358.566 315.054 358.877 313.677 358.832C310.78 358.832 302.533 357.609 289.541 346.442L287.678 344.805C292.347 339.985 296.682 334.875 300.654 329.509C307.438 328.887 314.171 327.834 320.81 326.358C321.511 329.325 322.068 332.232 322.402 335.031C323.994 346.564 322.163 355.375 317.626 357.869V357.93ZM326.032 280.438C329.024 281.315 331.967 282.336 334.852 283.497C346.14 288.086 353.162 293.975 353.146 299.008C353.13 304.04 346.125 309.96 334.821 314.472C332.098 315.543 329.216 316.537 326.16 317.425C324.161 311.088 321.731 304.884 318.884 298.855C321.685 292.852 324.073 286.68 326.032 280.376V280.438ZM289.414 251.236C302.453 240.024 310.605 238.816 313.502 238.816C314.846 238.774 316.177 239.081 317.355 239.703C321.909 242.196 323.724 250.992 322.275 262.648C321.904 265.624 321.372 268.581 320.683 271.504C314.085 270.031 307.395 268.973 300.654 268.338C296.64 262.926 292.257 257.775 287.535 252.919C288.14 252.292 288.777 251.726 289.43 251.175L289.414 251.236ZM282.17 258.059C285.036 260.996 287.854 264.177 290.608 267.588C287.885 267.481 285.099 267.405 282.281 267.405C279.463 267.405 276.581 267.405 273.795 267.588C276.518 264.193 279.304 260.996 282.17 258.059ZM246.857 239.703C248.065 239.086 249.423 238.79 250.789 238.846C253.658 238.961 256.471 239.643 259.052 240.85C264.887 243.493 270.258 246.992 274.973 251.221L276.836 252.858C272.162 257.678 267.822 262.788 263.845 268.154C257.067 268.785 250.34 269.838 243.705 271.306C243.004 268.338 242.431 265.432 242.112 262.632C240.457 251.084 242.367 242.273 246.841 239.764L246.857 239.703ZM229.63 283.283C232.464 282.155 235.355 281.165 238.291 280.315C240.282 286.652 242.707 292.856 245.551 298.885C242.757 304.849 240.369 310.98 238.403 317.241C235.411 316.364 232.468 315.342 229.583 314.182C218.279 309.593 211.273 303.704 211.273 298.671C211.273 293.638 218.342 287.795 229.63 283.283ZM282.17 284.812C279.279 284.809 276.452 285.63 274.047 287.17C271.642 288.711 269.766 290.902 268.657 293.467C267.548 296.031 267.255 298.855 267.816 301.579C268.377 304.304 269.766 306.807 271.808 308.773C273.85 310.739 276.452 312.079 279.287 312.624C282.121 313.169 285.06 312.894 287.732 311.834C290.404 310.774 292.689 308.976 294.297 306.669C295.906 304.361 296.766 301.647 296.769 298.87C296.784 297.019 296.417 295.183 295.69 293.469C294.963 291.755 293.89 290.196 292.533 288.882C291.176 287.568 289.561 286.525 287.783 285.814C286.004 285.102 284.096 284.736 282.17 284.736V284.812ZM282.17 284.812C279.279 284.809 276.452 285.63 274.047 287.17C271.642 288.711 269.766 290.902 268.657 293.467C267.548 296.031 267.255 298.855 267.816 301.579C268.377 304.304 269.766 306.807 271.808 308.773C273.85 310.739 276.452 312.079 279.287 312.624C282.121 313.169 285.06 312.894 287.732 311.834C290.404 310.774 292.689 308.976 294.297 306.669C295.906 304.361 296.766 301.647 296.769 298.87C296.784 297.019 296.417 295.183 295.69 293.469C294.963 291.755 293.89 290.196 292.533 288.882C291.176 287.568 289.561 286.525 287.783 285.814C286.004 285.102 284.096 284.736 282.17 284.736V284.812ZM282.17 284.812C279.279 284.809 276.452 285.63 274.047 287.17C271.642 288.711 269.766 290.902 268.657 293.467C267.548 296.031 267.255 298.855 267.816 301.579C268.377 304.304 269.766 306.807 271.808 308.773C273.85 310.739 276.452 312.079 279.287 312.624C282.121 313.169 285.06 312.894 287.732 311.834C290.404 310.774 292.689 308.976 294.297 306.669C295.906 304.361 296.766 301.647 296.769 298.87C296.784 297.019 296.417 295.183 295.69 293.469C294.963 291.755 293.89 290.196 292.533 288.882C291.176 287.568 289.561 286.525 287.783 285.814C286.004 285.102 284.096 284.736 282.17 284.736V284.812ZM360.74 298.946C360.74 288.407 347.828 279.061 327.975 273.355C332.751 253.975 330.665 238.556 321.16 233.34C318.83 232.096 316.2 231.463 313.534 231.504C304.666 231.504 293.458 237.454 282.138 247.749C270.818 237.531 259.642 231.611 250.789 231.611C248.083 231.554 245.41 232.198 243.052 233.477C233.595 238.709 231.636 254.036 236.349 273.325C216.591 279 203.743 288.269 203.711 298.763C203.679 309.256 216.639 318.648 236.492 324.339C231.716 343.735 233.786 359.138 243.307 364.354C245.628 365.605 248.255 366.238 250.917 366.19C259.801 366.19 271.009 360.24 282.329 349.945C293.633 360.163 304.809 366.083 313.677 366.083C316.383 366.131 319.054 365.486 321.415 364.217C330.872 358.985 332.815 343.658 328.118 324.446C347.876 318.664 360.724 309.394 360.74 298.916V298.946ZM289.43 251.175C302.469 239.963 310.621 238.755 313.518 238.755C314.862 238.713 316.193 239.019 317.371 239.642C321.925 242.135 323.74 250.931 322.291 262.587C321.92 265.563 321.388 268.519 320.699 271.443C314.101 269.97 307.411 268.912 300.67 268.277C296.656 262.865 292.273 257.714 287.551 252.858C288.14 252.292 288.777 251.726 289.43 251.175ZM249.962 307.589C251.203 309.883 252.525 312.178 253.894 314.488C255.263 316.797 256.696 319.138 258.288 321.448C253.974 320.851 249.786 320.101 245.806 319.214C246.921 315.329 248.338 311.505 249.962 307.589ZM245.551 278.464C249.579 277.562 253.798 276.812 258.177 276.231C256.585 278.495 255.215 280.82 253.783 283.252C252.35 285.684 251.092 287.841 249.866 290.166C248.242 286.189 246.804 282.288 245.551 278.464ZM253.846 298.87C255.82 294.862 257.991 290.854 260.358 286.847C262.746 282.839 265.309 278.938 267.952 275.206C272.585 274.87 277.362 274.686 282.281 274.701C287.201 274.717 291.834 274.885 296.435 275.237C299.078 278.938 301.609 282.885 303.997 286.786C306.386 290.686 308.583 294.77 310.557 298.763C308.599 302.77 306.417 306.793 304.061 310.771C301.705 314.748 299.11 318.694 296.467 322.427C291.834 322.778 287.058 322.947 282.138 322.947C277.218 322.947 272.585 322.748 267.984 322.396C265.341 318.694 262.794 314.839 260.406 310.847C258.018 306.855 255.9 302.862 253.91 298.87H253.846ZM306.163 276.277C310.493 276.858 314.681 277.608 318.645 278.495C317.467 282.273 316.066 286.143 314.442 290.044C313.184 287.749 311.878 285.455 310.493 283.145C309.108 280.835 307.643 278.51 306.226 276.277H306.163ZM310.557 314.396C311.926 312.081 313.232 309.771 314.474 307.467C316.066 311.444 317.658 315.36 318.772 319.184C314.76 320.086 310.541 320.82 306.163 321.402C307.702 319.138 309.188 316.802 310.621 314.396H310.557ZM282.17 258.059C285.036 260.996 287.854 264.177 290.608 267.588C287.885 267.481 285.099 267.405 282.281 267.405C279.463 267.405 276.581 267.405 273.795 267.588C276.518 264.193 279.304 260.996 282.17 258.059ZM246.857 239.703C248.065 239.086 249.423 238.79 250.789 238.846C253.658 238.961 256.471 239.643 259.052 240.85C264.887 243.493 270.258 246.992 274.973 251.221L276.836 252.858C272.162 257.678 267.822 262.788 263.845 268.154C257.067 268.785 250.34 269.838 243.705 271.306C243.004 268.338 242.431 265.432 242.112 262.632C240.457 251.084 242.367 242.273 246.841 239.764L246.857 239.703ZM238.435 317.256C235.443 316.379 232.499 315.358 229.614 314.197C218.311 309.608 211.305 303.719 211.305 298.686C211.305 293.654 218.342 287.795 229.63 283.283C232.464 282.155 235.355 281.165 238.291 280.315C240.282 286.652 242.707 292.856 245.551 298.885C242.768 304.854 240.39 310.991 238.435 317.256ZM275.053 346.473C262.014 357.685 253.862 358.878 250.949 358.878C249.605 358.921 248.273 358.615 247.096 357.991C242.542 355.498 240.727 346.702 242.176 335.046C242.546 332.074 243.077 329.123 243.768 326.205C250.367 327.665 257.057 328.718 263.797 329.356C267.806 334.771 272.189 339.923 276.916 344.775L275.053 346.473ZM282.329 339.574C279.463 336.637 276.645 333.455 273.875 330.044C276.613 330.167 279.399 330.228 282.218 330.228C285.036 330.228 287.917 330.228 290.703 330.059C287.949 333.455 285.147 336.637 282.313 339.574H282.329ZM317.642 357.93C316.434 358.566 315.07 358.877 313.693 358.832C310.796 358.832 302.549 357.609 289.557 346.442L287.694 344.805C292.363 339.985 296.698 334.875 300.67 329.509C307.454 328.887 314.187 327.834 320.826 326.358C321.527 329.325 322.084 332.232 322.418 335.031C323.994 346.564 322.163 355.375 317.626 357.869L317.642 357.93ZM334.837 314.426C332.114 315.497 329.232 316.491 326.175 317.379C324.177 311.042 321.747 304.838 318.9 298.809C321.696 292.846 324.084 286.715 326.048 280.453C329.04 281.33 331.983 282.351 334.868 283.512C346.156 288.101 353.178 293.99 353.162 299.023C353.146 304.055 346.125 309.853 334.821 314.365L334.837 314.426ZM282.17 312.866C285.06 312.869 287.887 312.049 290.292 310.508C292.698 308.968 294.573 306.777 295.683 304.212C296.792 301.647 297.084 298.824 296.523 296.099C295.963 293.375 294.573 290.871 292.532 288.905C290.49 286.939 287.887 285.599 285.053 285.055C282.218 284.51 279.279 284.785 276.607 285.845C273.935 286.905 271.651 288.702 270.042 291.01C268.434 293.317 267.573 296.031 267.57 298.809C267.566 300.653 267.941 302.481 268.672 304.186C269.404 305.891 270.479 307.441 271.835 308.747C273.191 310.053 274.802 311.089 276.575 311.796C278.349 312.502 280.25 312.866 282.17 312.866Z" fill="#00FFD1"/>
<path d="M332.5 466.5H377.5V540C377.5 552.426 367.426 562.5 355 562.5C342.574 562.5 332.5 552.426 332.5 540V466.5Z" stroke="#00FFD1" stroke-width="5"/>
<path d="M191.5 466.5H236.5V540C236.5 552.426 226.426 562.5 214 562.5C201.574 562.5 191.5 552.426 191.5 540V466.5Z" stroke="#00FFD1" stroke-width="5"/>
</svg>
