<svg width="200" height="200" viewBox="0 0 200 200" fill="none" xmlns="http://www.w3.org/2000/svg">
<circle cx="100" cy="100" r="98.5" stroke="#f9b253" stroke-width="3"/>
<rect x="97" y="126" width="7" height="28" fill="#f9b253"/>
<rect x="76" y="153" width="49" height="2" fill="#f9b253"/>
<rect x="42" y="45" width="116" height="82" rx="3" stroke="#f9b253" stroke-width="2"/>
<path d="M73.9336 86.2832L78.5186 88.1362V89.5718L72.5273 86.7959V85.7266L78.5186 82.958V84.3936L73.9336 86.2832ZM83.8359 90.0405C84.3193 90.0405 84.7417 89.894 85.103 89.6011C85.4644 89.3081 85.6646 88.9419 85.7036 88.5024H86.9854C86.9609 88.9565 86.8047 89.3887 86.5166 89.7988C86.2285 90.209 85.8428 90.5361 85.3594 90.7803C84.8809 91.0244 84.373 91.1465 83.8359 91.1465C82.7568 91.1465 81.8975 90.7876 81.2578 90.0698C80.623 89.3472 80.3057 88.3608 80.3057 87.1108V86.8838C80.3057 86.1123 80.4473 85.4263 80.7305 84.8257C81.0137 84.2251 81.4189 83.7588 81.9463 83.4268C82.4785 83.0947 83.106 82.9287 83.8286 82.9287C84.7173 82.9287 85.4546 83.1948 86.0405 83.7271C86.6313 84.2593 86.9463 84.9502 86.9854 85.7998H85.7036C85.6646 85.2871 85.4692 84.8672 85.1177 84.54C84.771 84.208 84.3413 84.042 83.8286 84.042C83.1401 84.042 82.6055 84.291 82.2246 84.7891C81.8486 85.2822 81.6606 85.9976 81.6606 86.9351V87.1914C81.6606 88.1045 81.8486 88.8076 82.2246 89.3008C82.6006 89.7939 83.1377 90.0405 83.8359 90.0405ZM88.1499 86.9644C88.1499 86.188 88.3013 85.4897 88.604 84.8696C88.9116 84.2495 89.3364 83.771 89.8784 83.4341C90.4253 83.0972 91.0479 82.9287 91.7461 82.9287C92.8252 82.9287 93.6968 83.3022 94.3608 84.0493C95.0298 84.7964 95.3643 85.79 95.3643 87.0303V87.1255C95.3643 87.897 95.2153 88.5903 94.9175 89.2056C94.6245 89.8159 94.2021 90.292 93.6504 90.6338C93.1035 90.9756 92.4736 91.1465 91.7607 91.1465C90.6865 91.1465 89.8149 90.7729 89.146 90.0259C88.4819 89.2788 88.1499 88.29 88.1499 87.0596V86.9644ZM89.5122 87.1255C89.5122 88.0044 89.7148 88.71 90.1201 89.2422C90.5303 89.7744 91.0771 90.0405 91.7607 90.0405C92.4492 90.0405 92.9961 89.772 93.4014 89.2349C93.8066 88.6929 94.0093 87.936 94.0093 86.9644C94.0093 86.0952 93.8018 85.3921 93.3867 84.855C92.9766 84.313 92.4297 84.042 91.7461 84.042C91.0771 84.042 90.5376 84.3081 90.1274 84.8403C89.7173 85.3726 89.5122 86.1343 89.5122 87.1255ZM96.7339 86.9717C96.7339 85.7559 97.022 84.7793 97.5981 84.042C98.1743 83.2998 98.9287 82.9287 99.8613 82.9287C100.789 82.9287 101.524 83.2461 102.066 83.8809V79.75H103.421V91H102.176L102.11 90.1504C101.568 90.8145 100.813 91.1465 99.8467 91.1465C98.9287 91.1465 98.1792 90.7705 97.5981 90.0186C97.022 89.2666 96.7339 88.2852 96.7339 87.0742V86.9717ZM98.0889 87.1255C98.0889 88.0239 98.2744 88.7271 98.6455 89.2349C99.0166 89.7427 99.5293 89.9966 100.184 89.9966C101.043 89.9966 101.67 89.6108 102.066 88.8394V85.1992C101.661 84.4521 101.038 84.0786 100.198 84.0786C99.5342 84.0786 99.0166 84.335 98.6455 84.8477C98.2744 85.3604 98.0889 86.1196 98.0889 87.1255ZM108.819 91.1465C107.745 91.1465 106.871 90.7949 106.197 90.0918C105.523 89.3838 105.186 88.439 105.186 87.2573V87.0083C105.186 86.2222 105.335 85.5215 105.633 84.9062C105.936 84.2861 106.355 83.8027 106.893 83.4561C107.435 83.1045 108.021 82.9287 108.65 82.9287C109.681 82.9287 110.481 83.2681 111.053 83.9468C111.624 84.6255 111.91 85.5972 111.91 86.8618V87.4258H106.541C106.561 88.207 106.788 88.8394 107.222 89.3228C107.662 89.8013 108.218 90.0405 108.892 90.0405C109.371 90.0405 109.776 89.9429 110.108 89.7476C110.44 89.5522 110.73 89.2935 110.979 88.9712L111.807 89.6157C111.143 90.6362 110.147 91.1465 108.819 91.1465ZM108.65 84.042C108.104 84.042 107.645 84.2422 107.273 84.6426C106.902 85.0381 106.673 85.5947 106.585 86.3125H110.555V86.21C110.516 85.5215 110.33 84.9893 109.998 84.6133C109.666 84.2324 109.217 84.042 108.65 84.042ZM113.755 91.9155H112.591L117.044 80.3359H118.201L113.755 91.9155ZM124.463 86.2393L119.622 84.3423V82.9507L125.877 85.7192V86.7886L119.622 89.5645V88.1582L124.463 86.2393Z" fill="#f9b253"/>
</svg>
