<svg width="268" height="110" viewBox="0 0 268 110" fill="none" xmlns="http://www.w3.org/2000/svg">
<path d="M131.044 18.712C131.339 18.5387 131.781 18.374 132.37 18.218C132.977 18.062 133.583 17.984 134.19 17.984C135.057 17.984 135.819 18.114 136.478 18.374C137.154 18.6167 137.587 19.0067 137.778 19.544C138.09 20.4453 138.428 21.494 138.792 22.69C139.156 23.886 139.52 25.1253 139.884 26.408C140.248 27.6733 140.603 28.93 140.95 30.178C141.297 31.4087 141.6 32.5007 141.86 33.454C141.652 33.6967 141.34 33.8873 140.924 34.026C140.508 34.182 140.014 34.26 139.442 34.26C139.026 34.26 138.671 34.2253 138.376 34.156C138.099 34.0867 137.865 33.9827 137.674 33.844C137.501 33.7053 137.353 33.5233 137.232 33.298C137.128 33.0727 137.033 32.8127 136.946 32.518L136.478 30.724H131.772C131.633 31.244 131.495 31.7813 131.356 32.336C131.217 32.8907 131.079 33.428 130.94 33.948C130.697 34.0347 130.437 34.104 130.16 34.156C129.9 34.2253 129.579 34.26 129.198 34.26C128.314 34.26 127.655 34.1127 127.222 33.818C126.806 33.506 126.598 33.0813 126.598 32.544C126.598 32.3013 126.633 32.0587 126.702 31.816C126.771 31.5733 126.849 31.2873 126.936 30.958C127.057 30.49 127.222 29.9093 127.43 29.216C127.655 28.5227 127.898 27.7773 128.158 26.98C128.418 26.1653 128.695 25.3333 128.99 24.484C129.285 23.6347 129.562 22.8373 129.822 22.092C130.082 21.3293 130.316 20.6533 130.524 20.064C130.749 19.4747 130.923 19.024 131.044 18.712ZM134.164 22.066C133.921 22.794 133.644 23.6087 133.332 24.51C133.037 25.394 132.769 26.2953 132.526 27.214H135.75C135.507 26.278 135.256 25.368 134.996 24.484C134.753 23.5827 134.528 22.7767 134.32 22.066H134.164ZM149.711 20.974C150.421 20.974 151.115 21.078 151.791 21.286C152.484 21.4767 153.082 21.7713 153.585 22.17C154.105 21.8233 154.685 21.5373 155.327 21.312C155.985 21.0867 156.774 20.974 157.693 20.974C158.351 20.974 158.993 21.0607 159.617 21.234C160.258 21.4073 160.821 21.6847 161.307 22.066C161.809 22.43 162.208 22.924 162.503 23.548C162.797 24.1547 162.945 24.9 162.945 25.784V33.974C162.771 34.026 162.494 34.078 162.113 34.13C161.749 34.182 161.367 34.208 160.969 34.208C160.587 34.208 160.241 34.182 159.929 34.13C159.634 34.078 159.383 33.974 159.175 33.818C158.967 33.662 158.802 33.454 158.681 33.194C158.577 32.9167 158.525 32.5613 158.525 32.128V25.914C158.525 25.394 158.377 25.0213 158.083 24.796C157.788 24.5533 157.389 24.432 156.887 24.432C156.644 24.432 156.384 24.4927 156.107 24.614C155.829 24.718 155.621 24.8307 155.483 24.952C155.5 25.0213 155.509 25.0907 155.509 25.16C155.509 25.212 155.509 25.264 155.509 25.316V33.974C155.318 34.026 155.032 34.078 154.651 34.13C154.287 34.182 153.914 34.208 153.533 34.208C153.151 34.208 152.805 34.182 152.493 34.13C152.198 34.078 151.947 33.974 151.739 33.818C151.531 33.662 151.366 33.454 151.245 33.194C151.141 32.9167 151.089 32.5613 151.089 32.128V25.914C151.089 25.394 150.924 25.0213 150.595 24.796C150.283 24.5533 149.901 24.432 149.451 24.432C149.139 24.432 148.87 24.484 148.645 24.588C148.419 24.6747 148.229 24.7613 148.073 24.848V33.974C147.899 34.026 147.622 34.078 147.241 34.13C146.877 34.182 146.495 34.208 146.097 34.208C145.715 34.208 145.369 34.182 145.057 34.13C144.762 34.078 144.511 33.974 144.303 33.818C144.095 33.662 143.93 33.454 143.809 33.194C143.705 32.9167 143.653 32.5613 143.653 32.128V24.276C143.653 23.808 143.748 23.4353 143.939 23.158C144.147 22.8807 144.424 22.6207 144.771 22.378C145.36 21.962 146.088 21.624 146.955 21.364C147.839 21.104 148.757 20.974 149.711 20.974ZM171.049 31.192C171.344 31.192 171.664 31.166 172.011 31.114C172.375 31.0447 172.644 30.958 172.817 30.854V28.774L170.945 28.93C170.46 28.9647 170.061 29.0687 169.749 29.242C169.437 29.4153 169.281 29.6753 169.281 30.022C169.281 30.3687 169.411 30.6547 169.671 30.88C169.948 31.088 170.408 31.192 171.049 31.192ZM170.841 20.974C171.777 20.974 172.626 21.0693 173.389 21.26C174.169 21.4507 174.828 21.7453 175.365 22.144C175.92 22.5253 176.344 23.0193 176.639 23.626C176.934 24.2153 177.081 24.9173 177.081 25.732V31.556C177.081 32.0067 176.951 32.3793 176.691 32.674C176.448 32.9513 176.154 33.194 175.807 33.402C174.68 34.078 173.094 34.416 171.049 34.416C170.13 34.416 169.298 34.3293 168.553 34.156C167.825 33.9827 167.192 33.7227 166.655 33.376C166.135 33.0293 165.728 32.5873 165.433 32.05C165.156 31.5127 165.017 30.8887 165.017 30.178C165.017 28.982 165.372 28.0633 166.083 27.422C166.794 26.7807 167.894 26.382 169.385 26.226L172.791 25.862V25.68C172.791 25.1773 172.566 24.822 172.115 24.614C171.682 24.3887 171.049 24.276 170.217 24.276C169.558 24.276 168.917 24.3453 168.293 24.484C167.669 24.6227 167.106 24.796 166.603 25.004C166.378 24.848 166.187 24.614 166.031 24.302C165.875 23.9727 165.797 23.6347 165.797 23.288C165.797 22.8373 165.901 22.482 166.109 22.222C166.334 21.9447 166.672 21.7107 167.123 21.52C167.626 21.3293 168.215 21.1907 168.891 21.104C169.584 21.0173 170.234 20.974 170.841 20.974ZM184.204 33.974C184.03 34.026 183.753 34.078 183.372 34.13C183.008 34.182 182.626 34.208 182.228 34.208C181.846 34.208 181.5 34.182 181.188 34.13C180.893 34.078 180.642 33.974 180.434 33.818C180.226 33.662 180.061 33.454 179.94 33.194C179.836 32.9167 179.784 32.5613 179.784 32.128V24.328C179.784 23.9293 179.853 23.5913 179.992 23.314C180.148 23.0193 180.364 22.7593 180.642 22.534C180.919 22.3087 181.257 22.1093 181.656 21.936C182.072 21.7453 182.514 21.5807 182.982 21.442C183.45 21.3033 183.935 21.1993 184.438 21.13C184.94 21.0433 185.443 21 185.946 21C186.778 21 187.436 21.1647 187.922 21.494C188.407 21.806 188.65 22.326 188.65 23.054C188.65 23.2967 188.615 23.5393 188.546 23.782C188.476 24.0073 188.39 24.2153 188.286 24.406C187.922 24.406 187.549 24.4233 187.168 24.458C186.786 24.4927 186.414 24.5447 186.05 24.614C185.686 24.6833 185.339 24.7613 185.01 24.848C184.698 24.9173 184.429 25.004 184.204 25.108V33.974ZM195.5 31.192C195.795 31.192 196.116 31.166 196.462 31.114C196.826 31.0447 197.095 30.958 197.268 30.854V28.774L195.396 28.93C194.911 28.9647 194.512 29.0687 194.2 29.242C193.888 29.4153 193.732 29.6753 193.732 30.022C193.732 30.3687 193.862 30.6547 194.122 30.88C194.4 31.088 194.859 31.192 195.5 31.192ZM195.292 20.974C196.228 20.974 197.078 21.0693 197.84 21.26C198.62 21.4507 199.279 21.7453 199.816 22.144C200.371 22.5253 200.796 23.0193 201.09 23.626C201.385 24.2153 201.532 24.9173 201.532 25.732V31.556C201.532 32.0067 201.402 32.3793 201.142 32.674C200.9 32.9513 200.605 33.194 200.258 33.402C199.132 34.078 197.546 34.416 195.5 34.416C194.582 34.416 193.75 34.3293 193.004 34.156C192.276 33.9827 191.644 33.7227 191.106 33.376C190.586 33.0293 190.179 32.5873 189.884 32.05C189.607 31.5127 189.468 30.8887 189.468 30.178C189.468 28.982 189.824 28.0633 190.534 27.422C191.245 26.7807 192.346 26.382 193.836 26.226L197.242 25.862V25.68C197.242 25.1773 197.017 24.822 196.566 24.614C196.133 24.3887 195.5 24.276 194.668 24.276C194.01 24.276 193.368 24.3453 192.744 24.484C192.12 24.6227 191.557 24.796 191.054 25.004C190.829 24.848 190.638 24.614 190.482 24.302C190.326 23.9727 190.248 23.6347 190.248 23.288C190.248 22.8373 190.352 22.482 190.56 22.222C190.786 21.9447 191.124 21.7107 191.574 21.52C192.077 21.3293 192.666 21.1907 193.342 21.104C194.036 21.0173 194.686 20.974 195.292 20.974ZM208.733 33.974C208.542 34.0087 208.256 34.052 207.875 34.104C207.511 34.1733 207.138 34.208 206.757 34.208C206.375 34.208 206.029 34.182 205.717 34.13C205.422 34.078 205.171 33.974 204.963 33.818C204.755 33.662 204.59 33.454 204.469 33.194C204.365 32.9167 204.313 32.5613 204.313 32.128V17.048C204.503 17.0133 204.781 16.97 205.145 16.918C205.526 16.8487 205.907 16.814 206.289 16.814C206.67 16.814 207.008 16.84 207.303 16.892C207.615 16.944 207.875 17.048 208.083 17.204C208.291 17.36 208.447 17.5767 208.551 17.854C208.672 18.114 208.733 18.4607 208.733 18.894V33.974ZM132.162 66.734C131.399 66.474 130.706 66.214 130.082 65.954C129.458 65.6767 128.921 65.3473 128.47 64.966C128.019 64.5847 127.664 64.134 127.404 63.614C127.161 63.0767 127.04 62.4267 127.04 61.664C127.04 60.1907 127.603 59.012 128.73 58.128C129.874 57.244 131.469 56.802 133.514 56.802C134.259 56.802 134.953 56.854 135.594 56.958C136.235 57.062 136.781 57.2267 137.232 57.452C137.7 57.66 138.064 57.9373 138.324 58.284C138.584 58.6133 138.714 59.0033 138.714 59.454C138.714 59.9047 138.61 60.2947 138.402 60.624C138.194 60.936 137.943 61.2047 137.648 61.43C137.267 61.1873 136.755 60.9793 136.114 60.806C135.473 60.6153 134.771 60.52 134.008 60.52C133.228 60.52 132.656 60.6327 132.292 60.858C131.928 61.066 131.746 61.3347 131.746 61.664C131.746 61.924 131.859 62.1407 132.084 62.314C132.309 62.47 132.647 62.6173 133.098 62.756L134.476 63.198C136.105 63.718 137.353 64.3853 138.22 65.2C139.104 65.9973 139.546 67.0893 139.546 68.476C139.546 69.9493 138.965 71.1453 137.804 72.064C136.643 72.9653 134.935 73.416 132.682 73.416C131.885 73.416 131.139 73.3467 130.446 73.208C129.77 73.0867 129.172 72.9047 128.652 72.662C128.149 72.402 127.751 72.09 127.456 71.726C127.179 71.3447 127.04 70.9113 127.04 70.426C127.04 69.9233 127.187 69.4987 127.482 69.152C127.777 68.788 128.097 68.5107 128.444 68.32C128.929 68.7013 129.519 69.0307 130.212 69.308C130.923 69.5853 131.694 69.724 132.526 69.724C133.375 69.724 133.973 69.594 134.32 69.334C134.667 69.074 134.84 68.7707 134.84 68.424C134.84 68.0773 134.701 67.8173 134.424 67.644C134.147 67.4533 133.757 67.2713 133.254 67.098L132.162 66.734ZM154.801 66.682C154.801 67.7567 154.636 68.7187 154.307 69.568C153.978 70.4 153.51 71.102 152.903 71.674C152.314 72.246 151.603 72.6793 150.771 72.974C149.939 73.2687 149.012 73.416 147.989 73.416C146.966 73.416 146.039 73.26 145.207 72.948C144.375 72.636 143.656 72.194 143.049 71.622C142.46 71.0327 142 70.322 141.671 69.49C141.342 68.658 141.177 67.722 141.177 66.682C141.177 65.6593 141.342 64.732 141.671 63.9C142 63.068 142.46 62.366 143.049 61.794C143.656 61.2047 144.375 60.754 145.207 60.442C146.039 60.13 146.966 59.974 147.989 59.974C149.012 59.974 149.939 60.1387 150.771 60.468C151.603 60.78 152.314 61.2307 152.903 61.82C153.51 62.392 153.978 63.094 154.307 63.926C154.636 64.758 154.801 65.6767 154.801 66.682ZM145.701 66.682C145.701 67.7393 145.9 68.554 146.299 69.126C146.715 69.6807 147.287 69.958 148.015 69.958C148.743 69.958 149.298 69.672 149.679 69.1C150.078 68.528 150.277 67.722 150.277 66.682C150.277 65.642 150.078 64.8447 149.679 64.29C149.28 63.718 148.717 63.432 147.989 63.432C147.261 63.432 146.698 63.718 146.299 64.29C145.9 64.8447 145.701 65.642 145.701 66.682ZM161.455 72.974C161.265 73.0087 160.979 73.052 160.597 73.104C160.233 73.1733 159.861 73.208 159.479 73.208C159.098 73.208 158.751 73.182 158.439 73.13C158.145 73.078 157.893 72.974 157.685 72.818C157.477 72.662 157.313 72.454 157.191 72.194C157.087 71.9167 157.035 71.5613 157.035 71.128V56.048C157.226 56.0133 157.503 55.97 157.867 55.918C158.249 55.8487 158.63 55.814 159.011 55.814C159.393 55.814 159.731 55.84 160.025 55.892C160.337 55.944 160.597 56.048 160.805 56.204C161.013 56.36 161.169 56.5767 161.273 56.854C161.395 57.114 161.455 57.4607 161.455 57.894V72.974ZM164.245 60.546C164.418 60.494 164.687 60.442 165.051 60.39C165.432 60.338 165.822 60.312 166.221 60.312C166.602 60.312 166.94 60.338 167.235 60.39C167.547 60.442 167.807 60.546 168.015 60.702C168.223 60.858 168.379 61.0747 168.483 61.352C168.604 61.612 168.665 61.9587 168.665 62.392V67.982C168.665 68.6927 168.838 69.204 169.185 69.516C169.531 69.8107 170.034 69.958 170.693 69.958C171.091 69.958 171.412 69.9233 171.655 69.854C171.915 69.7847 172.114 69.7153 172.253 69.646V60.546C172.426 60.494 172.695 60.442 173.059 60.39C173.44 60.338 173.83 60.312 174.229 60.312C174.61 60.312 174.948 60.338 175.243 60.39C175.555 60.442 175.815 60.546 176.023 60.702C176.231 60.858 176.387 61.0747 176.491 61.352C176.612 61.612 176.673 61.9587 176.673 62.392V70.296C176.673 71.1627 176.309 71.8127 175.581 72.246C174.974 72.6273 174.246 72.9133 173.397 73.104C172.565 73.312 171.655 73.416 170.667 73.416C169.731 73.416 168.864 73.312 168.067 73.104C167.287 72.896 166.611 72.5753 166.039 72.142C165.467 71.7087 165.025 71.154 164.713 70.478C164.401 69.7847 164.245 68.9527 164.245 67.982V60.546ZM183.797 68.658C183.797 69.1087 183.936 69.4293 184.213 69.62C184.508 69.8107 184.915 69.906 185.435 69.906C185.695 69.906 185.964 69.8887 186.241 69.854C186.519 69.802 186.761 69.7413 186.969 69.672C187.125 69.8627 187.255 70.0793 187.359 70.322C187.481 70.5473 187.541 70.8247 187.541 71.154C187.541 71.8127 187.29 72.35 186.787 72.766C186.302 73.182 185.435 73.39 184.187 73.39C182.662 73.39 181.483 73.0433 180.651 72.35C179.837 71.6567 179.429 70.53 179.429 68.97V57.842C179.62 57.79 179.889 57.738 180.235 57.686C180.599 57.6167 180.981 57.582 181.379 57.582C182.142 57.582 182.731 57.7207 183.147 57.998C183.581 58.258 183.797 58.8213 183.797 59.688V61.352H187.203C187.307 61.5427 187.403 61.7853 187.489 62.08C187.593 62.3573 187.645 62.6693 187.645 63.016C187.645 63.6227 187.507 64.0647 187.229 64.342C186.969 64.602 186.614 64.732 186.163 64.732H183.797V68.658ZM189.684 56.854C189.684 56.1953 189.9 55.6407 190.334 55.19C190.784 54.7393 191.374 54.514 192.102 54.514C192.83 54.514 193.41 54.7393 193.844 55.19C194.294 55.6407 194.52 56.1953 194.52 56.854C194.52 57.5127 194.294 58.0673 193.844 58.518C193.41 58.9687 192.83 59.194 192.102 59.194C191.374 59.194 190.784 58.9687 190.334 58.518C189.9 58.0673 189.684 57.5127 189.684 56.854ZM194.312 72.974C194.121 73.0087 193.835 73.052 193.454 73.104C193.09 73.1733 192.717 73.208 192.336 73.208C191.954 73.208 191.608 73.182 191.296 73.13C191.001 73.078 190.75 72.974 190.542 72.818C190.334 72.662 190.169 72.454 190.048 72.194C189.944 71.9167 189.892 71.5613 189.892 71.128V60.546C190.082 60.5113 190.36 60.468 190.724 60.416C191.105 60.3467 191.486 60.312 191.868 60.312C192.249 60.312 192.587 60.338 192.882 60.39C193.194 60.442 193.454 60.546 193.662 60.702C193.87 60.858 194.026 61.0747 194.13 61.352C194.251 61.612 194.312 61.9587 194.312 62.392V72.974ZM210.203 66.682C210.203 67.7567 210.039 68.7187 209.709 69.568C209.38 70.4 208.912 71.102 208.305 71.674C207.716 72.246 207.005 72.6793 206.173 72.974C205.341 73.2687 204.414 73.416 203.391 73.416C202.369 73.416 201.441 73.26 200.609 72.948C199.777 72.636 199.058 72.194 198.451 71.622C197.862 71.0327 197.403 70.322 197.073 69.49C196.744 68.658 196.579 67.722 196.579 66.682C196.579 65.6593 196.744 64.732 197.073 63.9C197.403 63.068 197.862 62.366 198.451 61.794C199.058 61.2047 199.777 60.754 200.609 60.442C201.441 60.13 202.369 59.974 203.391 59.974C204.414 59.974 205.341 60.1387 206.173 60.468C207.005 60.78 207.716 61.2307 208.305 61.82C208.912 62.392 209.38 63.094 209.709 63.926C210.039 64.758 210.203 65.6767 210.203 66.682ZM201.103 66.682C201.103 67.7393 201.303 68.554 201.701 69.126C202.117 69.6807 202.689 69.958 203.417 69.958C204.145 69.958 204.7 69.672 205.081 69.1C205.48 68.528 205.679 67.722 205.679 66.682C205.679 65.642 205.48 64.8447 205.081 64.29C204.683 63.718 204.119 63.432 203.391 63.432C202.663 63.432 202.1 63.718 201.701 64.29C201.303 64.8447 201.103 65.642 201.103 66.682ZM220.368 64.992C220.368 64.4547 220.212 64.0647 219.9 63.822C219.605 63.562 219.198 63.432 218.678 63.432C218.331 63.432 217.984 63.4753 217.638 63.562C217.308 63.6487 217.022 63.7787 216.78 63.952V72.974C216.606 73.026 216.329 73.078 215.948 73.13C215.584 73.182 215.202 73.208 214.804 73.208C214.422 73.208 214.076 73.182 213.764 73.13C213.469 73.078 213.218 72.974 213.01 72.818C212.802 72.662 212.637 72.454 212.516 72.194C212.412 71.9167 212.36 71.5613 212.36 71.128V63.328C212.36 62.86 212.455 62.4787 212.646 62.184C212.854 61.8893 213.131 61.6207 213.478 61.378C214.067 60.962 214.804 60.624 215.688 60.364C216.589 60.104 217.586 59.974 218.678 59.974C220.636 59.974 222.144 60.4073 223.202 61.274C224.259 62.1233 224.788 63.3107 224.788 64.836V72.974C224.614 73.026 224.337 73.078 223.956 73.13C223.592 73.182 223.21 73.208 222.812 73.208C222.43 73.208 222.084 73.182 221.772 73.13C221.477 73.078 221.226 72.974 221.018 72.818C220.81 72.662 220.645 72.454 220.524 72.194C220.42 71.9167 220.368 71.5613 220.368 71.128V64.992ZM238.178 69.23C238.178 70.5473 237.684 71.5787 236.696 72.324C235.708 73.0693 234.252 73.442 232.328 73.442C231.6 73.442 230.924 73.39 230.3 73.286C229.676 73.182 229.139 73.026 228.688 72.818C228.255 72.5927 227.908 72.3153 227.648 71.986C227.405 71.6567 227.284 71.2667 227.284 70.816C227.284 70.4 227.371 70.0533 227.544 69.776C227.717 69.4813 227.925 69.2387 228.168 69.048C228.671 69.3253 229.243 69.5767 229.884 69.802C230.543 70.01 231.297 70.114 232.146 70.114C232.683 70.114 233.091 70.036 233.368 69.88C233.663 69.724 233.81 69.516 233.81 69.256C233.81 69.0133 233.706 68.8227 233.498 68.684C233.29 68.5453 232.943 68.4327 232.458 68.346L231.678 68.19C230.17 67.8953 229.043 67.436 228.298 66.812C227.57 66.1707 227.206 65.2607 227.206 64.082C227.206 63.4407 227.345 62.86 227.622 62.34C227.899 61.82 228.289 61.3867 228.792 61.04C229.295 60.6933 229.893 60.4247 230.586 60.234C231.297 60.0433 232.077 59.948 232.926 59.948C233.567 59.948 234.165 60 234.72 60.104C235.292 60.1907 235.786 60.3293 236.202 60.52C236.618 60.7107 236.947 60.962 237.19 61.274C237.433 61.5687 237.554 61.924 237.554 62.34C237.554 62.7387 237.476 63.0853 237.32 63.38C237.181 63.6573 236.999 63.8913 236.774 64.082C236.635 63.9953 236.427 63.9087 236.15 63.822C235.873 63.718 235.569 63.6313 235.24 63.562C234.911 63.4753 234.573 63.406 234.226 63.354C233.897 63.302 233.593 63.276 233.316 63.276C232.744 63.276 232.302 63.3453 231.99 63.484C231.678 63.6053 231.522 63.8047 231.522 64.082C231.522 64.2727 231.609 64.4287 231.782 64.55C231.955 64.6713 232.285 64.784 232.77 64.888L233.576 65.07C235.24 65.4513 236.419 65.98 237.112 66.656C237.823 67.3147 238.178 68.1727 238.178 69.23Z" fill="#09D3AC"/>
<path d="M113.361 48.3554C113.361 41.7736 105.614 35.937 93.7016 32.3738C96.5674 20.2707 95.316 10.6416 89.6131 7.38417C88.2148 6.60753 86.6368 6.21221 85.0374 6.23786C79.7166 6.23786 72.9916 9.95383 66.1997 16.3827C59.4077 10.0016 52.7018 6.30473 47.3905 6.30473C45.7664 6.26884 44.1626 6.67144 42.748 7.47015C37.0737 10.7371 35.8987 20.3089 38.7263 32.3547C26.8715 35.8987 19.1626 41.6876 19.1434 48.2407C19.1243 54.7938 26.9002 60.6591 38.8123 64.2127C35.9465 76.3254 37.1883 85.9449 42.9008 89.2024C44.294 89.9833 45.8701 90.379 47.467 90.3487C52.7973 90.3487 59.5224 86.6327 66.3143 80.2038C73.0966 86.5849 79.8026 90.2818 85.1234 90.2818C86.7468 90.3116 88.3491 89.9094 89.766 89.1164C95.4402 85.8494 96.6056 76.2777 93.7876 64.2796C105.642 60.6878 113.351 54.8989 113.361 48.3554ZM70.5747 18.5416C78.3983 11.5396 83.2893 10.7849 85.0279 10.7849C85.8342 10.759 86.6326 10.9504 87.3396 11.339C90.0716 12.896 91.1606 18.3888 90.2914 25.6679C90.0687 27.5268 89.7498 29.3729 89.3361 31.1989C85.3777 30.2788 81.3634 29.6183 77.3189 29.2215C74.9104 25.8417 72.2809 22.6249 69.4475 19.5924C69.801 19.239 70.1831 18.8855 70.5747 18.5416ZM46.8938 53.7717C47.6389 55.2046 48.4318 56.6375 49.2533 58.0799C50.0748 59.5224 50.9346 60.9839 51.8898 62.4264C49.3011 62.0538 46.7887 61.5857 44.4006 61.0317C45.0693 58.6053 45.9194 56.2172 46.8938 53.7717ZM44.2477 35.5835C46.6645 35.0199 49.196 34.5518 51.823 34.1888C50.8677 35.6026 50.0462 37.0546 49.1864 38.5735C48.3267 40.0923 47.572 41.4393 46.8365 42.8913C45.8621 40.4076 44.9992 37.9717 44.2477 35.5835ZM49.2246 48.3267C50.4092 45.8239 51.7115 43.3211 53.1317 40.8183C54.5646 38.3156 56.1025 35.8796 57.6883 33.5488C60.4681 33.3386 63.3339 33.224 66.2856 33.2336C69.2374 33.2431 72.0172 33.3482 74.7779 33.5679C76.3636 35.8796 77.8825 38.3442 79.3154 40.7801C80.7483 43.216 82.0666 45.7666 83.2511 48.2598C82.0761 50.7626 80.7674 53.275 79.3536 55.7586C77.9398 58.2423 76.3827 60.7069 74.797 63.0377C72.0172 63.2574 69.1514 63.3625 66.1997 63.3625C63.2479 63.3625 60.4681 63.2383 57.7074 63.0186C56.1216 60.7069 54.5932 58.2996 53.1603 55.8064C51.7274 53.3132 50.4569 50.8199 49.2629 48.3267H49.2246ZM80.6145 34.2175C83.2129 34.5805 85.7252 35.0486 88.1038 35.6026C87.3969 37.9621 86.5563 40.3789 85.5819 42.8148C84.8273 41.3819 84.0439 39.9491 83.2129 38.5066C82.3818 37.0642 81.5029 35.6122 80.6528 34.2175H80.6145ZM83.2511 58.0226C84.0726 56.577 84.8559 55.1345 85.601 53.6953C86.5563 56.179 87.5115 58.6244 88.1802 61.0126C85.773 61.5762 83.2415 62.0347 80.6145 62.3977C81.538 60.9839 82.4296 59.5256 83.2893 58.0226H83.2511ZM66.2188 22.8403C67.9382 24.6744 69.629 26.6614 71.2816 28.7916C69.6481 28.7247 67.9764 28.677 66.2856 28.677C64.5948 28.677 62.8658 28.677 61.1941 28.7916C62.8276 26.6709 64.4993 24.6744 66.2188 22.8403ZM45.031 11.3772C45.7558 10.9917 46.5704 10.807 47.3905 10.8422C49.1116 10.9139 50.7994 11.34 52.3484 12.0936C55.8491 13.7441 59.0718 15.9291 61.901 18.5703L63.0186 19.5924C60.2142 22.6028 57.6103 25.7938 55.2237 29.145C51.1573 29.539 47.1208 30.1963 43.1396 31.1129C42.7193 29.2597 42.3754 27.4447 42.1844 25.6965C41.1909 18.4843 42.3372 12.982 45.0215 11.4154L45.031 11.3772ZM39.9777 59.809C38.1828 59.261 36.4166 58.6234 34.6856 57.8984C27.9032 55.0326 23.7 51.3549 23.7 48.2121C23.7 45.0693 27.9223 41.4106 34.6951 38.5926C36.3953 37.8884 38.1296 37.2699 39.8917 36.7394C41.0859 40.697 42.5411 44.5711 44.2477 48.3363C42.5774 52.064 41.1511 55.8963 39.9777 59.809ZM61.9487 78.0545C54.1251 85.0565 49.2342 85.8016 47.4861 85.8016C46.6797 85.8285 45.881 85.6371 45.1743 85.2476C42.4423 83.6905 41.3533 78.1977 42.2226 70.9186C42.4444 69.0628 42.7633 67.2198 43.1778 65.3972C47.1374 66.3093 51.1514 66.9666 55.195 67.3651C57.6006 70.7471 60.2303 73.964 63.0664 76.9941L61.9487 78.0545ZM66.3143 73.7462C64.5948 71.9121 62.904 69.9252 61.2418 67.7949C62.8849 67.8714 64.5566 67.9096 66.2474 67.9096C67.9382 67.9096 69.6672 67.9096 71.339 67.8045C69.6864 69.9252 68.0051 71.9121 66.3047 73.7462H66.3143ZM87.502 85.2094C86.7772 85.6064 85.9589 85.8011 85.1329 85.773C83.3944 85.773 78.4461 85.0088 70.6512 78.0353L69.5335 77.0132C72.3347 74.0027 74.9354 70.8116 77.3189 67.4606C81.3891 67.0722 85.4291 66.4148 89.4125 65.4928C89.8328 67.346 90.1672 69.161 90.3678 70.9091C91.3135 78.1118 90.2149 83.6141 87.4924 85.1712L87.502 85.2094ZM97.8188 58.0417C96.1853 58.7104 94.4563 59.3313 92.6222 59.8854C91.4233 55.9281 89.965 52.054 88.2566 48.2885C89.9346 44.565 91.3674 40.7358 92.5458 36.8253C94.3407 37.3733 96.1069 38.0109 97.8379 38.7359C104.611 41.6017 108.823 45.2794 108.814 48.4222C108.804 51.565 104.592 55.1855 97.8093 58.0035L97.8188 58.0417ZM66.2188 57.0673C67.9532 57.0692 69.6492 56.5568 71.0923 55.5948C72.5355 54.6327 73.661 53.2644 74.3264 51.6627C74.9919 50.0611 75.1675 48.2981 74.831 46.5966C74.4945 44.8952 73.661 43.3317 72.4359 42.104C71.2108 40.8762 69.6492 40.0393 67.9485 39.6991C66.2478 39.3589 64.4844 39.5306 62.8813 40.1926C61.2782 40.8546 59.9074 41.9771 58.9422 43.4181C57.9771 44.8592 57.4609 46.5541 57.459 48.2885C57.4565 49.4404 57.6812 50.5816 58.1203 51.6466C58.5594 52.7116 59.2042 53.6795 60.0179 54.4949C60.8316 55.3104 61.7981 55.9573 62.8621 56.3987C63.9262 56.8401 65.0668 57.0673 66.2188 57.0673ZM12.5139 0V96.5961H120V0H12.5139ZM120 96.5961H12.5139V0H120V96.5961ZM38.8027 64.2127C35.937 76.3254 37.1788 85.9449 42.8913 89.2024C44.2844 89.9833 45.8606 90.379 47.4574 90.3487C52.7878 90.3487 59.5128 86.6327 66.3047 80.2038C73.0871 86.5849 79.793 90.2818 85.1138 90.2818C86.7373 90.3116 88.3395 89.9094 89.7564 89.1164C95.4307 85.8494 96.5961 76.2777 93.7781 64.2796C105.633 60.726 113.342 54.9371 113.351 48.3936C113.361 41.85 105.604 35.9752 93.6921 32.412C96.5579 20.3089 95.3065 10.6798 89.6036 7.42239C88.2052 6.64574 86.6272 6.25042 85.0279 6.27607C79.7071 6.27607 72.982 9.99204 66.1901 16.421C59.3982 10.0398 52.6922 6.34294 47.381 6.34294C45.7568 6.30705 44.1531 6.70965 42.7384 7.50836C37.0642 10.7754 35.8892 20.3471 38.7168 32.3929C26.862 35.937 19.153 41.7258 19.1339 48.2789C19.1148 54.832 26.9002 60.64 38.8123 64.2127H38.8027ZM61.9296 78.0545C54.106 85.0565 49.2151 85.8016 47.467 85.8016C46.6606 85.8285 45.8619 85.6371 45.1552 85.2476C42.4232 83.6905 41.3342 78.1977 42.2035 70.9186C42.4253 69.0628 42.7442 67.2198 43.1587 65.3972C47.1183 66.3093 51.1323 66.9666 55.1759 67.3651C57.5815 70.7471 60.2112 73.964 63.0473 76.9941L61.9296 78.0545ZM85.6106 42.8148C84.8559 41.3819 84.0726 39.9491 83.2415 38.5066C82.4104 37.0642 81.522 35.6408 80.6432 34.2175C83.2415 34.5805 85.7539 35.0486 88.1325 35.6026C87.4351 37.9621 86.5945 40.3789 85.6201 42.8148H85.6106ZM88.2089 60.9648C85.8016 61.5284 83.2702 61.9869 80.6432 62.3499C81.5412 60.9362 82.42 59.4778 83.2797 57.9748C84.1395 56.4719 84.9228 55.0295 85.6297 53.6475C86.6327 56.179 87.502 58.6053 88.1898 61.0126L88.2089 60.9648ZM83.232 48.2121C82.057 50.7149 80.7483 53.2272 79.3345 55.7109C77.9207 58.1946 76.3636 60.6591 74.7779 62.99C71.9981 63.2097 69.1323 63.3148 66.1805 63.3148C63.2288 63.3148 60.449 63.1906 57.6883 62.9709C56.1025 60.6591 54.5741 58.2519 53.1412 55.7586C51.7083 53.2654 50.3996 50.7722 49.2055 48.2789C50.3901 45.7762 51.6924 43.2734 53.1126 40.7706C54.5455 38.2678 56.0834 35.8319 57.6692 33.501C60.449 33.2909 63.3148 33.1762 66.2665 33.1858C69.2183 33.1954 71.9981 33.3004 74.7588 33.5201C76.3445 35.8319 77.8634 38.2965 79.2963 40.7324C80.7292 43.1683 82.057 45.7666 83.2415 48.2598L83.232 48.2121ZM51.8898 62.4264C49.3011 62.0538 46.7887 61.5857 44.4006 61.0317C45.1075 58.6817 45.9576 56.2554 46.932 53.8195C47.6771 55.2523 48.47 56.6852 49.2915 58.1277C50.113 59.5701 50.9346 60.9839 51.8898 62.4264ZM49.2246 38.5448C48.3936 39.9777 47.6103 41.4106 46.8747 42.8626C45.8749 40.398 44.9992 37.9717 44.2477 35.5835C46.6645 35.0199 49.196 34.5518 51.823 34.1888C50.9346 35.6026 50.0844 37.0642 49.2246 38.5448ZM66.3047 73.7462C64.5853 71.9121 62.8944 69.9252 61.2323 67.7949C62.8753 67.8714 64.547 67.9096 66.2379 67.9096C67.9287 67.9096 69.6577 67.9096 71.3294 67.8045C69.6864 69.9252 68.0051 71.9121 66.3047 73.7462ZM87.4924 85.2094C86.7676 85.6064 85.9493 85.8011 85.1234 85.773C83.3848 85.773 78.4366 85.0088 70.6416 78.0353L69.524 77.0132C72.3252 74.0027 74.9259 70.8116 77.3093 67.4606C81.3796 67.0722 85.4196 66.4148 89.403 65.4928C89.8233 67.346 90.1576 69.161 90.3582 70.9091C91.3135 78.1118 90.2149 83.6141 87.4924 85.1712V85.2094ZM92.5362 36.8158C94.3311 37.3637 96.0974 38.0014 97.8284 38.7263C104.601 41.5921 108.814 45.2699 108.804 48.4127C108.795 51.5555 104.592 55.2524 97.8093 58.0704C96.1758 58.7391 94.4467 59.36 92.6126 59.914C91.4137 55.9567 89.9554 52.0827 88.2471 48.3172C89.9282 44.5688 91.361 40.714 92.5362 36.7776V36.8158ZM70.5652 18.5798C78.3888 11.5778 83.2797 10.8231 85.0183 10.8231C85.8246 10.7972 86.6231 10.9886 87.33 11.3772C90.0621 12.9342 91.1511 18.427 90.2818 25.7061C90.0591 27.565 89.7403 29.4111 89.3265 31.2371C85.3681 30.317 81.3539 29.6565 77.3093 29.2597C74.9009 25.8799 72.2713 22.6632 69.438 19.6306C69.801 19.239 70.1831 18.8855 70.5747 18.5416L70.5652 18.5798ZM66.2188 22.8403C67.9382 24.6744 69.629 26.6614 71.2816 28.7916C69.6481 28.7247 67.9764 28.677 66.2856 28.677C64.5948 28.677 62.8658 28.677 61.1941 28.7916C62.8276 26.6709 64.4993 24.6744 66.2188 22.8403ZM45.031 11.3772C45.7558 10.9917 46.5704 10.807 47.3905 10.8422C49.1116 10.9139 50.7994 11.34 52.3484 12.0936C55.8491 13.7441 59.0718 15.9291 61.901 18.5703L63.0186 19.5924C60.2142 22.6028 57.6103 25.7938 55.2237 29.145C51.1573 29.539 47.1208 30.1963 43.1396 31.1129C42.7193 29.2597 42.3754 27.4447 42.1844 25.6965C41.1909 18.4843 42.3372 12.982 45.0215 11.4154L45.031 11.3772ZM34.6951 38.5926C36.3953 37.8884 38.1296 37.2699 39.8917 36.7394C41.0859 40.697 42.5411 44.5711 44.2477 48.3363C42.5713 52.0604 41.1386 55.8895 39.9586 59.7994C38.1637 59.2514 36.3975 58.6138 34.6665 57.8889C27.8841 55.0231 23.6809 51.3453 23.6809 48.2025C23.6809 45.0597 27.9223 41.4106 34.6951 38.5926ZM66.2188 39.5478C64.4844 39.546 62.7883 40.0584 61.3452 41.0204C59.902 41.9824 58.7766 43.3508 58.1111 44.9525C57.4456 46.5541 57.27 48.3171 57.6065 50.0186C57.9431 51.72 58.7765 53.2835 60.0016 54.5112C61.2267 55.739 62.7883 56.5759 64.489 56.9161C66.1897 57.2563 67.9531 57.0846 69.5562 56.4226C71.1593 55.7606 72.5301 54.6381 73.4953 53.1971C74.4605 51.756 74.9766 50.0611 74.9785 48.3267C74.9873 47.1707 74.7673 46.0245 74.331 44.9539C73.8947 43.8834 73.2509 42.9099 72.4366 42.0894C71.6223 41.2688 70.6536 40.6176 69.5865 40.1732C68.5193 39.7288 67.3747 39.5 66.2188 39.5001V39.5478ZM66.2188 39.5478C64.4844 39.546 62.7883 40.0584 61.3452 41.0204C59.902 41.9824 58.7766 43.3508 58.1111 44.9525C57.4456 46.5541 57.27 48.3171 57.6065 50.0186C57.9431 51.72 58.7765 53.2835 60.0016 54.5112C61.2267 55.739 62.7883 56.5759 64.489 56.9161C66.1897 57.2563 67.9531 57.0846 69.5562 56.4226C71.1593 55.7606 72.5301 54.6381 73.4953 53.1971C74.4605 51.756 74.9766 50.0611 74.9785 48.3267C74.9873 47.1707 74.7673 46.0245 74.331 44.9539C73.8947 43.8834 73.2509 42.9099 72.4366 42.0894C71.6223 41.2688 70.6536 40.6176 69.5865 40.1732C68.5193 39.7288 67.3747 39.5 66.2188 39.5001V39.5478ZM66.2188 39.5478C64.4844 39.546 62.7883 40.0584 61.3452 41.0204C59.902 41.9824 58.7766 43.3508 58.1111 44.9525C57.4456 46.5541 57.27 48.3171 57.6065 50.0186C57.9431 51.72 58.7765 53.2835 60.0016 54.5112C61.2267 55.739 62.7883 56.5759 64.489 56.9161C66.1897 57.2563 67.9531 57.0846 69.5562 56.4226C71.1593 55.7606 72.5301 54.6381 73.4953 53.1971C74.4605 51.756 74.9766 50.0611 74.9785 48.3267C74.9873 47.1707 74.7673 46.0245 74.331 44.9539C73.8947 43.8834 73.2509 42.9099 72.4366 42.0894C71.6223 41.2688 70.6536 40.6176 69.5865 40.1732C68.5193 39.7288 67.3747 39.5 66.2188 39.5001V39.5478ZM113.361 48.3745C113.361 41.7927 105.614 35.9561 93.7016 32.3929C96.5674 20.2898 95.316 10.6607 89.6131 7.40328C88.2148 6.62664 86.6368 6.23132 85.0374 6.25697C79.7166 6.25697 72.9916 9.97293 66.1997 16.4018C59.4077 10.0207 52.7018 6.32383 47.3905 6.32383C45.7664 6.28795 44.1626 6.69054 42.748 7.48925C37.0737 10.7562 35.8987 20.328 38.7263 32.3738C26.8715 35.9179 19.1626 41.7067 19.1434 48.2598C19.1243 54.8129 26.9002 60.6782 38.8123 64.2318C35.9465 76.3445 37.1883 85.964 42.9008 89.2215C44.294 90.0024 45.8701 90.3981 47.467 90.3678C52.7973 90.3678 59.5224 86.6518 66.3143 80.2229C73.0966 86.604 79.8026 90.3009 85.1234 90.3009C86.7468 90.3307 88.3491 89.9285 89.766 89.1355C95.4402 85.8685 96.6056 76.2968 93.7876 64.2987C105.642 60.6878 113.351 54.8989 113.361 48.3554V48.3745ZM70.5747 18.5416C78.3983 11.5396 83.2893 10.7849 85.0279 10.7849C85.8342 10.759 86.6326 10.9504 87.3396 11.339C90.0716 12.896 91.1606 18.3888 90.2914 25.6679C90.0687 27.5268 89.7498 29.3729 89.3361 31.1989C85.3777 30.2788 81.3634 29.6183 77.3189 29.2215C74.9104 25.8417 72.2809 22.6249 69.4475 19.5924C69.801 19.239 70.1831 18.8855 70.5747 18.5416ZM46.8938 53.7717C47.6389 55.2046 48.4318 56.6375 49.2533 58.0799C50.0748 59.5224 50.9346 60.9839 51.8898 62.4264C49.3011 62.0538 46.7887 61.5857 44.4006 61.0317C45.0693 58.6053 45.9194 56.2172 46.8938 53.7717ZM44.2477 35.5835C46.6645 35.0199 49.196 34.5518 51.823 34.1888C50.8677 35.6026 50.0462 37.0546 49.1864 38.5735C48.3267 40.0923 47.572 41.4393 46.8365 42.8913C45.8621 40.4076 44.9992 37.9717 44.2477 35.5835ZM49.2246 48.3267C50.4092 45.8239 51.7115 43.3211 53.1317 40.8183C54.5646 38.3156 56.1025 35.8796 57.6883 33.5488C60.4681 33.3386 63.3339 33.224 66.2856 33.2336C69.2374 33.2431 72.0172 33.3482 74.7779 33.5679C76.3636 35.8796 77.8825 38.3442 79.3154 40.7801C80.7483 43.216 82.0666 45.7666 83.2511 48.2598C82.0761 50.7626 80.7674 53.275 79.3536 55.7586C77.9398 58.2423 76.3827 60.7069 74.797 63.0377C72.0172 63.2574 69.1514 63.3625 66.1997 63.3625C63.2479 63.3625 60.4681 63.2383 57.7074 63.0186C56.1216 60.7069 54.5932 58.2996 53.1603 55.8064C51.7274 53.3132 50.4569 50.8199 49.2629 48.3267H49.2246ZM80.6145 34.2175C83.2129 34.5805 85.7252 35.0486 88.1038 35.6026C87.3969 37.9621 86.5563 40.3789 85.5819 42.8148C84.8273 41.3819 84.0439 39.9491 83.2129 38.5066C82.3818 37.0642 81.5029 35.6122 80.6528 34.2175H80.6145ZM83.2511 58.0226C84.0726 56.577 84.8559 55.1345 85.601 53.6953C86.5563 56.179 87.5115 58.6244 88.1802 61.0126C85.773 61.5762 83.2415 62.0347 80.6145 62.3977C81.538 60.9839 82.4296 59.5256 83.2893 58.0226H83.2511ZM66.2188 22.8403C67.9382 24.6744 69.629 26.6614 71.2816 28.7916C69.6481 28.7247 67.9764 28.677 66.2856 28.677C64.5948 28.677 62.8658 28.677 61.1941 28.7916C62.8276 26.6709 64.4993 24.6744 66.2188 22.8403ZM45.031 11.3772C45.7558 10.9917 46.5704 10.807 47.3905 10.8422C49.1116 10.9139 50.7994 11.34 52.3484 12.0936C55.8491 13.7441 59.0718 15.9291 61.901 18.5703L63.0186 19.5924C60.2142 22.6028 57.6103 25.7938 55.2237 29.145C51.1573 29.539 47.1208 30.1963 43.1396 31.1129C42.7193 29.2597 42.3754 27.4447 42.1844 25.6965C41.1909 18.4843 42.3372 12.982 45.0215 11.4154L45.031 11.3772ZM39.9777 59.809C38.1828 59.261 36.4166 58.6234 34.6856 57.8984C27.9032 55.0326 23.7 51.3549 23.7 48.2121C23.7 45.0693 27.9223 41.4106 34.6951 38.5926C36.3953 37.8884 38.1296 37.2699 39.8917 36.7394C41.0859 40.697 42.5411 44.5711 44.2477 48.3363C42.5774 52.064 41.1511 55.8963 39.9777 59.809ZM61.9487 78.0545C54.1251 85.0565 49.2342 85.8016 47.4861 85.8016C46.6797 85.8285 45.881 85.6371 45.1743 85.2476C42.4423 83.6905 41.3533 78.1977 42.2226 70.9186C42.4444 69.0628 42.7633 67.2198 43.1778 65.3972C47.1374 66.3093 51.1514 66.9666 55.195 67.3651C57.6006 70.7471 60.2303 73.964 63.0664 76.9941L61.9487 78.0545ZM66.3143 73.7462C64.5948 71.9121 62.904 69.9252 61.2418 67.7949C62.8849 67.8714 64.5566 67.9096 66.2474 67.9096C67.9382 67.9096 69.6672 67.9096 71.339 67.8045C69.6864 69.9252 68.0051 71.9121 66.3047 73.7462H66.3143ZM87.502 85.2094C86.7772 85.6064 85.9589 85.8011 85.1329 85.773C83.3944 85.773 78.4461 85.0088 70.6512 78.0353L69.5335 77.0132C72.3347 74.0027 74.9354 70.8116 77.3189 67.4606C81.3891 67.0722 85.4291 66.4148 89.4125 65.4928C89.8328 67.346 90.1672 69.161 90.3678 70.9091C91.3135 78.1118 90.2149 83.6141 87.4924 85.1712L87.502 85.2094ZM97.8188 58.0417C96.1853 58.7104 94.4563 59.3313 92.6222 59.8854C91.4233 55.9281 89.965 52.054 88.2566 48.2885C89.9346 44.565 91.3674 40.7358 92.5458 36.8253C94.3407 37.3733 96.1069 38.0109 97.8379 38.7359C104.611 41.6017 108.823 45.2794 108.814 48.4222C108.804 51.565 104.592 55.1855 97.8093 58.0035L97.8188 58.0417ZM66.2188 57.0673C67.9532 57.0692 69.6492 56.5568 71.0923 55.5948C72.5355 54.6327 73.661 53.2644 74.3264 51.6627C74.9919 50.0611 75.1675 48.2981 74.831 46.5966C74.4945 44.8952 73.661 43.3317 72.4359 42.104C71.2108 40.8762 69.6492 40.0393 67.9485 39.6991C66.2478 39.3589 64.4844 39.5306 62.8813 40.1926C61.2782 40.8546 59.9074 41.9771 58.9422 43.4181C57.9771 44.8592 57.4609 46.5541 57.459 48.2885C57.4565 49.4404 57.6812 50.5816 58.1203 51.6466C58.5594 52.7116 59.2042 53.6795 60.0179 54.4949C60.8316 55.3104 61.7981 55.9573 62.8621 56.3987C63.9262 56.8401 65.0668 57.0673 66.2188 57.0673Z" fill="#09D3AC"/>
</svg>
