<svg width="421" height="97" viewBox="0 0 421 97" fill="none" xmlns="http://www.w3.org/2000/svg">
<path d="M204.573 41.4084C205.129 41.4084 205.574 41.2973 206.019 41.0749C207.687 40.2965 208.354 38.1838 207.575 36.5159L190.452 2.1573C189.896 0.934175 188.784 0.267006 187.45 0.267006C186.226 0.267006 185.003 0.934175 184.447 2.1573L167.324 36.5159C166.545 38.1838 167.212 40.2965 168.88 41.0749C170.548 41.8532 172.55 41.1861 173.439 39.5182L187.45 11.1639L201.571 39.5182C202.127 40.7413 203.35 41.4084 204.573 41.4084ZM249.94 41.4084C251.83 41.4084 253.276 39.9629 253.276 38.0727V3.60281C253.276 2.26849 252.497 1.04536 251.163 0.489388C249.94 -0.0665823 248.495 0.266999 247.494 1.26774L233.039 16.0564L218.139 1.26774C217.138 0.266999 215.693 -0.0665823 214.469 0.489388C213.246 1.04536 212.357 2.26849 212.357 3.60281V38.0727C212.357 39.9629 213.913 41.4084 215.693 41.4084C217.583 41.4084 219.14 39.9629 219.14 38.0727V11.7199L230.704 23.1728C231.371 23.8399 232.149 24.1735 233.039 24.1735C233.928 24.1735 234.818 23.8399 235.485 23.1728L246.604 11.8311V38.0727C246.604 39.9629 248.05 41.4084 249.94 41.4084H249.94ZM295.307 41.4084C295.863 41.4084 296.308 41.2973 296.752 41.0749C298.42 40.2965 299.087 38.1838 298.309 36.5159L281.185 2.1573C280.629 0.934175 279.517 0.267006 278.183 0.267006C276.96 0.267006 275.737 0.934175 275.181 2.1573L258.057 36.5159C257.279 38.1838 257.946 40.2965 259.614 41.0749C261.282 41.8532 263.283 41.1861 264.173 39.5182L278.183 11.1639L292.305 39.5182C292.861 40.7413 294.084 41.4084 295.307 41.4084V41.4084ZM326.663 24.0623C332.334 23.0616 336.782 18.1691 336.782 12.1647C336.782 5.60428 331.333 0.267006 324.773 0.267006H306.426C304.536 0.267006 303.09 1.71251 303.09 3.60279V38.0726C303.09 39.9629 304.536 41.4084 306.426 41.4084C308.316 41.4084 309.762 39.9629 309.762 38.0726V6.93858H324.773C327.664 6.93858 329.999 9.27363 329.999 12.1646C329.999 15.0557 327.664 17.5019 324.773 17.5019H319.88C319.88 17.5019 319.88 17.5019 319.769 17.5019C319.658 17.5019 319.547 17.5019 319.436 17.5019C319.325 17.5019 319.213 17.5019 319.102 17.6131C318.991 17.6131 318.88 17.6131 318.88 17.6131C318.769 17.7243 318.657 17.7243 318.546 17.8355C318.435 17.8355 318.324 17.8355 318.213 17.9467C318.101 17.9467 317.99 18.0579 317.99 18.1691C317.879 18.1691 317.879 18.1691 317.879 18.1691C317.768 18.1691 317.768 18.2803 317.657 18.2803C317.657 18.3915 317.545 18.5027 317.434 18.6139C317.323 18.6139 317.323 18.725 317.212 18.8362C317.212 18.9474 317.101 18.9474 317.101 19.0586C316.989 19.1698 316.989 19.281 316.878 19.3922C316.878 19.5034 316.767 19.5034 316.767 19.6146C316.767 19.7258 316.656 19.837 316.656 19.9482C316.656 20.0594 316.656 20.1706 316.656 20.2818C316.545 20.393 316.545 20.5042 316.545 20.6153C316.545 20.7265 316.545 20.7265 316.545 20.8377V20.9489C316.545 21.0601 316.545 21.1713 316.656 21.2825C316.656 21.3937 316.656 21.5049 316.656 21.6161C316.656 21.7273 316.767 21.8385 316.767 21.9497C316.767 22.0609 316.767 22.1721 316.878 22.2832C316.878 22.2832 316.989 22.3944 316.989 22.5056C317.101 22.6168 317.101 22.728 317.212 22.8392C317.212 22.8392 317.212 22.8392 317.212 22.9504L330.777 40.0741C331.445 40.9637 332.445 41.4085 333.446 41.4085C334.113 41.4085 334.892 41.1861 335.447 40.7413C336.893 39.5182 337.227 37.4055 336.003 35.96L326.663 24.0623ZM378.813 41.4084C379.369 41.4084 379.814 41.2973 380.258 41.0749C381.926 40.2965 382.593 38.1838 381.815 36.5159L364.691 2.1573C364.135 0.934175 363.023 0.267006 361.689 0.267006C360.466 0.267006 359.243 0.934175 358.687 2.1573L341.563 36.5159C340.785 38.1838 341.452 40.2965 343.12 41.0749C344.788 41.8532 346.789 41.1861 347.679 39.5182L361.689 11.1639L375.811 39.5182C376.367 40.7413 377.59 41.4084 378.813 41.4084V41.4084ZM416.952 41.4084C418.731 41.4084 420.288 39.9629 420.288 38.0727C420.288 36.1824 418.731 34.7369 416.952 34.7369H393.268V3.60281C393.268 1.71253 391.822 0.267006 389.932 0.267006C388.042 0.267006 386.596 1.71253 386.596 3.60281V38.0727C386.596 39.9629 388.042 41.4084 389.932 41.4084H416.952Z" fill="white"/>
<path d="M181.798 96.4431C187.822 96.4431 192.593 93.3139 192.593 89.2461C192.593 85.1783 187.822 81.9709 181.798 81.9709C177.261 81.9709 173.428 79.7806 173.428 77.1208C173.428 74.4611 177.261 72.2707 181.798 72.2707C184.379 72.2707 186.805 72.9747 188.447 74.1481L188.526 74.2264C188.917 74.5393 189.308 74.9305 189.543 75.2434C189.934 75.791 190.716 75.8692 191.185 75.5563C191.733 75.1651 191.889 74.3828 191.498 73.8353C189.855 71.6449 186.648 70.1586 183.05 69.9239C182.971 69.9239 182.893 69.9239 182.815 69.9239C182.502 69.8456 182.189 69.8457 181.798 69.8457C175.774 69.8457 171.081 73.053 171.081 77.1208C171.081 81.1886 175.774 84.396 181.798 84.396C186.335 84.396 190.247 86.5864 190.247 89.2461C190.247 91.9058 186.335 94.0962 181.798 94.0962C179.216 94.0962 176.791 93.3922 175.227 92.2188C175.149 92.2188 175.149 92.1405 175.149 92.1405C174.679 91.8276 174.366 91.4365 174.053 91.1236C173.662 90.576 172.958 90.4195 172.411 90.8107C171.863 91.2018 171.785 91.9841 172.176 92.4534C173.741 94.722 176.948 96.2084 180.625 96.443C180.703 96.443 180.781 96.443 180.859 96.443C181.172 96.443 181.485 96.443 181.798 96.443V96.4431ZM213.423 96.4431C220.698 96.4431 226.643 90.4978 226.643 83.1444C226.643 75.8692 220.698 69.8457 213.423 69.8457C206.148 69.8457 200.202 75.8692 200.202 83.1444C200.202 90.4978 206.148 96.4431 213.423 96.4431ZM213.423 72.2707C219.446 72.2707 224.297 77.1208 224.297 83.1444C224.297 89.1679 219.446 94.0962 213.423 94.0962C207.478 94.0962 202.627 89.1679 202.627 83.1444C202.627 77.1208 207.478 72.2707 213.423 72.2707ZM254.435 96.4431C255.061 96.4431 255.609 95.9737 255.609 95.2696C255.609 94.6438 255.061 94.0962 254.435 94.0962H236.599V71.0191C236.599 70.3932 236.052 69.8457 235.426 69.8457C234.722 69.8457 234.252 70.3932 234.252 71.0191V95.2696C234.252 95.9737 234.722 96.4431 235.426 96.4431H254.435ZM273.857 96.4431C279.724 96.4431 284.574 91.6712 284.574 85.8041V71.0191C284.574 70.3932 284.026 69.8457 283.4 69.8457C282.696 69.8457 282.149 70.3932 282.149 71.0191V85.8041C282.149 90.4195 278.472 94.0962 273.857 94.0962C269.319 94.0962 265.564 90.4195 265.564 85.8041V71.0191C265.564 70.3932 265.017 69.8457 264.391 69.8457C263.687 69.8457 263.218 70.3932 263.218 71.0191V85.8041C263.218 91.6712 267.989 96.4431 273.857 96.4431H273.857ZM302.822 96.4431C303.448 96.4431 303.995 95.9737 303.995 95.2696V72.2707H312.365C312.991 72.2707 313.539 71.7231 313.539 71.0191C313.539 70.3932 312.991 69.8457 312.365 69.8457H293.356C292.652 69.8457 292.183 70.3932 292.183 71.0191C292.183 71.7231 292.652 72.2707 293.356 72.2707H301.648V95.2696C301.648 95.9737 302.196 96.4431 302.822 96.4431V96.4431ZM322.321 96.4431C323.025 96.4431 323.495 95.9737 323.495 95.2696V70.1586C323.495 69.5327 323.025 68.9851 322.321 68.9851C321.696 68.9851 321.148 69.5327 321.148 70.1586V95.2696C321.148 95.9737 321.696 96.4431 322.321 96.4431ZM344.324 96.4431C351.599 96.4431 357.545 90.4978 357.545 83.1444C357.545 75.8692 351.599 69.8457 344.324 69.8457C337.049 69.8457 331.104 75.8692 331.104 83.1444C331.104 90.4978 337.049 96.4431 344.324 96.4431ZM344.324 72.2707C350.348 72.2707 355.198 77.1208 355.198 83.1444C355.198 89.1679 350.348 94.0962 344.324 94.0962C338.379 94.0962 333.529 89.1679 333.529 83.1444C333.529 77.1208 338.379 72.2707 344.324 72.2707ZM385.337 96.4431C385.415 96.4431 385.571 96.4431 385.649 96.4431C386.197 96.2866 386.51 95.8172 386.51 95.2696V71.0191C386.51 70.3932 385.962 69.8457 385.337 69.8457C384.632 69.8457 384.085 70.3932 384.085 71.0191V91.8276L367.266 70.315C366.953 69.9239 366.405 69.7674 365.936 69.9239C365.467 70.0803 365.154 70.5497 365.154 71.0191V95.2696C365.154 95.9737 365.623 96.4431 366.327 96.4431C366.953 96.4431 367.501 95.9737 367.501 95.2696V74.4611L384.398 96.0519C384.632 96.2866 384.945 96.4431 385.337 96.4431V96.4431ZM404.836 96.4431C410.86 96.4431 415.632 93.3139 415.632 89.2461C415.632 85.1783 410.86 81.9709 404.836 81.9709C400.299 81.9709 396.466 79.7806 396.466 77.1208C396.466 74.4611 400.299 72.2707 404.836 72.2707C407.418 72.2707 409.843 72.9747 411.485 74.1481L411.564 74.2264C411.955 74.5393 412.346 74.9305 412.581 75.2434C412.972 75.791 413.754 75.8692 414.223 75.5563C414.771 75.1651 414.928 74.3828 414.536 73.8353C412.894 71.6449 409.686 70.1586 406.088 69.9239C406.01 69.9239 405.931 69.9239 405.853 69.9239C405.54 69.8456 405.227 69.8457 404.836 69.8457C398.813 69.8457 394.119 73.053 394.119 77.1208C394.119 81.1886 398.813 84.396 404.836 84.396C409.373 84.396 413.285 86.5864 413.285 89.2461C413.285 91.9058 409.373 94.0962 404.836 94.0962C402.255 94.0962 399.83 93.3922 398.265 92.2188C398.187 92.2188 398.187 92.1405 398.187 92.1405C397.717 91.8276 397.405 91.4365 397.092 91.1236C396.7 90.576 395.996 90.4195 395.449 90.8107C394.901 91.2018 394.823 91.9841 395.214 92.4534C396.779 94.722 399.986 96.2084 403.663 96.443C403.741 96.443 403.819 96.443 403.897 96.443C404.21 96.443 404.523 96.443 404.836 96.443V96.4431Z" fill="white"/>
<path d="M125.476 2.62665V93.8153C125.476 95.2652 126.654 96.4431 128.104 96.4431C129.554 96.4431 130.731 95.2652 130.731 93.8153V2.62665C130.731 1.17558 129.554 0 128.104 0C126.654 0 125.476 1.17558 125.476 2.62665Z" fill="#f9b253"/>
<path d="M44.781 23.9932C44.1089 23.9932 43.5937 24.3068 43.2352 24.9341L13.731 89.9911C12.5661 92.1418 10.9083 93.2171 8.75766 93.2171C7.99598 93.2171 7.25669 93.0379 6.53981 92.6794C5.15085 92.0522 4.18753 91.0441 3.64987 89.6551C3.11221 88.2661 3.15702 86.8772 3.7843 85.4882L39.4716 6.85521C39.8748 6.00391 40.4797 5.26463 41.2862 4.63736C41.2862 4.59256 41.3086 4.57016 41.3534 4.57016C41.443 4.48054 41.555 4.39094 41.6894 4.30133C41.6894 4.30133 41.6894 4.29012 41.6894 4.26772C41.6894 4.24532 41.6894 4.2341 41.6894 4.2341C41.779 4.1893 41.8911 4.12209 42.0255 4.03249C42.1151 3.98769 42.1823 3.94287 42.2271 3.89807C42.2719 3.89807 42.2943 3.89807 42.2943 3.89807L42.3615 3.83087C42.4511 3.78607 42.5183 3.76367 42.5631 3.76367C42.5631 3.76367 42.5631 3.74127 42.5631 3.69647C42.6079 3.69647 42.6527 3.69647 42.6975 3.69647L42.9664 3.56204C43.056 3.56204 43.1232 3.53964 43.168 3.49484C44.1985 3.1812 45.2514 3.1812 46.3268 3.49484C46.3716 3.49484 46.394 3.51724 46.394 3.56204C46.5732 3.60684 46.7076 3.65167 46.7972 3.69647C46.842 3.69647 46.8644 3.69647 46.8644 3.69647C46.9092 3.74127 46.954 3.76367 46.9988 3.76367C47.1332 3.80847 47.2452 3.87569 47.3349 3.96529C47.3349 3.96529 47.3461 3.96529 47.3685 3.96529C47.3909 3.96529 47.4021 3.96529 47.4021 3.96529C47.7157 4.14451 48.007 4.36854 48.2758 4.63738C48.2758 4.63738 48.2982 4.65978 48.343 4.70458C49.1047 5.28704 49.6647 6.00393 50.0232 6.85523L85.7105 85.4883C86.3377 86.8772 86.3825 88.2662 85.8449 89.6551C85.3072 91.0441 84.3663 92.0522 83.0221 92.6794C82.2605 93.0379 81.4988 93.2171 80.7371 93.2171C78.452 93.1275 76.7942 92.0522 75.7637 89.9911L46.2595 24.9341C45.9011 24.3068 45.4082 23.9932 44.781 23.9932L44.781 23.9932ZM80.7371 96.4431C81.9917 96.4431 83.179 96.1967 84.2991 95.7038C86.4946 94.6733 88.0404 93.0379 88.9365 90.7976C89.7429 88.5574 89.6757 86.3395 88.7348 84.1441L52.9803 5.51105C52.3979 4.25651 51.5466 3.15878 50.4265 2.21788C50.0232 1.81464 49.5752 1.4786 49.0823 1.20976L48.9479 1.14256C48.7687 1.05296 48.5894 0.94094 48.4102 0.80652C48.3654 0.80652 48.3206 0.78412 48.2758 0.73932C48.231 0.73932 48.1862 0.71692 48.1414 0.67212C47.9174 0.58252 47.6933 0.515306 47.4693 0.470506C47.4245 0.425706 47.3797 0.403306 47.3349 0.403306C45.6323 -0.134354 43.9073 -0.134354 42.1599 0.403306C42.0255 0.448106 41.8911 0.492921 41.7567 0.537721L41.6222 0.60492C41.5774 0.60492 41.5102 0.62732 41.4206 0.67212C41.3758 0.67212 41.331 0.69452 41.2862 0.73932C41.1966 0.78412 41.0846 0.828934 40.9502 0.873734L40.883 0.940934C40.7933 0.985734 40.7037 1.03056 40.6141 1.07536C40.4797 1.16496 40.3677 1.23218 40.2781 1.27698C40.0989 1.4114 39.942 1.5234 39.8076 1.61302L39.7404 1.68022C39.5612 1.81464 39.382 1.94905 39.2028 2.08345C37.993 3.02436 37.0969 4.1669 36.5145 5.51105L0.759967 84.1441C-0.180943 86.3395 -0.248155 88.5574 0.558345 90.7976C1.45445 93.0379 3.00022 94.6733 5.19567 95.7038C6.3158 96.1967 7.50315 96.4431 8.75769 96.4431C10.4603 96.4431 12.0285 95.9838 13.4622 95.0653C14.896 94.1468 15.9713 92.9035 16.6882 91.3353L44.781 29.5714L72.8066 91.3353C74.4196 94.6061 77.0631 96.3087 80.7371 96.4431" fill="#f9b253"/>
<path d="M36.1113 81.7246H53.3837C54.9967 81.7246 56.3632 82.2847 57.4834 83.4048C58.6035 84.5249 59.1635 85.8691 59.1635 87.4373C59.1635 89.0502 58.6035 90.4168 57.4834 91.5369C56.3632 92.6571 54.9967 93.2171 53.3837 93.2171H36.1113C34.4983 93.2171 33.1317 92.6571 32.0116 91.5369C30.8915 90.4168 30.3314 89.0502 30.3314 87.4373C30.3314 85.8691 30.8915 84.5249 32.0116 83.4048C33.1318 82.2847 34.4983 81.7246 36.1113 81.7246ZM53.3837 96.4431C55.8928 96.4431 58.021 95.5694 59.7684 93.822C61.5158 92.0746 62.3895 89.9463 62.3895 87.4372C62.3895 84.9729 61.5158 82.8671 59.7684 81.1197C58.021 79.3723 55.8928 78.4986 53.3837 78.4986H36.1113C33.6022 78.4986 31.474 79.3723 29.7266 81.1197C27.9792 82.8671 27.1055 84.9729 27.1055 87.4372C27.1055 89.9463 27.9792 92.0746 29.7266 93.822C31.474 95.5694 33.6022 96.4431 36.1113 96.4431H53.3837Z" fill="#f9b253"/>
</svg>
