<svg width="123" height="120" viewBox="0 0 123 120" fill="none" xmlns="http://www.w3.org/2000/svg">
<path fill-rule="evenodd" clip-rule="evenodd" d="M94.1144 33.9013C106.582 37.6315 114.69 43.7408 114.69 50.63L114.69 50.6361L114.69 50.65C114.69 50.6454 114.69 50.6407 114.69 50.6361C114.688 51.3639 114.596 52.0828 114.417 52.791M94.1144 33.9013C95.1422 29.5555 95.6627 25.5146 95.6617 21.9437C95.6635 15.101 93.7528 9.98063 89.83 7.74001C88.3662 6.92699 86.7143 6.51316 85.04 6.54001C79.47 6.54001 72.43 10.43 65.32 17.16C58.21 10.48 51.19 6.61001 45.63 6.61001C43.9298 6.57244 42.2509 6.99389 40.77 7.83001C38.2648 9.27239 36.5974 11.8887 35.7288 15.3782C34.528 20.1591 34.8327 26.5876 36.5419 33.8854C25.432 37.21 17.8041 42.4186 16.3231 48.3981C16.1446 49.1052 16.0521 49.8231 16.05 50.55C16.0407 53.7355 17.7931 56.7528 20.9218 59.4458C24.5254 62.5656 29.9597 65.2527 36.6363 67.2459C34.4745 76.3923 34.5509 84.1793 37.0082 89.0862C37.9564 90.9876 39.2609 92.4582 40.93 93.41C42.3884 94.2276 44.0384 94.6418 45.71 94.61C51.29 94.61 58.33 90.72 65.44 83.99C72.54 90.67 79.56 94.54 85.13 94.54C86.8295 94.5712 88.5068 94.1502 89.99 93.32C93.8777 91.0816 95.7435 86.0161 95.7417 79.2616C95.7427 75.6961 95.2227 71.6593 94.2044 67.3187C96.1488 66.7263 97.9866 66.078 99.7035 65.3794C107.791 62.1184 113.194 57.7148 114.416 52.7923M89.54 32.67C85.3962 31.7069 81.194 31.0154 76.96 30.6C74.4426 27.0673 71.6945 23.7049 68.7337 20.5346C69.1066 20.1347 69.4985 19.7726 69.9 19.42L69.89 19.46C78.08 12.13 83.2 11.34 85.02 11.34C85.8641 11.3129 86.6999 11.5132 87.44 11.92C90.3 13.55 91.44 19.3 90.53 26.92C90.2986 28.8523 89.9687 30.7717 89.54 32.67ZM47.58 60.81C46.7325 59.3219 45.9141 57.8435 45.1439 56.3652C44.1265 58.9101 43.2386 61.4449 42.5 63.9C45 64.48 47.63 64.97 50.34 65.36C49.34 63.85 48.44 62.32 47.58 60.81ZM50.27 35.8C47.52 36.18 44.87 36.67 42.34 37.26C43.1239 39.7512 44.0369 42.2822 45.079 44.8529C45.8399 43.3546 46.6213 41.9601 47.51 40.39L47.5163 40.3789C48.414 38.7929 49.2724 37.2766 50.27 35.8ZM50.4706 56.2794C49.4454 54.3862 48.4967 52.4931 47.59 50.6H47.554L47.552 50.5958C48.7915 47.9772 50.1541 45.3586 51.64 42.74C53.14 40.12 54.75 37.57 56.41 35.13C59.32 34.91 62.32 34.79 65.41 34.8C68.5 34.81 71.41 34.92 74.3 35.15C75.96 37.57 77.55 40.15 79.05 42.7C79.6909 43.7895 80.3098 44.9008 80.9053 46.0201C81.6942 47.5127 82.4426 49.0209 83.1432 50.4946C81.9149 53.1098 80.5473 55.7348 79.07 58.33C77.59 60.93 75.96 63.51 74.3 65.95C71.39 66.18 68.39 66.29 65.3 66.29C62.21 66.29 59.3 66.16 56.41 65.93C54.75 63.51 53.15 60.99 51.65 58.38C51.2476 57.6798 50.8545 56.9796 50.4706 56.2794ZM80.4538 35.8361C80.656 36.1679 80.8598 36.5028 81.0642 36.84C81.7771 37.9942 82.4865 39.1511 83.16 40.32C84.0238 41.8191 84.8382 43.3084 85.623 44.7976C86.6375 42.2586 87.5132 39.7396 88.25 37.28C85.7734 36.7031 83.1582 36.2153 80.4538 35.8361ZM80.4429 65.2796C81.3979 63.8153 82.3202 62.3055 83.21 60.75H83.1714C83.1809 60.7333 83.1905 60.7167 83.2 60.7C84.0886 59.1466 84.8993 57.6549 85.6319 56.2249C85.684 56.3602 85.736 56.4954 85.788 56.6305C86.7292 59.0756 87.6563 61.4842 88.3187 63.8397C85.8119 64.425 83.1769 64.9017 80.4429 65.2796ZM70.64 30.15C68.91 27.92 67.14 25.84 65.34 23.92C63.54 25.84 61.79 27.93 60.08 30.15C61.83 30.03 63.64 30.03 65.41 30.03C67.18 30.03 68.93 30.08 70.64 30.15ZM45.63 11.36C44.7715 11.3232 43.9187 11.5165 43.16 11.92L43.15 11.96C40.34 13.6 39.14 19.36 40.18 26.91C40.38 28.74 40.74 30.64 41.18 32.58C45.3477 31.6205 49.5732 30.9324 53.83 30.52C56.3284 27.0118 59.0543 23.6713 61.99 20.52L60.82 19.45C57.8584 16.6852 54.4847 14.3978 50.82 12.67C49.1985 11.8811 47.4317 11.4351 45.63 11.36ZM20.83 50.48C20.83 53.3498 24.1779 56.6457 29.7453 59.4319C30.5546 59.8363 31.4106 60.23 32.31 60.61C34.1221 61.3689 35.9711 62.0364 37.85 62.61C39.0853 58.517 40.5851 54.5086 42.34 50.61C40.5535 46.6685 39.0301 42.613 37.78 38.47C35.9354 39.0254 34.1198 39.6728 32.34 40.41C32.1716 40.4801 32.0047 40.5506 31.8394 40.6217L31.8347 40.6236C25.0406 43.5433 20.83 47.2689 20.83 50.48ZM45.5639 89.8326C44.7765 89.8309 44.0012 89.631 43.31 89.25C40.45 87.62 39.31 81.87 40.22 74.25C40.4521 72.3087 40.7855 70.3809 41.219 68.4744C45.3579 69.4269 49.5534 70.1136 53.78 70.53C56.2983 74.0704 59.0511 77.438 62.02 80.61L60.85 81.72C52.66 89.05 47.54 89.83 45.71 89.83C45.6613 89.8316 45.6126 89.8325 45.5639 89.8326ZM65.435 77.2047C65.7114 76.9064 65.9874 76.6043 66.2629 76.2984C66.3302 76.2236 66.3974 76.1487 66.4646 76.0735C67.8919 74.4771 69.3042 72.7786 70.69 70.99C69.3808 71.072 68.0377 71.0932 66.7035 71.0983C66.7001 71.0983 66.6968 71.0983 66.6935 71.0983C66.2509 71.1 65.8092 71.1 65.37 71.1M65.435 77.2047C63.6368 75.2863 61.8683 73.2078 60.13 70.98ZM64.7195 71.0982C64.7122 71.0982 64.7049 71.0981 64.6975 71.0981C63.1567 71.0894 61.6318 71.0497 60.13 70.98M64.7195 71.0982C64.8257 71.0988 64.932 71.0993 65.0384 71.0995ZM65.0384 71.0995C65.1455 71.0999 65.2527 71.1 65.36 71.1ZM85.14 89.8C85.1931 89.8018 85.2462 89.8028 85.2992 89.8028C86.1061 89.802 86.9008 89.5985 87.61 89.21V89.17C88.1619 88.8544 88.6501 88.3838 89.0713 87.7755C89.0728 87.7733 89.0743 87.7711 89.0758 87.7689C90.8258 85.2339 91.4157 80.3146 90.61 74.24C90.4001 72.4107 90.0503 70.5114 89.6105 68.5722C85.4437 69.5363 81.2176 70.2237 76.96 70.63C74.4649 74.138 71.7424 77.4785 68.81 80.63L69.98 81.7C78.14 89 83.32 89.8 85.14 89.8ZM92.98 62.7C94.9 62.12 96.71 61.47 98.42 60.77L98.41 60.73C103.204 58.7382 106.772 56.3634 108.586 54.0181C109.453 52.8819 109.917 51.7555 109.92 50.69C109.924 49.2582 109.092 47.7202 107.565 46.1925C105.583 44.2133 102.438 42.2515 98.44 40.56C96.628 39.8011 94.779 39.1336 92.9 38.56C91.8097 42.1782 90.5113 45.73 89.0116 49.1977C88.8151 49.6545 88.6152 50.1099 88.4118 50.5638C90.1993 54.5045 91.7254 58.5587 92.98 62.7ZM70.4418 58.2085C68.9311 59.2155 67.1557 59.752 65.34 59.75C64.1341 59.75 62.94 59.5122 61.8262 59.0501C60.7123 58.588 59.7005 57.9108 58.8488 57.0571C57.997 56.2035 57.322 55.1902 56.8623 54.0754C56.4026 52.9605 56.1674 51.7659 56.17 50.56C56.172 48.7444 56.7123 46.9701 57.7227 45.4616C58.0543 44.9665 58.4316 44.5073 58.8483 44.0892C57.9979 44.9372 57.3179 45.948 56.8526 47.0677C56.156 48.7444 55.9722 50.59 56.3245 52.3711C56.6767 54.1523 57.5493 55.7889 58.8317 57.0742C60.1142 58.3594 61.7489 59.2355 63.5293 59.5917C65.3096 59.9478 67.1556 59.768 68.8338 59.075C69.9282 58.6231 70.919 57.966 71.7562 57.1452C71.3536 57.5375 70.9139 57.8937 70.4418 58.2085ZM71.8325 57.07C72.6825 56.2222 73.3623 55.2117 73.8274 54.0923C74.524 52.4156 74.7078 50.57 74.3556 48.7889C74.1866 47.9347 73.8978 47.114 73.5017 46.3491C73.4903 46.3268 73.4788 46.3047 73.4673 46.2826C73.0425 45.4698 72.4974 44.7238 71.8491 44.0705C70.9966 43.2116 69.9826 42.5299 68.8655 42.0647C67.7483 41.5995 66.5502 41.36 65.34 41.36V41.39C64.147 41.3913 62.9597 41.6252 61.8462 42.085C60.7518 42.5369 59.7611 43.1941 58.9239 44.0148C59.3265 43.6225 59.7661 43.2663 60.2382 42.9516C61.7489 41.9445 63.5244 41.408 65.34 41.41V41.39C65.3832 41.39 65.4264 41.3902 65.4696 41.3908C66.0316 41.3981 66.5944 41.4571 67.1507 41.5684C68.9311 41.9245 70.5659 42.8006 71.8483 44.0858C72.4979 44.7369 73.0424 45.4781 73.4673 46.2826C73.4788 46.3047 73.4903 46.3268 73.5017 46.3491C73.622 46.5839 73.7323 46.8242 73.8322 47.0693C74.2889 48.1899 74.5193 49.3899 74.51 50.6C74.508 52.4156 73.9677 54.1899 72.9574 55.6985C72.626 56.1933 72.2489 56.6522 71.8325 57.07ZM9.12002 101.13V0.00999069L121.64 0.0100174V101.13H9.12002ZM9.12002 101.13H121.64V0.0100174L9.12002 0.00999069V101.13Z" fill="#09D3AC"/>
<path d="M55.492 45.416C55.696 45.296 56.002 45.182 56.41 45.074C56.83 44.966 57.25 44.912 57.67 44.912C58.27 44.912 58.798 45.002 59.254 45.182C59.722 45.35 60.022 45.62 60.154 45.992C60.37 46.616 60.604 47.342 60.856 48.17C61.108 48.998 61.36 49.856 61.612 50.744C61.864 51.62 62.11 52.49 62.35 53.354C62.59 54.206 62.8 54.962 62.98 55.622C62.836 55.79 62.62 55.922 62.332 56.018C62.044 56.126 61.702 56.18 61.306 56.18C61.018 56.18 60.772 56.156 60.568 56.108C60.376 56.06 60.214 55.988 60.082 55.892C59.962 55.796 59.86 55.67 59.776 55.514C59.704 55.358 59.638 55.178 59.578 54.974L59.254 53.732H55.996C55.9 54.092 55.804 54.464 55.708 54.848C55.612 55.232 55.516 55.604 55.42 55.964C55.252 56.024 55.072 56.072 54.88 56.108C54.7 56.156 54.478 56.18 54.214 56.18C53.602 56.18 53.146 56.078 52.846 55.874C52.558 55.658 52.414 55.364 52.414 54.992C52.414 54.824 52.438 54.656 52.486 54.488C52.534 54.32 52.588 54.122 52.648 53.894C52.732 53.57 52.846 53.168 52.99 52.688C53.146 52.208 53.314 51.692 53.494 51.14C53.674 50.576 53.866 50 54.07 49.412C54.274 48.824 54.466 48.272 54.646 47.756C54.826 47.228 54.988 46.76 55.132 46.352C55.288 45.944 55.408 45.632 55.492 45.416ZM57.652 47.738C57.484 48.242 57.292 48.806 57.076 49.43C56.872 50.042 56.686 50.666 56.518 51.302H58.75C58.582 50.654 58.408 50.024 58.228 49.412C58.06 48.788 57.904 48.23 57.76 47.738H57.652ZM64.0327 54.542C64.0327 54.038 64.1887 53.618 64.5007 53.282C64.8127 52.946 65.2387 52.778 65.7787 52.778C66.3187 52.778 66.7447 52.946 67.0567 53.282C67.3687 53.618 67.5247 54.038 67.5247 54.542C67.5247 55.046 67.3687 55.466 67.0567 55.802C66.7447 56.138 66.3187 56.306 65.7787 56.306C65.2387 56.306 64.8127 56.138 64.5007 55.802C64.1887 55.466 64.0327 55.046 64.0327 54.542ZM72.1918 51.662C71.6638 51.482 71.1838 51.302 70.7518 51.122C70.3198 50.93 69.9478 50.702 69.6358 50.438C69.3238 50.174 69.0778 49.862 68.8978 49.502C68.7298 49.13 68.6458 48.68 68.6458 48.152C68.6458 47.132 69.0358 46.316 69.8158 45.704C70.6078 45.092 71.7118 44.786 73.1278 44.786C73.6438 44.786 74.1238 44.822 74.5678 44.894C75.0118 44.966 75.3898 45.08 75.7018 45.236C76.0258 45.38 76.2778 45.572 76.4578 45.812C76.6378 46.04 76.7278 46.31 76.7278 46.622C76.7278 46.934 76.6558 47.204 76.5118 47.432C76.3678 47.648 76.1938 47.834 75.9898 47.99C75.7258 47.822 75.3718 47.678 74.9278 47.558C74.4838 47.426 73.9978 47.36 73.4698 47.36C72.9298 47.36 72.5338 47.438 72.2818 47.594C72.0298 47.738 71.9038 47.924 71.9038 48.152C71.9038 48.332 71.9818 48.482 72.1378 48.602C72.2938 48.71 72.5278 48.812 72.8398 48.908L73.7938 49.214C74.9218 49.574 75.7858 50.036 76.3858 50.6C76.9978 51.152 77.3038 51.908 77.3038 52.868C77.3038 53.888 76.9018 54.716 76.0978 55.352C75.2938 55.976 74.1118 56.288 72.5518 56.288C71.9998 56.288 71.4838 56.24 71.0038 56.144C70.5358 56.06 70.1218 55.934 69.7618 55.766C69.4138 55.586 69.1378 55.37 68.9338 55.118C68.7418 54.854 68.6458 54.554 68.6458 54.218C68.6458 53.87 68.7478 53.576 68.9518 53.336C69.1558 53.084 69.3778 52.892 69.6178 52.76C69.9538 53.024 70.3618 53.252 70.8418 53.444C71.3338 53.636 71.8678 53.732 72.4438 53.732C73.0318 53.732 73.4458 53.642 73.6858 53.462C73.9258 53.282 74.0458 53.072 74.0458 52.832C74.0458 52.592 73.9498 52.412 73.7578 52.292C73.5658 52.16 73.2958 52.034 72.9478 51.914L72.1918 51.662Z" fill="#09D3AC"/>
</svg>
