<svg width="289" height="110" viewBox="0 0 289 110" fill="none" xmlns="http://www.w3.org/2000/svg">
<path d="M136.984 6.832C137.392 6.592 138.004 6.364 138.82 6.148C139.66 5.932 140.5 5.824 141.34 5.824C142.54 5.824 143.596 6.004 144.508 6.364C145.444 6.7 146.044 7.24 146.308 7.984C146.74 9.232 147.208 10.684 147.712 12.34C148.216 13.996 148.72 15.712 149.224 17.488C149.728 19.24 150.22 20.98 150.7 22.708C151.18 24.412 151.6 25.924 151.96 27.244C151.672 27.58 151.24 27.844 150.664 28.036C150.088 28.252 149.404 28.36 148.612 28.36C148.036 28.36 147.544 28.312 147.136 28.216C146.752 28.12 146.428 27.976 146.164 27.784C145.924 27.592 145.72 27.34 145.552 27.028C145.408 26.716 145.276 26.356 145.156 25.948L144.508 23.464H137.992C137.8 24.184 137.608 24.928 137.416 25.696C137.224 26.464 137.032 27.208 136.84 27.928C136.504 28.048 136.144 28.144 135.76 28.216C135.4 28.312 134.956 28.36 134.428 28.36C133.204 28.36 132.292 28.156 131.692 27.748C131.116 27.316 130.828 26.728 130.828 25.984C130.828 25.648 130.876 25.312 130.972 24.976C131.068 24.64 131.176 24.244 131.296 23.788C131.464 23.14 131.692 22.336 131.98 21.376C132.292 20.416 132.628 19.384 132.988 18.28C133.348 17.152 133.732 16 134.14 14.824C134.548 13.648 134.932 12.544 135.292 11.512C135.652 10.456 135.976 9.52 136.264 8.704C136.576 7.888 136.816 7.264 136.984 6.832ZM141.304 11.476C140.968 12.484 140.584 13.612 140.152 14.86C139.744 16.084 139.372 17.332 139.036 18.604H143.5C143.164 17.308 142.816 16.048 142.456 14.824C142.12 13.576 141.808 12.46 141.52 11.476H141.304ZM162.83 9.964C163.814 9.964 164.774 10.108 165.71 10.396C166.67 10.66 167.498 11.068 168.194 11.62C168.914 11.14 169.718 10.744 170.606 10.432C171.518 10.12 172.61 9.964 173.882 9.964C174.794 9.964 175.682 10.084 176.546 10.324C177.434 10.564 178.214 10.948 178.886 11.476C179.582 11.98 180.134 12.664 180.542 13.528C180.95 14.368 181.154 15.4 181.154 16.624V27.964C180.914 28.036 180.53 28.108 180.002 28.18C179.498 28.252 178.97 28.288 178.418 28.288C177.89 28.288 177.41 28.252 176.978 28.18C176.57 28.108 176.222 27.964 175.934 27.748C175.646 27.532 175.418 27.244 175.25 26.884C175.106 26.5 175.034 26.008 175.034 25.408V16.804C175.034 16.084 174.83 15.568 174.422 15.256C174.014 14.92 173.462 14.752 172.766 14.752C172.43 14.752 172.07 14.836 171.686 15.004C171.302 15.148 171.014 15.304 170.822 15.472C170.846 15.568 170.858 15.664 170.858 15.76C170.858 15.832 170.858 15.904 170.858 15.976V27.964C170.594 28.036 170.198 28.108 169.67 28.18C169.166 28.252 168.65 28.288 168.122 28.288C167.594 28.288 167.114 28.252 166.682 28.18C166.274 28.108 165.926 27.964 165.638 27.748C165.35 27.532 165.122 27.244 164.954 26.884C164.81 26.5 164.738 26.008 164.738 25.408V16.804C164.738 16.084 164.51 15.568 164.054 15.256C163.622 14.92 163.094 14.752 162.47 14.752C162.038 14.752 161.666 14.824 161.354 14.968C161.042 15.088 160.778 15.208 160.562 15.328V27.964C160.322 28.036 159.938 28.108 159.41 28.18C158.906 28.252 158.378 28.288 157.826 28.288C157.298 28.288 156.818 28.252 156.386 28.18C155.978 28.108 155.63 27.964 155.342 27.748C155.054 27.532 154.826 27.244 154.658 26.884C154.514 26.5 154.442 26.008 154.442 25.408V14.536C154.442 13.888 154.574 13.372 154.838 12.988C155.126 12.604 155.51 12.244 155.99 11.908C156.806 11.332 157.814 10.864 159.014 10.504C160.238 10.144 161.51 9.964 162.83 9.964ZM192.376 24.112C192.784 24.112 193.228 24.076 193.708 24.004C194.212 23.908 194.584 23.788 194.824 23.644V20.764L192.232 20.98C191.56 21.028 191.008 21.172 190.576 21.412C190.144 21.652 189.928 22.012 189.928 22.492C189.928 22.972 190.108 23.368 190.468 23.68C190.852 23.968 191.488 24.112 192.376 24.112ZM192.088 9.964C193.384 9.964 194.56 10.096 195.616 10.36C196.696 10.624 197.608 11.032 198.352 11.584C199.12 12.112 199.708 12.796 200.116 13.636C200.524 14.452 200.728 15.424 200.728 16.552V24.616C200.728 25.24 200.548 25.756 200.188 26.164C199.852 26.548 199.444 26.884 198.964 27.172C197.404 28.108 195.208 28.576 192.376 28.576C191.104 28.576 189.952 28.456 188.92 28.216C187.912 27.976 187.036 27.616 186.292 27.136C185.572 26.656 185.008 26.044 184.6 25.3C184.216 24.556 184.024 23.692 184.024 22.708C184.024 21.052 184.516 19.78 185.5 18.892C186.484 18.004 188.008 17.452 190.072 17.236L194.788 16.732V16.48C194.788 15.784 194.476 15.292 193.852 15.004C193.252 14.692 192.376 14.536 191.224 14.536C190.312 14.536 189.424 14.632 188.56 14.824C187.696 15.016 186.916 15.256 186.22 15.544C185.908 15.328 185.644 15.004 185.428 14.572C185.212 14.116 185.104 13.648 185.104 13.168C185.104 12.544 185.248 12.052 185.536 11.692C185.848 11.308 186.316 10.984 186.94 10.72C187.636 10.456 188.452 10.264 189.388 10.144C190.348 10.024 191.248 9.964 192.088 9.964ZM210.59 27.964C210.35 28.036 209.966 28.108 209.438 28.18C208.934 28.252 208.406 28.288 207.854 28.288C207.326 28.288 206.846 28.252 206.414 28.18C206.006 28.108 205.658 27.964 205.37 27.748C205.082 27.532 204.854 27.244 204.686 26.884C204.542 26.5 204.47 26.008 204.47 25.408V14.608C204.47 14.056 204.566 13.588 204.758 13.204C204.974 12.796 205.274 12.436 205.658 12.124C206.042 11.812 206.51 11.536 207.062 11.296C207.638 11.032 208.25 10.804 208.898 10.612C209.546 10.42 210.218 10.276 210.914 10.18C211.61 10.06 212.306 10 213.002 10C214.154 10 215.066 10.228 215.738 10.684C216.41 11.116 216.746 11.836 216.746 12.844C216.746 13.18 216.698 13.516 216.602 13.852C216.506 14.164 216.386 14.452 216.242 14.716C215.738 14.716 215.222 14.74 214.694 14.788C214.166 14.836 213.65 14.908 213.146 15.004C212.642 15.1 212.162 15.208 211.706 15.328C211.274 15.424 210.902 15.544 210.59 15.688V27.964ZM226.231 24.112C226.639 24.112 227.083 24.076 227.563 24.004C228.067 23.908 228.439 23.788 228.679 23.644V20.764L226.087 20.98C225.415 21.028 224.863 21.172 224.431 21.412C223.999 21.652 223.783 22.012 223.783 22.492C223.783 22.972 223.963 23.368 224.323 23.68C224.707 23.968 225.343 24.112 226.231 24.112ZM225.943 9.964C227.239 9.964 228.415 10.096 229.471 10.36C230.551 10.624 231.463 11.032 232.207 11.584C232.975 12.112 233.563 12.796 233.971 13.636C234.379 14.452 234.583 15.424 234.583 16.552V24.616C234.583 25.24 234.403 25.756 234.043 26.164C233.707 26.548 233.299 26.884 232.819 27.172C231.259 28.108 229.063 28.576 226.231 28.576C224.959 28.576 223.807 28.456 222.775 28.216C221.767 27.976 220.891 27.616 220.147 27.136C219.427 26.656 218.863 26.044 218.455 25.3C218.071 24.556 217.879 23.692 217.879 22.708C217.879 21.052 218.371 19.78 219.355 18.892C220.339 18.004 221.863 17.452 223.927 17.236L228.643 16.732V16.48C228.643 15.784 228.331 15.292 227.707 15.004C227.107 14.692 226.231 14.536 225.079 14.536C224.167 14.536 223.279 14.632 222.415 14.824C221.551 15.016 220.771 15.256 220.075 15.544C219.763 15.328 219.499 15.004 219.283 14.572C219.067 14.116 218.959 13.648 218.959 13.168C218.959 12.544 219.103 12.052 219.391 11.692C219.703 11.308 220.171 10.984 220.795 10.72C221.491 10.456 222.307 10.264 223.243 10.144C224.203 10.024 225.103 9.964 225.943 9.964ZM244.553 27.964C244.289 28.012 243.893 28.072 243.365 28.144C242.861 28.24 242.345 28.288 241.817 28.288C241.289 28.288 240.809 28.252 240.377 28.18C239.969 28.108 239.621 27.964 239.333 27.748C239.045 27.532 238.817 27.244 238.649 26.884C238.505 26.5 238.433 26.008 238.433 25.408V4.528C238.697 4.48 239.081 4.42 239.585 4.348C240.113 4.252 240.641 4.204 241.169 4.204C241.697 4.204 242.165 4.24 242.573 4.312C243.005 4.384 243.365 4.528 243.653 4.744C243.941 4.96 244.157 5.26 244.301 5.644C244.469 6.004 244.553 6.484 244.553 7.084V27.964ZM138.532 73.324C137.476 72.964 136.516 72.604 135.652 72.244C134.788 71.86 134.044 71.404 133.42 70.876C132.796 70.348 132.304 69.724 131.944 69.004C131.608 68.26 131.44 67.36 131.44 66.304C131.44 64.264 132.22 62.632 133.78 61.408C135.364 60.184 137.572 59.572 140.404 59.572C141.436 59.572 142.396 59.644 143.284 59.788C144.172 59.932 144.928 60.16 145.552 60.472C146.2 60.76 146.704 61.144 147.064 61.624C147.424 62.08 147.604 62.62 147.604 63.244C147.604 63.868 147.46 64.408 147.172 64.864C146.884 65.296 146.536 65.668 146.128 65.98C145.6 65.644 144.892 65.356 144.004 65.116C143.116 64.852 142.144 64.72 141.088 64.72C140.008 64.72 139.216 64.876 138.712 65.188C138.208 65.476 137.956 65.848 137.956 66.304C137.956 66.664 138.112 66.964 138.424 67.204C138.736 67.42 139.204 67.624 139.828 67.816L141.736 68.428C143.992 69.148 145.72 70.072 146.92 71.2C148.144 72.304 148.756 73.816 148.756 75.736C148.756 77.776 147.952 79.432 146.344 80.704C144.736 81.952 142.372 82.576 139.252 82.576C138.148 82.576 137.116 82.48 136.156 82.288C135.22 82.12 134.392 81.868 133.672 81.532C132.976 81.172 132.424 80.74 132.016 80.236C131.632 79.708 131.44 79.108 131.44 78.436C131.44 77.74 131.644 77.152 132.052 76.672C132.46 76.168 132.904 75.784 133.384 75.52C134.056 76.048 134.872 76.504 135.832 76.888C136.816 77.272 137.884 77.464 139.036 77.464C140.212 77.464 141.04 77.284 141.52 76.924C142 76.564 142.24 76.144 142.24 75.664C142.24 75.184 142.048 74.824 141.664 74.584C141.28 74.32 140.74 74.068 140.044 73.828L138.532 73.324ZM169.878 73.252C169.878 74.74 169.65 76.072 169.194 77.248C168.738 78.4 168.09 79.372 167.25 80.164C166.434 80.956 165.45 81.556 164.298 81.964C163.146 82.372 161.862 82.576 160.446 82.576C159.03 82.576 157.746 82.36 156.594 81.928C155.442 81.496 154.446 80.884 153.606 80.092C152.79 79.276 152.154 78.292 151.698 77.14C151.242 75.988 151.014 74.692 151.014 73.252C151.014 71.836 151.242 70.552 151.698 69.4C152.154 68.248 152.79 67.276 153.606 66.484C154.446 65.668 155.442 65.044 156.594 64.612C157.746 64.18 159.03 63.964 160.446 63.964C161.862 63.964 163.146 64.192 164.298 64.648C165.45 65.08 166.434 65.704 167.25 66.52C168.09 67.312 168.738 68.284 169.194 69.436C169.65 70.588 169.878 71.86 169.878 73.252ZM157.278 73.252C157.278 74.716 157.554 75.844 158.106 76.636C158.682 77.404 159.474 77.788 160.482 77.788C161.49 77.788 162.258 77.392 162.786 76.6C163.338 75.808 163.614 74.692 163.614 73.252C163.614 71.812 163.338 70.708 162.786 69.94C162.234 69.148 161.454 68.752 160.446 68.752C159.438 68.752 158.658 69.148 158.106 69.94C157.554 70.708 157.278 71.812 157.278 73.252ZM179.092 81.964C178.828 82.012 178.432 82.072 177.904 82.144C177.4 82.24 176.884 82.288 176.356 82.288C175.828 82.288 175.348 82.252 174.916 82.18C174.508 82.108 174.16 81.964 173.872 81.748C173.584 81.532 173.356 81.244 173.188 80.884C173.044 80.5 172.972 80.008 172.972 79.408V58.528C173.236 58.48 173.62 58.42 174.124 58.348C174.652 58.252 175.18 58.204 175.708 58.204C176.236 58.204 176.704 58.24 177.112 58.312C177.544 58.384 177.904 58.528 178.192 58.744C178.48 58.96 178.696 59.26 178.84 59.644C179.008 60.004 179.092 60.484 179.092 61.084V81.964ZM182.954 64.756C183.194 64.684 183.566 64.612 184.07 64.54C184.598 64.468 185.138 64.432 185.69 64.432C186.218 64.432 186.686 64.468 187.094 64.54C187.526 64.612 187.886 64.756 188.174 64.972C188.462 65.188 188.678 65.488 188.822 65.872C188.99 66.232 189.074 66.712 189.074 67.312V75.052C189.074 76.036 189.314 76.744 189.794 77.176C190.274 77.584 190.97 77.788 191.882 77.788C192.434 77.788 192.878 77.74 193.214 77.644C193.574 77.548 193.85 77.452 194.042 77.356V64.756C194.282 64.684 194.654 64.612 195.158 64.54C195.686 64.468 196.226 64.432 196.778 64.432C197.306 64.432 197.774 64.468 198.182 64.54C198.614 64.612 198.974 64.756 199.262 64.972C199.55 65.188 199.766 65.488 199.91 65.872C200.078 66.232 200.162 66.712 200.162 67.312V78.256C200.162 79.456 199.658 80.356 198.65 80.956C197.81 81.484 196.802 81.88 195.626 82.144C194.474 82.432 193.214 82.576 191.846 82.576C190.55 82.576 189.35 82.432 188.246 82.144C187.166 81.856 186.23 81.412 185.438 80.812C184.646 80.212 184.034 79.444 183.602 78.508C183.17 77.548 182.954 76.396 182.954 75.052V64.756ZM210.027 75.988C210.027 76.612 210.219 77.056 210.603 77.32C211.011 77.584 211.575 77.716 212.295 77.716C212.655 77.716 213.027 77.692 213.411 77.644C213.795 77.572 214.131 77.488 214.419 77.392C214.635 77.656 214.815 77.956 214.959 78.292C215.127 78.604 215.211 78.988 215.211 79.444C215.211 80.356 214.863 81.1 214.167 81.676C213.495 82.252 212.295 82.54 210.567 82.54C208.455 82.54 206.823 82.06 205.671 81.1C204.543 80.14 203.979 78.58 203.979 76.42V61.012C204.243 60.94 204.615 60.868 205.095 60.796C205.599 60.7 206.127 60.652 206.679 60.652C207.735 60.652 208.551 60.844 209.127 61.228C209.727 61.588 210.027 62.368 210.027 63.568V65.872H214.743C214.887 66.136 215.019 66.472 215.139 66.88C215.283 67.264 215.355 67.696 215.355 68.176C215.355 69.016 215.163 69.628 214.779 70.012C214.419 70.372 213.927 70.552 213.303 70.552H210.027V75.988ZM218.177 59.644C218.177 58.732 218.477 57.964 219.077 57.34C219.701 56.716 220.517 56.404 221.525 56.404C222.533 56.404 223.337 56.716 223.937 57.34C224.561 57.964 224.873 58.732 224.873 59.644C224.873 60.556 224.561 61.324 223.937 61.948C223.337 62.572 222.533 62.884 221.525 62.884C220.517 62.884 219.701 62.572 219.077 61.948C218.477 61.324 218.177 60.556 218.177 59.644ZM224.585 81.964C224.321 82.012 223.925 82.072 223.397 82.144C222.893 82.24 222.377 82.288 221.849 82.288C221.321 82.288 220.841 82.252 220.409 82.18C220.001 82.108 219.653 81.964 219.365 81.748C219.077 81.532 218.849 81.244 218.681 80.884C218.537 80.5 218.465 80.008 218.465 79.408V64.756C218.729 64.708 219.113 64.648 219.617 64.576C220.145 64.48 220.673 64.432 221.201 64.432C221.729 64.432 222.197 64.468 222.605 64.54C223.037 64.612 223.397 64.756 223.685 64.972C223.973 65.188 224.189 65.488 224.333 65.872C224.501 66.232 224.585 66.712 224.585 67.312V81.964ZM246.589 73.252C246.589 74.74 246.361 76.072 245.905 77.248C245.449 78.4 244.801 79.372 243.961 80.164C243.145 80.956 242.161 81.556 241.009 81.964C239.857 82.372 238.573 82.576 237.157 82.576C235.741 82.576 234.457 82.36 233.305 81.928C232.153 81.496 231.157 80.884 230.317 80.092C229.501 79.276 228.865 78.292 228.409 77.14C227.953 75.988 227.725 74.692 227.725 73.252C227.725 71.836 227.953 70.552 228.409 69.4C228.865 68.248 229.501 67.276 230.317 66.484C231.157 65.668 232.153 65.044 233.305 64.612C234.457 64.18 235.741 63.964 237.157 63.964C238.573 63.964 239.857 64.192 241.009 64.648C242.161 65.08 243.145 65.704 243.961 66.52C244.801 67.312 245.449 68.284 245.905 69.436C246.361 70.588 246.589 71.86 246.589 73.252ZM233.989 73.252C233.989 74.716 234.265 75.844 234.817 76.636C235.393 77.404 236.185 77.788 237.193 77.788C238.201 77.788 238.969 77.392 239.497 76.6C240.049 75.808 240.325 74.692 240.325 73.252C240.325 71.812 240.049 70.708 239.497 69.94C238.945 69.148 238.165 68.752 237.157 68.752C236.149 68.752 235.369 69.148 234.817 69.94C234.265 70.708 233.989 71.812 233.989 73.252ZM260.663 70.912C260.663 70.168 260.447 69.628 260.015 69.292C259.607 68.932 259.043 68.752 258.323 68.752C257.843 68.752 257.363 68.812 256.883 68.932C256.427 69.052 256.031 69.232 255.695 69.472V81.964C255.455 82.036 255.071 82.108 254.543 82.18C254.039 82.252 253.511 82.288 252.959 82.288C252.431 82.288 251.951 82.252 251.519 82.18C251.111 82.108 250.763 81.964 250.475 81.748C250.187 81.532 249.959 81.244 249.791 80.884C249.647 80.5 249.575 80.008 249.575 79.408V68.608C249.575 67.96 249.707 67.432 249.971 67.024C250.259 66.616 250.643 66.244 251.123 65.908C251.939 65.332 252.959 64.864 254.183 64.504C255.431 64.144 256.811 63.964 258.323 63.964C261.035 63.964 263.123 64.564 264.587 65.764C266.051 66.94 266.783 68.584 266.783 70.696V81.964C266.543 82.036 266.159 82.108 265.631 82.18C265.127 82.252 264.599 82.288 264.047 82.288C263.519 82.288 263.039 82.252 262.607 82.18C262.199 82.108 261.851 81.964 261.563 81.748C261.275 81.532 261.047 81.244 260.879 80.884C260.735 80.5 260.663 80.008 260.663 79.408V70.912ZM285.323 76.78C285.323 78.604 284.639 80.032 283.271 81.064C281.903 82.096 279.887 82.612 277.223 82.612C276.215 82.612 275.279 82.54 274.415 82.396C273.551 82.252 272.807 82.036 272.183 81.748C271.583 81.436 271.103 81.052 270.743 80.596C270.407 80.14 270.239 79.6 270.239 78.976C270.239 78.4 270.359 77.92 270.599 77.536C270.839 77.128 271.127 76.792 271.463 76.528C272.159 76.912 272.951 77.26 273.839 77.572C274.751 77.86 275.795 78.004 276.971 78.004C277.715 78.004 278.279 77.896 278.663 77.68C279.071 77.464 279.275 77.176 279.275 76.816C279.275 76.48 279.131 76.216 278.843 76.024C278.555 75.832 278.075 75.676 277.403 75.556L276.323 75.34C274.235 74.932 272.675 74.296 271.643 73.432C270.635 72.544 270.131 71.284 270.131 69.652C270.131 68.764 270.323 67.96 270.707 67.24C271.091 66.52 271.631 65.92 272.327 65.44C273.023 64.96 273.851 64.588 274.811 64.324C275.795 64.06 276.875 63.928 278.051 63.928C278.939 63.928 279.767 64 280.535 64.144C281.327 64.264 282.011 64.456 282.587 64.72C283.163 64.984 283.619 65.332 283.955 65.764C284.291 66.172 284.459 66.664 284.459 67.24C284.459 67.792 284.351 68.272 284.135 68.68C283.943 69.064 283.691 69.388 283.379 69.652C283.187 69.532 282.899 69.412 282.515 69.292C282.131 69.148 281.711 69.028 281.255 68.932C280.799 68.812 280.331 68.716 279.851 68.644C279.395 68.572 278.975 68.536 278.591 68.536C277.799 68.536 277.187 68.632 276.755 68.824C276.323 68.992 276.107 69.268 276.107 69.652C276.107 69.916 276.227 70.132 276.467 70.3C276.707 70.468 277.163 70.624 277.835 70.768L278.951 71.02C281.255 71.548 282.887 72.28 283.847 73.216C284.831 74.128 285.323 75.316 285.323 76.78Z" fill="#09D3AC"/>
<path d="M113.361 48.3554C113.361 41.7736 105.614 35.937 93.7016 32.3738C96.5674 20.2707 95.316 10.6416 89.6131 7.38417C88.2148 6.60753 86.6368 6.21221 85.0374 6.23786C79.7166 6.23786 72.9916 9.95383 66.1997 16.3827C59.4077 10.0016 52.7018 6.30473 47.3905 6.30473C45.7664 6.26884 44.1626 6.67144 42.748 7.47015C37.0737 10.7371 35.8987 20.3089 38.7263 32.3547C26.8715 35.8987 19.1626 41.6876 19.1434 48.2407C19.1243 54.7938 26.9002 60.6591 38.8123 64.2127C35.9465 76.3254 37.1883 85.9449 42.9008 89.2024C44.294 89.9833 45.8701 90.379 47.467 90.3487C52.7973 90.3487 59.5224 86.6327 66.3143 80.2038C73.0966 86.5849 79.8026 90.2818 85.1234 90.2818C86.7468 90.3116 88.3491 89.9094 89.766 89.1164C95.4402 85.8494 96.6056 76.2777 93.7876 64.2796C105.642 60.6878 113.351 54.8989 113.361 48.3554ZM70.5747 18.5416C78.3983 11.5396 83.2893 10.7849 85.0279 10.7849C85.8342 10.759 86.6326 10.9504 87.3396 11.339C90.0716 12.896 91.1606 18.3888 90.2914 25.6679C90.0687 27.5268 89.7498 29.3729 89.3361 31.1989C85.3777 30.2788 81.3634 29.6183 77.3189 29.2215C74.9104 25.8417 72.2809 22.6249 69.4475 19.5924C69.801 19.239 70.1831 18.8855 70.5747 18.5416ZM46.8938 53.7717C47.6389 55.2046 48.4318 56.6375 49.2533 58.0799C50.0748 59.5224 50.9346 60.9839 51.8898 62.4264C49.3011 62.0538 46.7887 61.5857 44.4006 61.0317C45.0693 58.6053 45.9194 56.2172 46.8938 53.7717ZM44.2477 35.5835C46.6645 35.0199 49.196 34.5518 51.823 34.1888C50.8677 35.6026 50.0462 37.0546 49.1864 38.5735C48.3267 40.0923 47.572 41.4393 46.8365 42.8913C45.8621 40.4076 44.9992 37.9717 44.2477 35.5835ZM49.2246 48.3267C50.4092 45.8239 51.7115 43.3211 53.1317 40.8183C54.5646 38.3156 56.1025 35.8796 57.6883 33.5488C60.4681 33.3386 63.3339 33.224 66.2856 33.2336C69.2374 33.2431 72.0172 33.3482 74.7779 33.5679C76.3636 35.8796 77.8825 38.3442 79.3154 40.7801C80.7483 43.216 82.0666 45.7666 83.2511 48.2598C82.0761 50.7626 80.7674 53.275 79.3536 55.7586C77.9398 58.2423 76.3827 60.7069 74.797 63.0377C72.0172 63.2574 69.1514 63.3625 66.1997 63.3625C63.2479 63.3625 60.4681 63.2383 57.7074 63.0186C56.1216 60.7069 54.5932 58.2996 53.1603 55.8064C51.7274 53.3132 50.4569 50.8199 49.2629 48.3267H49.2246ZM80.6145 34.2175C83.2129 34.5805 85.7252 35.0486 88.1038 35.6026C87.3969 37.9621 86.5563 40.3789 85.5819 42.8148C84.8273 41.3819 84.0439 39.9491 83.2129 38.5066C82.3818 37.0642 81.5029 35.6122 80.6528 34.2175H80.6145ZM83.2511 58.0226C84.0726 56.577 84.8559 55.1345 85.601 53.6953C86.5563 56.179 87.5115 58.6244 88.1802 61.0126C85.773 61.5762 83.2415 62.0347 80.6145 62.3977C81.538 60.9839 82.4296 59.5256 83.2893 58.0226H83.2511ZM66.2188 22.8403C67.9382 24.6744 69.629 26.6614 71.2816 28.7916C69.6481 28.7247 67.9764 28.677 66.2856 28.677C64.5948 28.677 62.8658 28.677 61.1941 28.7916C62.8276 26.6709 64.4993 24.6744 66.2188 22.8403ZM45.031 11.3772C45.7558 10.9917 46.5704 10.807 47.3905 10.8422C49.1116 10.9139 50.7994 11.34 52.3484 12.0936C55.8491 13.7441 59.0718 15.9291 61.901 18.5703L63.0186 19.5924C60.2142 22.6028 57.6103 25.7938 55.2237 29.145C51.1573 29.539 47.1208 30.1963 43.1396 31.1129C42.7193 29.2597 42.3754 27.4447 42.1844 25.6965C41.1909 18.4843 42.3372 12.982 45.0215 11.4154L45.031 11.3772ZM39.9777 59.809C38.1828 59.261 36.4166 58.6234 34.6856 57.8984C27.9032 55.0326 23.7 51.3549 23.7 48.2121C23.7 45.0693 27.9223 41.4106 34.6951 38.5926C36.3953 37.8884 38.1296 37.2699 39.8917 36.7394C41.0859 40.697 42.5411 44.5711 44.2477 48.3363C42.5774 52.064 41.1511 55.8963 39.9777 59.809ZM61.9487 78.0545C54.1251 85.0565 49.2342 85.8016 47.4861 85.8016C46.6797 85.8285 45.881 85.6371 45.1743 85.2476C42.4423 83.6905 41.3533 78.1977 42.2226 70.9186C42.4444 69.0628 42.7633 67.2198 43.1778 65.3972C47.1374 66.3093 51.1514 66.9666 55.195 67.3651C57.6006 70.7471 60.2303 73.964 63.0664 76.9941L61.9487 78.0545ZM66.3143 73.7462C64.5948 71.9121 62.904 69.9252 61.2418 67.7949C62.8849 67.8714 64.5566 67.9096 66.2474 67.9096C67.9382 67.9096 69.6672 67.9096 71.339 67.8045C69.6864 69.9252 68.0051 71.9121 66.3047 73.7462H66.3143ZM87.502 85.2094C86.7772 85.6064 85.9589 85.8011 85.1329 85.773C83.3944 85.773 78.4461 85.0088 70.6512 78.0353L69.5335 77.0132C72.3347 74.0027 74.9354 70.8116 77.3189 67.4606C81.3891 67.0722 85.4291 66.4148 89.4125 65.4928C89.8328 67.346 90.1672 69.161 90.3678 70.9091C91.3135 78.1118 90.2149 83.6141 87.4924 85.1712L87.502 85.2094ZM97.8188 58.0417C96.1853 58.7104 94.4563 59.3313 92.6222 59.8854C91.4233 55.9281 89.965 52.054 88.2566 48.2885C89.9346 44.565 91.3674 40.7358 92.5458 36.8253C94.3407 37.3733 96.1069 38.0109 97.8379 38.7359C104.611 41.6017 108.823 45.2794 108.814 48.4222C108.804 51.565 104.592 55.1855 97.8093 58.0035L97.8188 58.0417ZM66.2188 57.0673C67.9532 57.0692 69.6492 56.5568 71.0923 55.5948C72.5355 54.6327 73.661 53.2644 74.3264 51.6627C74.9919 50.0611 75.1675 48.2981 74.831 46.5966C74.4945 44.8952 73.661 43.3317 72.4359 42.104C71.2108 40.8762 69.6492 40.0393 67.9485 39.6991C66.2478 39.3589 64.4844 39.5306 62.8813 40.1926C61.2782 40.8546 59.9074 41.9771 58.9422 43.4181C57.9771 44.8592 57.4609 46.5541 57.459 48.2885C57.4565 49.4404 57.6812 50.5816 58.1203 51.6466C58.5594 52.7116 59.2042 53.6795 60.0179 54.4949C60.8316 55.3104 61.7981 55.9573 62.8621 56.3987C63.9262 56.8401 65.0668 57.0673 66.2188 57.0673ZM12.5139 0V96.5961H120V0H12.5139ZM120 96.5961H12.5139V0H120V96.5961ZM38.8027 64.2127C35.937 76.3254 37.1788 85.9449 42.8913 89.2024C44.2844 89.9833 45.8606 90.379 47.4574 90.3487C52.7878 90.3487 59.5128 86.6327 66.3047 80.2038C73.0871 86.5849 79.793 90.2818 85.1138 90.2818C86.7373 90.3116 88.3395 89.9094 89.7564 89.1164C95.4307 85.8494 96.5961 76.2777 93.7781 64.2796C105.633 60.726 113.342 54.9371 113.351 48.3936C113.361 41.85 105.604 35.9752 93.6921 32.412C96.5579 20.3089 95.3065 10.6798 89.6036 7.42239C88.2052 6.64574 86.6272 6.25042 85.0279 6.27607C79.7071 6.27607 72.982 9.99204 66.1901 16.421C59.3982 10.0398 52.6922 6.34294 47.381 6.34294C45.7568 6.30705 44.1531 6.70965 42.7384 7.50836C37.0642 10.7754 35.8892 20.3471 38.7168 32.3929C26.862 35.937 19.153 41.7258 19.1339 48.2789C19.1148 54.832 26.9002 60.64 38.8123 64.2127H38.8027ZM61.9296 78.0545C54.106 85.0565 49.2151 85.8016 47.467 85.8016C46.6606 85.8285 45.8619 85.6371 45.1552 85.2476C42.4232 83.6905 41.3342 78.1977 42.2035 70.9186C42.4253 69.0628 42.7442 67.2198 43.1587 65.3972C47.1183 66.3093 51.1323 66.9666 55.1759 67.3651C57.5815 70.7471 60.2112 73.964 63.0473 76.9941L61.9296 78.0545ZM85.6106 42.8148C84.8559 41.3819 84.0726 39.9491 83.2415 38.5066C82.4104 37.0642 81.522 35.6408 80.6432 34.2175C83.2415 34.5805 85.7539 35.0486 88.1325 35.6026C87.4351 37.9621 86.5945 40.3789 85.6201 42.8148H85.6106ZM88.2089 60.9648C85.8016 61.5284 83.2702 61.9869 80.6432 62.3499C81.5412 60.9362 82.42 59.4778 83.2797 57.9748C84.1395 56.4719 84.9228 55.0295 85.6297 53.6475C86.6327 56.179 87.502 58.6053 88.1898 61.0126L88.2089 60.9648ZM83.232 48.2121C82.057 50.7149 80.7483 53.2272 79.3345 55.7109C77.9207 58.1946 76.3636 60.6591 74.7779 62.99C71.9981 63.2097 69.1323 63.3148 66.1805 63.3148C63.2288 63.3148 60.449 63.1906 57.6883 62.9709C56.1025 60.6591 54.5741 58.2519 53.1412 55.7586C51.7083 53.2654 50.3996 50.7722 49.2055 48.2789C50.3901 45.7762 51.6924 43.2734 53.1126 40.7706C54.5455 38.2678 56.0834 35.8319 57.6692 33.501C60.449 33.2909 63.3148 33.1762 66.2665 33.1858C69.2183 33.1954 71.9981 33.3004 74.7588 33.5201C76.3445 35.8319 77.8634 38.2965 79.2963 40.7324C80.7292 43.1683 82.057 45.7666 83.2415 48.2598L83.232 48.2121ZM51.8898 62.4264C49.3011 62.0538 46.7887 61.5857 44.4006 61.0317C45.1075 58.6817 45.9576 56.2554 46.932 53.8195C47.6771 55.2523 48.47 56.6852 49.2915 58.1277C50.113 59.5701 50.9346 60.9839 51.8898 62.4264ZM49.2246 38.5448C48.3936 39.9777 47.6103 41.4106 46.8747 42.8626C45.8749 40.398 44.9992 37.9717 44.2477 35.5835C46.6645 35.0199 49.196 34.5518 51.823 34.1888C50.9346 35.6026 50.0844 37.0642 49.2246 38.5448ZM66.3047 73.7462C64.5853 71.9121 62.8944 69.9252 61.2323 67.7949C62.8753 67.8714 64.547 67.9096 66.2379 67.9096C67.9287 67.9096 69.6577 67.9096 71.3294 67.8045C69.6864 69.9252 68.0051 71.9121 66.3047 73.7462ZM87.4924 85.2094C86.7676 85.6064 85.9493 85.8011 85.1234 85.773C83.3848 85.773 78.4366 85.0088 70.6416 78.0353L69.524 77.0132C72.3252 74.0027 74.9259 70.8116 77.3093 67.4606C81.3796 67.0722 85.4196 66.4148 89.403 65.4928C89.8233 67.346 90.1576 69.161 90.3582 70.9091C91.3135 78.1118 90.2149 83.6141 87.4924 85.1712V85.2094ZM92.5362 36.8158C94.3311 37.3637 96.0974 38.0014 97.8284 38.7263C104.601 41.5921 108.814 45.2699 108.804 48.4127C108.795 51.5555 104.592 55.2524 97.8093 58.0704C96.1758 58.7391 94.4467 59.36 92.6126 59.914C91.4137 55.9567 89.9554 52.0827 88.2471 48.3172C89.9282 44.5688 91.361 40.714 92.5362 36.7776V36.8158ZM70.5652 18.5798C78.3888 11.5778 83.2797 10.8231 85.0183 10.8231C85.8246 10.7972 86.6231 10.9886 87.33 11.3772C90.0621 12.9342 91.1511 18.427 90.2818 25.7061C90.0591 27.565 89.7403 29.4111 89.3265 31.2371C85.3681 30.317 81.3539 29.6565 77.3093 29.2597C74.9009 25.8799 72.2713 22.6632 69.438 19.6306C69.801 19.239 70.1831 18.8855 70.5747 18.5416L70.5652 18.5798ZM66.2188 22.8403C67.9382 24.6744 69.629 26.6614 71.2816 28.7916C69.6481 28.7247 67.9764 28.677 66.2856 28.677C64.5948 28.677 62.8658 28.677 61.1941 28.7916C62.8276 26.6709 64.4993 24.6744 66.2188 22.8403ZM45.031 11.3772C45.7558 10.9917 46.5704 10.807 47.3905 10.8422C49.1116 10.9139 50.7994 11.34 52.3484 12.0936C55.8491 13.7441 59.0718 15.9291 61.901 18.5703L63.0186 19.5924C60.2142 22.6028 57.6103 25.7938 55.2237 29.145C51.1573 29.539 47.1208 30.1963 43.1396 31.1129C42.7193 29.2597 42.3754 27.4447 42.1844 25.6965C41.1909 18.4843 42.3372 12.982 45.0215 11.4154L45.031 11.3772ZM34.6951 38.5926C36.3953 37.8884 38.1296 37.2699 39.8917 36.7394C41.0859 40.697 42.5411 44.5711 44.2477 48.3363C42.5713 52.0604 41.1386 55.8895 39.9586 59.7994C38.1637 59.2514 36.3975 58.6138 34.6665 57.8889C27.8841 55.0231 23.6809 51.3453 23.6809 48.2025C23.6809 45.0597 27.9223 41.4106 34.6951 38.5926ZM66.2188 39.5478C64.4844 39.546 62.7883 40.0584 61.3452 41.0204C59.902 41.9824 58.7766 43.3508 58.1111 44.9525C57.4456 46.5541 57.27 48.3171 57.6065 50.0186C57.9431 51.72 58.7765 53.2835 60.0016 54.5112C61.2267 55.739 62.7883 56.5759 64.489 56.9161C66.1897 57.2563 67.9531 57.0846 69.5562 56.4226C71.1593 55.7606 72.5301 54.6381 73.4953 53.1971C74.4605 51.756 74.9766 50.0611 74.9785 48.3267C74.9873 47.1707 74.7673 46.0245 74.331 44.9539C73.8947 43.8834 73.2509 42.9099 72.4366 42.0894C71.6223 41.2688 70.6536 40.6176 69.5865 40.1732C68.5193 39.7288 67.3747 39.5 66.2188 39.5001V39.5478ZM66.2188 39.5478C64.4844 39.546 62.7883 40.0584 61.3452 41.0204C59.902 41.9824 58.7766 43.3508 58.1111 44.9525C57.4456 46.5541 57.27 48.3171 57.6065 50.0186C57.9431 51.72 58.7765 53.2835 60.0016 54.5112C61.2267 55.739 62.7883 56.5759 64.489 56.9161C66.1897 57.2563 67.9531 57.0846 69.5562 56.4226C71.1593 55.7606 72.5301 54.6381 73.4953 53.1971C74.4605 51.756 74.9766 50.0611 74.9785 48.3267C74.9873 47.1707 74.7673 46.0245 74.331 44.9539C73.8947 43.8834 73.2509 42.9099 72.4366 42.0894C71.6223 41.2688 70.6536 40.6176 69.5865 40.1732C68.5193 39.7288 67.3747 39.5 66.2188 39.5001V39.5478ZM66.2188 39.5478C64.4844 39.546 62.7883 40.0584 61.3452 41.0204C59.902 41.9824 58.7766 43.3508 58.1111 44.9525C57.4456 46.5541 57.27 48.3171 57.6065 50.0186C57.9431 51.72 58.7765 53.2835 60.0016 54.5112C61.2267 55.739 62.7883 56.5759 64.489 56.9161C66.1897 57.2563 67.9531 57.0846 69.5562 56.4226C71.1593 55.7606 72.5301 54.6381 73.4953 53.1971C74.4605 51.756 74.9766 50.0611 74.9785 48.3267C74.9873 47.1707 74.7673 46.0245 74.331 44.9539C73.8947 43.8834 73.2509 42.9099 72.4366 42.0894C71.6223 41.2688 70.6536 40.6176 69.5865 40.1732C68.5193 39.7288 67.3747 39.5 66.2188 39.5001V39.5478ZM113.361 48.3745C113.361 41.7927 105.614 35.9561 93.7016 32.3929C96.5674 20.2898 95.316 10.6607 89.6131 7.40328C88.2148 6.62664 86.6368 6.23132 85.0374 6.25697C79.7166 6.25697 72.9916 9.97293 66.1997 16.4018C59.4077 10.0207 52.7018 6.32383 47.3905 6.32383C45.7664 6.28795 44.1626 6.69054 42.748 7.48925C37.0737 10.7562 35.8987 20.328 38.7263 32.3738C26.8715 35.9179 19.1626 41.7067 19.1434 48.2598C19.1243 54.8129 26.9002 60.6782 38.8123 64.2318C35.9465 76.3445 37.1883 85.964 42.9008 89.2215C44.294 90.0024 45.8701 90.3981 47.467 90.3678C52.7973 90.3678 59.5224 86.6518 66.3143 80.2229C73.0966 86.604 79.8026 90.3009 85.1234 90.3009C86.7468 90.3307 88.3491 89.9285 89.766 89.1355C95.4402 85.8685 96.6056 76.2968 93.7876 64.2987C105.642 60.6878 113.351 54.8989 113.361 48.3554V48.3745ZM70.5747 18.5416C78.3983 11.5396 83.2893 10.7849 85.0279 10.7849C85.8342 10.759 86.6326 10.9504 87.3396 11.339C90.0716 12.896 91.1606 18.3888 90.2914 25.6679C90.0687 27.5268 89.7498 29.3729 89.3361 31.1989C85.3777 30.2788 81.3634 29.6183 77.3189 29.2215C74.9104 25.8417 72.2809 22.6249 69.4475 19.5924C69.801 19.239 70.1831 18.8855 70.5747 18.5416ZM46.8938 53.7717C47.6389 55.2046 48.4318 56.6375 49.2533 58.0799C50.0748 59.5224 50.9346 60.9839 51.8898 62.4264C49.3011 62.0538 46.7887 61.5857 44.4006 61.0317C45.0693 58.6053 45.9194 56.2172 46.8938 53.7717ZM44.2477 35.5835C46.6645 35.0199 49.196 34.5518 51.823 34.1888C50.8677 35.6026 50.0462 37.0546 49.1864 38.5735C48.3267 40.0923 47.572 41.4393 46.8365 42.8913C45.8621 40.4076 44.9992 37.9717 44.2477 35.5835ZM49.2246 48.3267C50.4092 45.8239 51.7115 43.3211 53.1317 40.8183C54.5646 38.3156 56.1025 35.8796 57.6883 33.5488C60.4681 33.3386 63.3339 33.224 66.2856 33.2336C69.2374 33.2431 72.0172 33.3482 74.7779 33.5679C76.3636 35.8796 77.8825 38.3442 79.3154 40.7801C80.7483 43.216 82.0666 45.7666 83.2511 48.2598C82.0761 50.7626 80.7674 53.275 79.3536 55.7586C77.9398 58.2423 76.3827 60.7069 74.797 63.0377C72.0172 63.2574 69.1514 63.3625 66.1997 63.3625C63.2479 63.3625 60.4681 63.2383 57.7074 63.0186C56.1216 60.7069 54.5932 58.2996 53.1603 55.8064C51.7274 53.3132 50.4569 50.8199 49.2629 48.3267H49.2246ZM80.6145 34.2175C83.2129 34.5805 85.7252 35.0486 88.1038 35.6026C87.3969 37.9621 86.5563 40.3789 85.5819 42.8148C84.8273 41.3819 84.0439 39.9491 83.2129 38.5066C82.3818 37.0642 81.5029 35.6122 80.6528 34.2175H80.6145ZM83.2511 58.0226C84.0726 56.577 84.8559 55.1345 85.601 53.6953C86.5563 56.179 87.5115 58.6244 88.1802 61.0126C85.773 61.5762 83.2415 62.0347 80.6145 62.3977C81.538 60.9839 82.4296 59.5256 83.2893 58.0226H83.2511ZM66.2188 22.8403C67.9382 24.6744 69.629 26.6614 71.2816 28.7916C69.6481 28.7247 67.9764 28.677 66.2856 28.677C64.5948 28.677 62.8658 28.677 61.1941 28.7916C62.8276 26.6709 64.4993 24.6744 66.2188 22.8403ZM45.031 11.3772C45.7558 10.9917 46.5704 10.807 47.3905 10.8422C49.1116 10.9139 50.7994 11.34 52.3484 12.0936C55.8491 13.7441 59.0718 15.9291 61.901 18.5703L63.0186 19.5924C60.2142 22.6028 57.6103 25.7938 55.2237 29.145C51.1573 29.539 47.1208 30.1963 43.1396 31.1129C42.7193 29.2597 42.3754 27.4447 42.1844 25.6965C41.1909 18.4843 42.3372 12.982 45.0215 11.4154L45.031 11.3772ZM39.9777 59.809C38.1828 59.261 36.4166 58.6234 34.6856 57.8984C27.9032 55.0326 23.7 51.3549 23.7 48.2121C23.7 45.0693 27.9223 41.4106 34.6951 38.5926C36.3953 37.8884 38.1296 37.2699 39.8917 36.7394C41.0859 40.697 42.5411 44.5711 44.2477 48.3363C42.5774 52.064 41.1511 55.8963 39.9777 59.809ZM61.9487 78.0545C54.1251 85.0565 49.2342 85.8016 47.4861 85.8016C46.6797 85.8285 45.881 85.6371 45.1743 85.2476C42.4423 83.6905 41.3533 78.1977 42.2226 70.9186C42.4444 69.0628 42.7633 67.2198 43.1778 65.3972C47.1374 66.3093 51.1514 66.9666 55.195 67.3651C57.6006 70.7471 60.2303 73.964 63.0664 76.9941L61.9487 78.0545ZM66.3143 73.7462C64.5948 71.9121 62.904 69.9252 61.2418 67.7949C62.8849 67.8714 64.5566 67.9096 66.2474 67.9096C67.9382 67.9096 69.6672 67.9096 71.339 67.8045C69.6864 69.9252 68.0051 71.9121 66.3047 73.7462H66.3143ZM87.502 85.2094C86.7772 85.6064 85.9589 85.8011 85.1329 85.773C83.3944 85.773 78.4461 85.0088 70.6512 78.0353L69.5335 77.0132C72.3347 74.0027 74.9354 70.8116 77.3189 67.4606C81.3891 67.0722 85.4291 66.4148 89.4125 65.4928C89.8328 67.346 90.1672 69.161 90.3678 70.9091C91.3135 78.1118 90.2149 83.6141 87.4924 85.1712L87.502 85.2094ZM97.8188 58.0417C96.1853 58.7104 94.4563 59.3313 92.6222 59.8854C91.4233 55.9281 89.965 52.054 88.2566 48.2885C89.9346 44.565 91.3674 40.7358 92.5458 36.8253C94.3407 37.3733 96.1069 38.0109 97.8379 38.7359C104.611 41.6017 108.823 45.2794 108.814 48.4222C108.804 51.565 104.592 55.1855 97.8093 58.0035L97.8188 58.0417ZM66.2188 57.0673C67.9532 57.0692 69.6492 56.5568 71.0923 55.5948C72.5355 54.6327 73.661 53.2644 74.3264 51.6627C74.9919 50.0611 75.1675 48.2981 74.831 46.5966C74.4945 44.8952 73.661 43.3317 72.4359 42.104C71.2108 40.8762 69.6492 40.0393 67.9485 39.6991C66.2478 39.3589 64.4844 39.5306 62.8813 40.1926C61.2782 40.8546 59.9074 41.9771 58.9422 43.4181C57.9771 44.8592 57.4609 46.5541 57.459 48.2885C57.4565 49.4404 57.6812 50.5816 58.1203 51.6466C58.5594 52.7116 59.2042 53.6795 60.0179 54.4949C60.8316 55.3104 61.7981 55.9573 62.8621 56.3987C63.9262 56.8401 65.0668 57.0673 66.2188 57.0673Z" fill="#09D3AC"/>
</svg>
