<svg width="208" height="84" viewBox="0 0 208 84" fill="none" xmlns="http://www.w3.org/2000/svg">
<g filter="url(#filter0_i)">
<path d="M43.93 32.31C43.9927 32.2473 44.353 32.1847 45.011 32.122C45.7003 32.028 46.4993 31.746 47.408 31.276C47.4393 31.276 47.4237 30.9 47.361 30.148C47.267 28.832 47.1887 27.892 47.126 27.328C47.0633 26.576 47.0007 26.0433 46.938 25.73C46.938 25.1347 46.703 23.897 46.233 22.017L44.165 29.02C43.7263 30.9627 43.554 32.1533 43.648 32.592L43.93 32.31ZM37.585 33.673L37.867 31.605C37.867 31.1977 37.9297 30.7903 38.055 30.383C38.055 29.8503 38.3213 29.0513 38.854 27.986C38.854 27.9233 38.995 27.516 39.277 26.764C39.277 26.7013 39.5747 25.777 40.17 23.991L40.734 22.628C40.734 22.5027 40.8123 22.2677 40.969 21.923C41.1257 21.547 41.2353 21.1867 41.298 20.842C41.392 20.466 41.5017 20.1057 41.627 19.761C42.0657 18.915 42.4573 18.1943 42.802 17.599C43.46 16.3457 44.682 15.7817 46.468 15.907L47.972 16.048C48.912 16.2987 49.6327 16.565 50.134 16.847C50.8547 17.129 51.3403 17.4423 51.591 17.787C51.8417 18.1003 51.9513 18.633 51.92 19.385C51.9513 19.761 52.0453 21.3903 52.202 24.273C52.3587 27.1557 52.437 28.6127 52.437 28.644L52.672 30.665C52.672 30.853 53.0167 33.109 53.706 37.433L54.74 40.723C55.3667 42.4777 55.6957 43.402 55.727 43.496C55.7897 43.5587 55.9307 43.8877 56.15 44.483C56.4947 45.517 56.197 46.2063 55.257 46.551C54.411 46.6763 53.7843 46.598 53.377 46.316C53.2203 46.316 52.86 46.175 52.296 45.893C52.2333 45.7363 52.0453 45.5797 51.732 45.423C51.45 45.2977 51.262 45.188 51.168 45.094C50.8233 45 50.51 44.5143 50.228 43.637C50.134 43.5743 49.9617 43.3237 49.711 42.885C49.4917 42.4463 49.429 42.086 49.523 41.804C49.3037 41.522 49.194 40.9423 49.194 40.065C48.912 39.595 48.771 38.8587 48.771 37.856C48.771 36.8533 48.6143 36.07 48.301 35.506C46.703 36.2267 44.9953 36.6183 43.178 36.681C42.8333 36.681 42.661 36.7437 42.661 36.869C42.661 37.151 42.567 37.6523 42.379 38.373L41.58 43.543C41.8933 45.8617 41.6113 47.0837 40.734 47.209C40.4833 47.209 40.0603 47.2717 39.465 47.397C38.901 47.5223 38.431 47.4127 38.055 47.068C37.3343 46.6607 36.8173 46.2377 36.504 45.799C36.222 45.3917 36.0967 44.9217 36.128 44.389C36.1593 43.9503 36.2377 43.0103 36.363 41.569C36.4257 41.5063 36.4413 41.1617 36.41 40.535C36.41 39.877 36.457 39.3757 36.551 39.031L37.303 36.117C37.397 36.0543 37.5223 35.5843 37.679 34.707C37.6477 34.6443 37.632 34.4877 37.632 34.237L37.585 33.673ZM61.2145 26.415H61.3045C61.6945 26.295 62.3245 26.34 63.1945 26.55C63.4945 26.64 63.6745 27.495 63.7345 29.115C63.8545 30.345 63.9145 31.2 63.9145 31.68C63.9145 32.13 63.9295 32.4 63.9595 32.49V35.505L64.1845 35.55C64.1845 35.52 64.2145 35.34 64.2745 35.01C64.4245 34.17 64.5895 33.525 64.7695 33.075C64.8895 32.955 64.9495 32.805 64.9495 32.625C64.9795 32.445 65.0695 32.25 65.2195 32.04C65.3995 31.2 65.8495 30.105 66.5695 28.755C66.8095 28.185 67.0345 27.765 67.2445 27.495C67.4845 27.195 67.8295 27.09 68.2795 27.18C68.7595 27.27 69.1495 27.435 69.4495 27.675C69.6895 27.705 69.9745 27.75 70.3045 27.81L71.6095 28.08C71.7295 28.11 71.8945 28.215 72.1045 28.395C72.3145 28.545 72.4045 28.74 72.3745 28.98C72.3445 29.22 72.3145 29.925 72.2845 31.095V31.815L72.1045 33.57C72.1045 34.05 72.1345 34.335 72.1945 34.425L72.3745 34.56L72.7345 32.49C72.7345 32.28 72.8245 32.085 73.0045 31.905L73.5445 30.6C73.5445 30.51 73.6345 30.315 73.8145 30.015C73.8745 29.805 74.0095 29.505 74.2195 29.115C74.4595 28.725 74.7595 28.35 75.1195 27.99C75.1195 27.75 75.3895 27.585 75.9295 27.495C76.3495 27.045 77.0395 27.03 77.9995 27.45C78.1795 27.45 78.3445 27.48 78.4945 27.54C78.4945 27.6 78.5995 27.645 78.8095 27.675C79.0495 27.705 79.3345 27.9 79.6645 28.26V28.755C79.6645 29.055 79.6795 29.28 79.7095 29.43C79.6795 29.64 79.6945 29.91 79.7545 30.24V30.78C79.7845 31.02 79.8595 31.77 79.9795 33.03V33.525C80.0695 33.705 80.0995 33.9 80.0695 34.11C80.0695 34.29 80.0695 34.485 80.0695 34.695C80.1595 34.785 80.2345 35.04 80.2945 35.46C80.3545 35.85 80.3245 36.24 80.2045 36.63L80.2945 37.035V38.295C80.4445 38.415 80.5195 38.595 80.5195 38.835L80.6545 39.6C80.6545 40.14 80.7295 40.68 80.8795 41.22V41.715L81.1045 42.885V43.155L81.0595 43.605C81.0595 43.935 80.8795 44.175 80.5195 44.325C80.4595 44.355 80.3695 44.4 80.2495 44.46C80.1595 44.52 79.9945 44.55 79.7545 44.55L78.8095 44.235L78.3595 43.92C78.1195 43.98 77.8045 43.875 77.4145 43.605C77.4145 43.335 77.3095 43.095 77.0995 42.885C76.7395 42.765 76.6045 42.525 76.6945 42.165C76.7245 42.135 76.6495 41.97 76.4695 41.67C76.5295 41.61 76.4845 41.28 76.3345 40.68C76.3345 40.41 76.3045 40.155 76.2445 39.915C76.2145 39.645 76.1845 39.375 76.1545 39.105C76.1545 38.835 76.1095 38.595 76.0195 38.385C76.0495 38.385 76.0645 38.28 76.0645 38.07C76.0645 37.86 76.0345 37.665 75.9745 37.485V36.45L75.7495 34.65L75.0745 36.72C74.6245 37.89 74.3995 38.52 74.3995 38.61L72.9595 43.11C72.8695 43.29 72.6895 43.5 72.4195 43.74C72.1795 43.95 71.9695 44.055 71.7895 44.055C71.7295 43.965 71.5645 43.92 71.2945 43.92C71.0545 43.92 70.7545 43.995 70.3945 44.145C69.3745 44.265 68.7895 43.95 68.6395 43.2L68.5495 42.165L68.5945 41.13C68.5345 41.04 68.5045 40.83 68.5045 40.5L68.4595 39.87V37.935L68.3695 35.64V33.435C67.4995 35.805 66.9595 37.35 66.7495 38.07L65.0845 43.425C64.7545 44.295 64.1545 44.76 63.2845 44.82L62.7895 44.91C62.1295 45.06 61.6945 44.955 61.4845 44.595L61.0345 43.83C60.9145 43.17 60.7945 42.795 60.6745 42.705C60.6145 42.285 60.4645 41.85 60.2245 41.4L59.9995 40.32C59.9995 40.23 59.9695 40.095 59.9095 39.915V39.105C59.8195 38.865 59.7445 38.385 59.6845 37.665C59.6245 36.915 59.6095 36.315 59.6395 35.865C59.5195 35.505 59.4895 35.055 59.5495 34.515V33.705C59.3995 33.015 59.3245 31.965 59.3245 30.555V29.925C59.4745 29.025 59.5495 28.425 59.5495 28.125C59.5495 27.795 59.6245 27.555 59.7745 27.405C59.9245 27.225 60.4045 26.895 61.2145 26.415ZM94.1045 32.085C94.0745 31.425 93.9245 30.93 93.6545 30.6C93.3845 30.24 92.8895 30.03 92.1695 29.97C91.9595 30.12 91.6745 30.63 91.3145 31.5C90.9845 32.34 90.7745 33.24 90.6845 34.2C90.3845 35.64 90.2345 37.08 90.2345 38.52C90.2645 39.99 90.5045 41.07 90.9545 41.76C91.0145 41.88 91.0745 41.925 91.1345 41.895C91.2845 41.895 91.5245 41.595 91.8545 40.995C93.4445 38.115 94.1945 35.145 94.1045 32.085ZM95.4995 40.68L94.8245 42.435C94.8245 42.495 94.3895 43.14 93.5195 44.37C93.2495 44.94 92.7395 45.255 91.9895 45.315C91.2695 45.375 90.5645 45.3 89.8745 45.09C88.9445 44.76 88.2395 44.37 87.7595 43.92C87.2795 43.47 86.7995 42.72 86.3195 41.67C85.8695 40.59 85.6295 39.705 85.5995 39.015C85.4495 38.025 85.3745 37.395 85.3745 37.125V36.045C85.3745 34.965 85.4195 34.335 85.5095 34.155C85.5395 34.035 85.6145 33.72 85.7345 33.21C85.8845 31.95 86.2445 30.75 86.8145 29.61C87.9245 27.42 89.0645 26.295 90.2345 26.235H90.4595C90.5195 26.265 90.6095 26.28 90.7295 26.28H91.3145C92.3645 26.37 93.0095 26.46 93.2495 26.55C93.6995 26.67 94.0895 26.73 94.4195 26.73L95.5895 26.955C95.9495 26.925 96.4145 27 96.9845 27.18C97.5845 27.36 97.8995 27.495 97.9295 27.585C97.9895 27.675 98.0795 28.005 98.1995 28.575C98.3195 29.145 98.3945 29.565 98.4245 29.835C98.4845 30.075 98.5295 30.33 98.5595 30.6C98.7995 32.79 99.1895 34.83 99.7295 36.72C99.7595 36.81 99.7895 36.945 99.8195 37.125C99.8495 37.305 99.9545 37.665 100.135 38.205C100.315 38.715 100.45 39.15 100.54 39.51C100.63 39.87 100.795 40.35 101.035 40.95C101.215 41.4 101.485 41.925 101.845 42.525C102.505 43.455 102.16 44.175 100.81 44.685C100.63 44.745 100.315 44.775 99.8645 44.775C99.7745 44.775 99.4895 44.625 99.0095 44.325C98.7095 44.325 98.4245 44.16 98.1545 43.83L97.7945 43.74C97.5845 43.53 97.4045 43.425 97.2545 43.425C97.1945 43.365 96.6545 42.15 95.6345 39.78C95.5445 40.11 95.4995 40.41 95.4995 40.68ZM105.159 28.62C104.949 27.54 105.174 26.79 105.834 26.37C106.164 26.19 106.419 26.115 106.599 26.145C106.809 26.145 107.454 26.31 108.534 26.64C108.684 26.64 108.789 26.67 108.849 26.73C108.909 26.73 108.999 26.76 109.119 26.82C109.389 26.82 109.524 26.88 109.524 27C109.794 27.45 109.959 27.975 110.019 28.575C110.139 29.805 110.289 30.81 110.469 31.59C110.469 31.56 110.484 31.515 110.514 31.455C111.084 30.735 111.384 30.315 111.414 30.195C111.354 30.135 111.459 29.97 111.729 29.7C111.939 29.04 112.089 28.635 112.179 28.485C112.179 28.335 112.314 28.095 112.584 27.765C112.794 27.345 112.974 27.075 113.124 26.955C113.274 26.805 113.394 26.685 113.484 26.595C113.934 26.145 114.534 25.98 115.284 26.1C115.374 26.1 115.539 26.085 115.779 26.055C116.259 25.995 116.544 26.04 116.634 26.19C117.564 26.19 117.924 27.33 117.714 29.61C117.594 30.63 117.414 31.215 117.174 31.365C116.934 31.515 116.469 31.68 115.779 31.86C115.119 32.04 114.654 32.19 114.384 32.31C113.334 32.76 112.659 33.45 112.359 34.38C112.329 34.71 112.239 35.055 112.089 35.415C112.029 35.895 111.984 36.18 111.954 36.27C111.954 36.36 111.954 36.54 111.954 36.81C111.954 37.41 111.864 37.98 111.684 38.52C111.594 39.09 111.549 40.005 111.549 41.265C111.579 42.495 111.549 43.365 111.459 43.875C111.399 44.385 111.354 44.64 111.324 44.64C111.354 44.79 111.369 44.895 111.369 44.955V45.225C111.279 45.465 110.994 45.825 110.514 46.305L109.839 46.35C109.149 46.35 108.774 46.305 108.714 46.215C108.414 46.095 108.189 45.915 108.039 45.675C107.859 45.645 107.769 45.525 107.769 45.315C107.499 45.255 107.334 45.075 107.274 44.775C106.944 44.415 106.779 44.175 106.779 44.055C106.449 42.915 106.329 41.925 106.419 41.085V38.79C106.479 38.61 106.509 38.505 106.509 38.475V38.07C106.689 37.89 106.719 37.77 106.599 37.71V37.35C106.629 37.32 106.644 37.215 106.644 37.035C106.674 36.855 106.704 36.54 106.734 36.09C106.794 35.7 106.689 34.38 106.419 32.13C106.299 32.01 106.089 31.395 105.789 30.285C105.789 30.105 105.729 29.895 105.609 29.655V29.25C105.489 28.89 105.384 28.71 105.294 28.71C105.204 28.68 105.159 28.65 105.159 28.62ZM130.376 33.255C130.406 33.165 130.466 32.64 130.556 31.68C130.496 31.59 130.421 31.26 130.331 30.69C130.091 30.21 129.776 29.85 129.386 29.61C128.906 29.4 128.621 29.295 128.531 29.295C128.261 29.385 128.066 29.49 127.946 29.61C127.856 29.7 127.601 30.12 127.181 30.87C126.791 31.62 126.461 32.865 126.191 34.605C125.951 36.345 125.831 37.605 125.831 38.385C125.831 39.165 125.861 40.125 125.921 41.265C125.981 42.375 126.221 42.9 126.641 42.84C127.031 42.78 127.571 41.7 128.261 39.6C128.291 39.45 128.396 39.18 128.576 38.79L130.376 33.255ZM135.641 31.41C135.641 33 135.806 34.455 136.136 35.775C136.286 37.095 136.556 38.505 136.946 40.005C137.036 40.605 137.066 40.905 137.036 40.905C137.786 42.555 138.206 43.545 138.296 43.875C138.386 44.175 138.371 44.43 138.251 44.64V44.595C138.161 44.865 137.876 45.105 137.396 45.315C136.946 45.555 136.541 45.705 136.181 45.765C135.041 46.125 134.366 45.69 134.156 44.46C134.036 44.37 133.856 44.19 133.616 43.92C133.406 43.62 133.286 43.38 133.256 43.2C133.226 42.99 133.121 42.795 132.941 42.615C132.881 42.465 132.746 42.27 132.536 42.03C132.326 41.79 132.206 41.55 132.176 41.31L132.041 40.095L131.951 40.05C131.471 41.04 131.156 41.73 131.006 42.12C130.646 43.14 130.016 44.31 129.116 45.63C128.096 46.77 126.851 47.1 125.381 46.62C124.841 46.59 124.406 46.425 124.076 46.125C123.776 45.825 123.566 45.66 123.446 45.63C123.266 45.57 123.011 45.345 122.681 44.955C122.141 44.235 121.811 43.17 121.691 41.76V40.59C121.781 40.44 121.781 39.72 121.691 38.43V38.16C121.511 37.26 121.421 36.72 121.421 36.54C121.421 36.36 121.451 36.12 121.511 35.82C121.571 35.52 121.586 35.34 121.556 35.28C121.526 35.19 121.511 35.055 121.511 34.875V34.2L121.736 31.77C122.066 30.72 122.426 29.775 122.816 28.935C122.936 28.425 123.161 28.02 123.491 27.72C124.241 26.91 124.646 26.445 124.706 26.325C124.916 25.875 125.696 25.515 127.046 25.245L127.811 25.29C128.111 25.29 128.381 25.335 128.621 25.425C128.861 25.485 129.026 25.515 129.116 25.515C129.536 25.725 129.881 25.83 130.151 25.83C130.421 25.83 130.871 26.04 131.501 26.46C131.681 26.49 132.131 26.745 132.851 27.225C133.631 27.735 134.081 28.02 134.201 28.08L135.371 28.485C135.701 28.755 135.866 28.905 135.866 28.935C135.866 28.965 135.791 29.79 135.641 31.41ZM146.226 15.66L147.351 15.435C148.071 15.525 148.611 15.72 148.971 16.02C149.361 16.32 149.541 16.665 149.511 17.055C149.061 18.585 148.701 20.19 148.431 21.87V22.545C148.311 23.955 148.146 25.155 147.936 26.145L146.856 36.405V39.51C146.826 41.88 146.961 43.755 147.261 45.135L147.351 45.675C147.321 46.035 147.051 46.275 146.541 46.395C146.061 46.545 145.746 46.605 145.596 46.575C145.446 46.545 145.281 46.5 145.101 46.44L143.886 45.99C143.406 45.75 142.881 45.315 142.311 44.685C141.951 44.355 141.801 44.115 141.861 43.965C141.801 43.845 141.651 42.48 141.411 39.87C141.471 39.33 141.501 38.88 141.501 38.52V37.755C141.501 37.155 141.516 36.72 141.546 36.45C141.546 36.39 141.576 36.03 141.636 35.37C141.786 33.66 141.876 32.73 141.906 32.58V31.86C141.906 30.09 142.056 28.665 142.356 27.585C142.296 27.345 142.266 27.12 142.266 26.91C142.566 26.34 142.671 25.17 142.581 23.4C143.091 21.6 143.391 20.4 143.481 19.8C143.571 19.17 143.706 18.69 143.886 18.36C143.886 17.82 144.126 17.28 144.606 16.74C145.086 16.17 145.626 15.81 146.226 15.66Z" fill="#00FFD1"/>
</g>
<g filter="url(#filter1_i)">
<path d="M59.8 74.81C59.66 74.95 59.23 75.02 58.51 75.02C58.01 75.12 57.42 75.04 56.74 74.78L56.11 74.57L55.18 74.12C55.1 74.12 55.05 74.12 55.03 74.12C55.01 74.14 54.96 74.12 54.88 74.06C54.76 73.96 54.62 73.88 54.46 73.82C54.06 73.54 53.78 73.29 53.62 73.07C52.98 72.05 52.66 71.2 52.66 70.52C52.66 70.44 52.76 70.29 52.96 70.07C53.36 69.59 53.86 69.35 54.46 69.35C54.7 69.37 54.89 69.45 55.03 69.59L56.02 70.88C56.18 71.04 56.36 71.2 56.56 71.36L56.95 71.78L57.55 72.29C57.63 72.33 57.71 72.35 57.79 72.35C57.87 72.39 58.09 72.44 58.45 72.5C58.85 72.4 59.19 72.29 59.47 72.17C59.65 71.99 59.81 71.85 59.95 71.75L60.37 71.27C60.41 71.23 60.48 71.07 60.58 70.79C60.58 70.53 60.58 70.36 60.58 70.28C60.6 70.18 60.57 69.93 60.49 69.53C60.47 69.47 60.33 69.31 60.07 69.05C59.95 68.81 59.78 68.55 59.56 68.27C59.44 68.15 58.86 67.83 57.82 67.31L57.25 66.98L56.71 66.5C56.45 66.42 56.08 66.15 55.6 65.69C55.4 65.55 55.25 65.44 55.15 65.36C55.03 65.32 54.7 64.98 54.16 64.34C54.16 64.3 53.99 63.92 53.65 63.2L53.38 62.03L53.5 61.25C53.38 60.73 53.34 60.34 53.38 60.08C53.46 59.96 53.56 59.72 53.68 59.36C53.62 59.06 53.89 58.47 54.49 57.59C54.49 57.47 54.93 56.99 55.81 56.15L56.83 55.61L57.31 55.4C57.49 55.38 57.73 55.35 58.03 55.31C58.35 55.27 58.82 55.27 59.44 55.31C60.06 55.35 60.45 55.43 60.61 55.55C60.75 55.61 61.15 55.88 61.81 56.36C62.69 57.14 63.17 57.84 63.25 58.46C63.59 59.48 63.61 60.57 63.31 61.73C63.31 61.81 63.03 61.97 62.47 62.21L61.72 62.18C61.08 62.1 60.47 61.77 59.89 61.19C59.73 61.09 59.61 60.81 59.53 60.35C59.51 59.87 59.41 59.58 59.23 59.48C59.21 59.46 59.13 59.28 58.99 58.94C58.65 58.5 58.42 58.28 58.3 58.28C58.2 58.28 58.08 58.31 57.94 58.37C57.22 58.95 56.84 59.6 56.8 60.32C56.66 60.9 56.84 61.61 57.34 62.45C57.56 62.77 57.7 62.93 57.76 62.93C57.88 63.13 58.11 63.38 58.45 63.68L58.87 64.13L60.13 65.06L60.64 65.57L61.21 65.93C61.53 66.07 61.84 66.26 62.14 66.5C62.54 66.8 63.03 67.36 63.61 68.18C63.73 68.36 63.89 68.9 64.09 69.8V70.97L63.94 71.66C63.84 71.76 63.73 71.96 63.61 72.26C63.61 72.28 63.5 72.55 63.28 73.07C63.22 73.17 62.98 73.38 62.56 73.7C61.96 74.18 61.29 74.54 60.55 74.78C60.39 74.82 60.14 74.83 59.8 74.81ZM71.7892 65.15C71.6492 64.35 71.2592 63.98 70.6192 64.04C70.2592 64.06 69.9492 64.3 69.6892 64.76C69.3292 65.46 69.1692 66.37 69.2092 67.49C69.2692 68.59 69.3492 69.39 69.4492 69.89C69.5692 70.37 69.7692 70.79 70.0492 71.15C70.2092 71.43 70.4492 71.56 70.7692 71.54C71.3292 71.54 71.7392 71.07 71.9992 70.13L72.2392 69.41C72.3392 69.31 72.3592 69.21 72.2992 69.11C72.4992 68.61 72.6092 68.02 72.6292 67.34C72.4292 67.2 72.3092 67.07 72.2692 66.95C72.1492 66.61 72.0892 66.38 72.0892 66.26C71.9492 66.16 71.8692 65.97 71.8492 65.69C71.8292 65.41 71.8092 65.23 71.7892 65.15ZM66.2992 67.97L66.4192 66.44C66.5592 65.06 66.9792 63.88 67.6792 62.9C68.3592 62.08 69.3192 61.66 70.5592 61.64H70.7392C71.8992 61.64 72.7392 61.89 73.2592 62.39C73.8192 62.83 74.2292 63.31 74.4892 63.83C74.7692 64.35 74.9492 64.73 75.0292 64.97C75.1092 65.21 75.1592 65.56 75.1792 66.02C75.2192 66.88 75.0492 67.37 74.6692 67.49C74.9492 69.39 74.7792 70.9 74.1592 72.02C73.9592 72.48 73.6692 72.98 73.2892 73.52C73.0092 73.88 72.5092 74.08 71.7892 74.12C71.0692 74.12 70.4392 74.08 69.8992 74C69.3792 73.92 68.7992 73.67 68.1592 73.25C67.5192 72.81 67.0692 72.1 66.8092 71.12C66.5292 70.18 66.3592 69.13 66.2992 67.97ZM78.7736 57.95L78.9836 56.18L79.0136 55.25C79.0136 54.99 79.0636 54.79 79.1636 54.65L79.4636 54.23C80.0036 53.81 80.3536 53.57 80.5136 53.51C80.6736 53.45 80.9036 53.46 81.2036 53.54C81.5236 53.6 81.7136 53.66 81.7736 53.72L82.1036 53.99C82.2836 54.09 82.3736 54.25 82.3736 54.47C82.4736 54.59 82.5036 54.68 82.4636 54.74C82.3436 54.88 82.1436 56.06 81.8636 58.28L81.6236 62.36L81.4736 63.17C81.4736 63.43 81.4836 63.58 81.5036 63.62V64.16C81.4636 64.56 81.4236 64.81 81.3836 64.91C81.3836 65.01 81.3636 65.12 81.3236 65.24C81.3636 65.28 81.3836 65.44 81.3836 65.72C81.3836 65.98 81.3536 66.14 81.2936 66.2C81.2536 66.52 81.2336 66.83 81.2336 67.13C81.2336 67.41 81.2536 67.71 81.2936 68.03C81.3536 68.33 81.3736 68.63 81.3536 68.93L81.4736 70.07V70.52C81.5136 70.88 81.5336 71.17 81.5336 71.39L81.6836 72.95L81.8036 73.76C81.8636 74.1 81.8336 74.43 81.7136 74.75C81.6136 75.07 81.4536 75.27 81.2336 75.35C80.6136 75.61 79.9336 75.44 79.1936 74.84H78.9536C78.8136 74.68 78.7036 74.46 78.6236 74.18C78.4636 74.1 78.3936 73.96 78.4136 73.76C78.4336 73.56 78.3936 73.38 78.2936 73.22C78.1936 73.06 78.1436 72.92 78.1436 72.8C78.1436 72.54 78.1236 72.31 78.0836 72.11L78.1136 71.87C78.0536 71.81 78.0236 71.72 78.0236 71.6L77.9636 71.06V70.82C77.9636 70.66 77.9536 70.55 77.9336 70.49C77.9336 70.43 77.9636 70.33 78.0236 70.19C77.9636 70.11 77.9536 69.82 77.9936 69.32C78.1136 67.78 78.1736 66.72 78.1736 66.14L78.2036 65.42V64.55C78.2236 64.07 78.2336 63.46 78.2336 62.72C78.2536 61.98 78.2936 61.58 78.3536 61.52L78.3236 61.25C78.3236 60.77 78.3936 60.12 78.5336 59.3C78.6936 58.46 78.7736 58.01 78.7736 57.95ZM88.8006 61.7C89.1006 61.96 89.2606 62.32 89.2806 62.78C89.3206 63.24 89.3106 63.56 89.2506 63.74C89.2106 63.92 89.1306 64.54 89.0106 65.6C88.9506 65.74 88.9206 65.93 88.9206 66.17L88.6206 68.84C88.6206 69.9 88.6306 70.52 88.6506 70.7C88.6706 70.88 88.7106 71.02 88.7706 71.12C88.7906 71.2 88.8806 71.26 89.0406 71.3C89.2006 71.34 89.3106 71.3 89.3706 71.18C89.3706 71 89.4306 70.86 89.5506 70.76C89.5506 70.72 89.6806 70.44 89.9406 69.92C89.9406 69.84 89.9706 69.73 90.0306 69.59C90.1106 69.45 90.1606 69.33 90.1806 69.23C90.2206 69.11 90.2506 69.03 90.2706 68.99C90.3506 68.93 90.4506 68.71 90.5706 68.33C90.5706 68.11 90.6906 67.88 90.9306 67.64C90.9306 67.58 91.0306 67.34 91.2306 66.92L91.2906 66.65C91.6506 65.89 91.8206 65.36 91.8006 65.06L91.9506 63.59L92.2506 62.39C92.5306 61.75 92.9306 61.36 93.4506 61.22C93.6906 61.12 94.0106 61.16 94.4106 61.34C94.8306 61.52 95.0906 61.7 95.1906 61.88C95.3106 62.04 95.3706 62.2 95.3706 62.36V62.9L95.3406 63.23V64.85C95.3406 66.05 95.3606 66.96 95.4006 67.58C95.5206 69.38 95.8706 70.92 96.4506 72.2C96.7306 72.84 96.6106 73.33 96.0906 73.67C95.7906 73.87 95.4406 73.97 95.0406 73.97C94.3606 73.97 93.8906 73.71 93.6306 73.19C93.4906 72.99 93.3606 72.72 93.2406 72.38C93.1206 72.04 93.0406 71.82 93.0006 71.72C92.8806 71.32 92.8006 71.1 92.7606 71.06L92.5206 70.49C92.2006 71.51 91.6506 72.71 90.8706 74.09C90.7106 74.35 90.4306 74.57 90.0306 74.75C89.6706 74.67 89.2806 74.56 88.8606 74.42C88.6006 74.32 88.1706 74.18 87.5706 74C87.1706 73.96 86.9406 73.9 86.8806 73.82C86.8206 73.72 86.7706 73.66 86.7306 73.64C86.7106 73.6 86.7006 73.57 86.7006 73.55C86.6406 73.45 86.5406 73.4 86.4006 73.4C86.3206 73.22 86.2006 73.07 86.0406 72.95C86.0406 72.93 86.0106 72.83 85.9506 72.65C85.7306 72.51 85.5506 72.09 85.4106 71.39C85.3106 71.29 85.2306 70.65 85.1706 69.47C85.1306 68.27 85.1206 67.52 85.1406 67.22C85.1806 66.92 85.2006 66.67 85.2006 66.47C85.1606 66.39 85.1706 66.21 85.2306 65.93C85.2906 65.65 85.3106 65.46 85.2906 65.36L85.4106 64.1L85.6506 63.02C85.6506 62.72 85.7506 62.41 85.9506 62.09C86.1506 61.77 86.2906 61.58 86.3706 61.52C86.4506 61.36 86.7306 61.23 87.2106 61.13C87.3106 61.15 87.4406 61.17 87.6006 61.19C87.7606 61.19 87.9106 61.21 88.0506 61.25C88.1906 61.27 88.4406 61.42 88.8006 61.7ZM104.249 55.97C104.209 56.47 104.189 56.84 104.189 57.08C104.189 57.3 104.179 57.5 104.159 57.68V58.46L104.129 58.67V59.3C104.129 59.48 104.119 59.66 104.099 59.84L105.149 59.63C105.229 59.63 105.519 59.58 106.019 59.48C106.519 59.38 106.969 59.34 107.369 59.36C107.789 59.36 108.069 59.44 108.209 59.6C108.369 59.76 108.449 59.99 108.449 60.29C108.489 60.53 108.419 60.76 108.239 60.98L108.119 61.16C107.959 61.42 107.729 61.59 107.429 61.67L106.379 61.82L105.029 62.15L104.219 62.45C104.239 62.95 104.269 63.5 104.309 64.1C104.369 64.7 104.399 65.12 104.399 65.36L104.489 66.47C104.749 68.23 105.089 70.03 105.509 71.87C105.629 72.05 105.759 72.46 105.899 73.1L106.139 73.73C106.219 74.41 105.799 74.75 104.879 74.75C104.719 74.75 104.319 74.71 103.679 74.63C103.499 74.61 103.239 74.43 102.899 74.09C102.899 74.05 102.789 73.92 102.569 73.7L101.999 72.32C101.959 72.26 101.909 72.07 101.849 71.75C101.629 71.53 101.449 71.03 101.309 70.25C101.309 70.21 101.289 70.11 101.249 69.95V69.53C101.109 69.39 101.009 69 100.949 68.36C100.889 67.72 100.819 67.12 100.739 66.56C100.739 65.78 100.679 65.03 100.559 64.31L100.499 63.65V63.38C100.519 63.18 100.519 63.08 100.499 63.08H100.139C99.8395 63.12 99.5895 63.12 99.3895 63.08C98.5095 63.08 97.8995 62.83 97.5595 62.33C97.3195 61.79 97.3095 61.44 97.5295 61.28C97.7495 61.12 98.2895 60.96 99.1495 60.8C99.5295 60.8 100.019 60.67 100.619 60.41C100.619 59.91 100.649 59.63 100.709 59.57C100.769 59.11 100.829 58.82 100.889 58.7C100.969 58.56 101.019 58.42 101.039 58.28C101.059 57.8 101.229 57.09 101.549 56.15C101.669 55.69 101.779 55.38 101.879 55.22C102.139 54.84 102.679 54.72 103.499 54.86C103.839 54.92 104.089 55.05 104.249 55.25C104.309 55.23 104.309 55.47 104.249 55.97ZM113.824 57.02H113.914C114.614 57.06 115.064 57.27 115.264 57.65C115.484 58.01 115.564 58.36 115.504 58.7C115.464 59.04 115.194 59.46 114.694 59.96C114.214 60.46 113.774 60.7 113.374 60.68C113.254 60.68 113.014 60.62 112.654 60.5C112.314 60.38 112.134 60.31 112.114 60.29C112.094 60.21 112.034 60.15 111.934 60.11C111.414 59.91 111.124 59.4 111.064 58.58C111.064 58.5 111.124 58.44 111.244 58.4C111.164 58.4 111.154 58.28 111.214 58.04C111.354 57.6 111.664 57.31 112.144 57.17C112.764 57.05 113.324 57 113.824 57.02ZM113.764 64.61L113.254 69.62C113.254 69.74 113.254 69.86 113.254 69.98C113.254 70.08 113.264 70.17 113.284 70.25C113.264 70.33 113.254 70.43 113.254 70.55V72.71C113.334 73.39 113.334 73.79 113.254 73.91C113.134 73.95 112.994 74.01 112.834 74.09C112.674 74.19 112.364 74.21 111.904 74.15C111.464 74.11 111.144 74.04 110.944 73.94L110.584 73.85C110.384 73.85 110.254 73.76 110.194 73.58C109.934 73.42 109.794 73.21 109.774 72.95C109.714 72.85 109.784 72.71 109.984 72.53C109.964 72.43 109.924 72.29 109.864 72.11C109.804 71.91 109.784 71.73 109.804 71.57C109.864 71.47 109.834 71.32 109.714 71.12C109.714 70.9 109.744 70.65 109.804 70.37C109.884 70.29 109.904 70 109.864 69.5C110.004 69.3 110.074 69.02 110.074 68.66C109.994 68.34 110.024 68.02 110.164 67.7C110.304 67.38 110.384 67.06 110.404 66.74C110.444 66.24 110.534 65.75 110.674 65.27C110.674 65.07 110.764 64.75 110.944 64.31C111.144 63.87 111.274 63.61 111.334 63.53L111.814 63.05L112.354 62.84H112.384C112.624 62.76 112.864 62.77 113.104 62.87C113.684 63.09 114.034 63.26 114.154 63.38C114.074 63.46 114.024 63.58 114.004 63.74C113.984 63.9 113.964 64.04 113.944 64.16C113.864 64.26 113.804 64.41 113.764 64.61ZM122.326 65.15C122.186 64.35 121.796 63.98 121.156 64.04C120.796 64.06 120.486 64.3 120.226 64.76C119.866 65.46 119.706 66.37 119.746 67.49C119.806 68.59 119.886 69.39 119.986 69.89C120.106 70.37 120.306 70.79 120.586 71.15C120.746 71.43 120.986 71.56 121.306 71.54C121.866 71.54 122.276 71.07 122.536 70.13L122.776 69.41C122.876 69.31 122.896 69.21 122.836 69.11C123.036 68.61 123.146 68.02 123.166 67.34C122.966 67.2 122.846 67.07 122.806 66.95C122.686 66.61 122.626 66.38 122.626 66.26C122.486 66.16 122.406 65.97 122.386 65.69C122.366 65.41 122.346 65.23 122.326 65.15ZM116.836 67.97L116.956 66.44C117.096 65.06 117.516 63.88 118.216 62.9C118.896 62.08 119.856 61.66 121.096 61.64H121.276C122.436 61.64 123.276 61.89 123.796 62.39C124.356 62.83 124.766 63.31 125.026 63.83C125.306 64.35 125.486 64.73 125.566 64.97C125.646 65.21 125.696 65.56 125.716 66.02C125.756 66.88 125.586 67.37 125.206 67.49C125.486 69.39 125.316 70.9 124.696 72.02C124.496 72.48 124.206 72.98 123.826 73.52C123.546 73.88 123.046 74.08 122.326 74.12C121.606 74.12 120.976 74.08 120.436 74C119.916 73.92 119.336 73.67 118.696 73.25C118.056 72.81 117.606 72.1 117.346 71.12C117.066 70.18 116.896 69.13 116.836 67.97ZM131.561 70.46C131.741 70.04 131.931 69.55 132.131 68.99L132.791 67.31L133.061 66.8C129.001 71.6 129.041 71.55 133.181 66.65L133.961 65.03C134.021 64.97 134.071 64.84 134.111 64.64L134.891 63.47L135.491 62.93C135.611 62.87 135.741 62.77 135.881 62.63C135.921 62.67 136.081 62.63 136.361 62.51C136.541 62.51 136.901 62.54 137.441 62.6L138.041 62.81L139.391 63.62C139.671 63.9 139.791 64.2 139.751 64.52C139.731 64.76 139.621 65.42 139.421 66.5C139.261 67.36 139.031 68.35 138.731 69.47C138.571 70.37 138.521 71.02 138.581 71.42C138.641 71.82 138.671 72.05 138.671 72.11C138.711 72.23 138.761 72.4 138.821 72.62C138.901 72.84 138.921 72.96 138.881 72.98C139.021 73 139.091 73.1 139.091 73.28C139.251 73.7 139.301 73.98 139.241 74.12C139.201 74.28 139.071 74.45 138.851 74.63C138.651 74.81 138.281 74.9 137.741 74.9C137.421 74.86 137.161 74.84 136.961 74.84C136.781 74.84 136.551 74.77 136.271 74.63C135.691 74.21 135.361 73.78 135.281 73.34C135.181 73.06 135.121 72.85 135.101 72.71C135.081 72.57 135.071 72.47 135.071 72.41C134.971 71.81 134.981 71.19 135.101 70.55C135.121 70.31 135.211 69.82 135.371 69.08C135.531 68.32 135.691 67.72 135.851 67.28C135.851 66.84 135.841 66.61 135.821 66.59L134.651 68.87C134.531 69.19 134.421 69.43 134.321 69.59C134.221 69.69 134.171 69.81 134.171 69.95C134.011 70.11 133.861 70.43 133.721 70.91C133.721 71.05 133.711 71.15 133.691 71.21C133.671 71.27 133.591 71.42 133.451 71.66C133.331 71.88 133.241 72.09 133.181 72.29C133.141 72.49 133.021 72.71 132.821 72.95C132.821 73.03 132.691 73.44 132.431 74.18C132.411 74.26 132.201 74.33 131.801 74.39L131.231 74.33C131.091 74.29 130.761 74.19 130.241 74.03C129.721 73.87 129.431 73.79 129.371 73.79C129.331 73.79 129.291 73.77 129.251 73.73C128.911 73.65 128.701 73.37 128.621 72.89V72.41C128.721 72.29 128.731 72.06 128.651 71.72C128.691 71.52 128.721 71.29 128.741 71.03C128.681 70.99 128.671 70.92 128.711 70.82C128.751 70.18 128.771 69.73 128.771 69.47V68.75C128.811 68.09 128.861 67.38 128.921 66.62C128.981 65.86 129.011 65.37 129.011 65.15V64.55C128.971 64.45 128.961 64.22 128.981 63.86C128.941 63.48 128.891 63.25 128.831 63.17C128.771 63.07 128.751 62.93 128.771 62.75L128.981 62.24C129.301 61.98 129.841 61.93 130.601 62.09C130.941 62.15 131.411 62.35 132.011 62.69C132.051 62.75 132.151 62.88 132.311 63.08C132.431 63.08 132.501 63.25 132.521 63.59C132.501 63.77 132.491 63.92 132.491 64.04C132.471 64.06 132.361 64.52 132.161 65.42C131.721 68.2 131.501 69.71 131.501 69.95C131.501 70.19 131.521 70.36 131.561 70.46ZM143.285 62.36C143.825 61.7 144.565 61.35 145.505 61.31C147.045 61.25 148.185 61.63 148.925 62.45C149.685 63.27 150.085 64.08 150.125 64.88C150.185 65.68 149.985 66.11 149.525 66.17C148.865 66.19 148.435 66.1 148.235 65.9C148.055 65.92 147.825 65.79 147.545 65.51C147.425 65.45 147.265 65.22 147.065 64.82L146.735 64.07C146.575 63.71 146.375 63.51 146.135 63.47C145.835 63.59 145.685 63.89 145.685 64.37C145.765 65.31 146.215 66.21 147.035 67.07C147.035 67.07 147.045 67.1 147.065 67.16C147.105 67.2 147.255 67.36 147.515 67.64C149.095 69.38 149.915 70.78 149.975 71.84C149.975 72.52 149.835 72.97 149.555 73.19C148.695 74.21 147.575 74.74 146.195 74.78C144.815 74.82 143.675 74.39 142.775 73.49C142.535 73.25 142.415 73.02 142.415 72.8C142.295 72.42 142.255 72.17 142.295 72.05C142.235 71.49 142.235 71.07 142.295 70.79C142.415 70.15 142.885 69.82 143.705 69.8C144.005 69.8 144.195 69.98 144.275 70.34C144.535 71.36 144.775 72.03 144.995 72.35C145.235 72.67 145.615 72.82 146.135 72.8C146.795 72.76 147.105 72.39 147.065 71.69C147.045 70.99 146.715 70.34 146.075 69.74C145.875 69.5 145.675 69.32 145.475 69.2C145.295 69.06 145.175 68.96 145.115 68.9C145.095 68.84 145.045 68.78 144.965 68.72C144.565 68.4 144.055 67.87 143.435 67.13C142.835 66.39 142.515 65.7 142.475 65.06C142.395 63.92 142.665 63.02 143.285 62.36Z" fill="#00FFD1"/>
</g>
<g filter="url(#filter2_i)">
<path d="M16.121 37.427C16.1837 37.2077 16.2463 37.0823 16.309 37.051C16.3717 37.0197 16.6693 36.9883 17.202 36.957C17.766 36.9257 18.142 37.0667 18.33 37.38C18.5807 37.192 19.129 37.427 19.975 38.085C20.821 38.743 21.15 39.213 20.962 39.495C20.68 39.495 19.9437 39.871 18.753 40.623C17.5623 41.375 16.5753 42.033 15.792 42.597C15.4787 42.7537 13.3167 44.007 9.306 46.357C8.71067 46.6077 8.648 46.827 9.118 47.015C9.212 47.0777 9.776 47.5163 10.81 48.331C11.844 49.1143 12.361 49.5217 12.361 49.553C13.8963 50.4617 14.7423 51.01 14.899 51.198C15.0557 51.386 15.2907 51.5897 15.604 51.809C15.9173 51.997 16.1053 52.138 16.168 52.232C18.2047 54.018 19.2387 55.1617 19.27 55.663C19.2387 55.8197 18.9097 56.039 18.283 56.321C17.6877 56.603 17.0297 56.791 16.309 56.885C15.3063 56.9163 14.5387 56.7597 14.006 56.415C13.6927 56.3837 13.3793 56.2427 13.066 55.992C12.7527 55.71 12.5647 55.4593 12.502 55.24C11.938 55.24 11.4837 54.9267 11.139 54.3C10.8883 54.1747 10.5593 53.8613 10.152 53.36C10.058 53.3287 9.90133 53.219 9.682 53.031C9.46267 52.8117 9.27467 52.6707 9.118 52.608C8.836 52.044 8.42867 51.6523 7.896 51.433L7.285 50.634C6.721 50.2893 6.439 50.0387 6.439 49.882C6.251 49.4433 5.79667 49.0987 5.076 48.848C4.91933 48.5033 4.49633 48.1587 3.807 47.814C3.58767 47.7827 3.44667 47.7043 3.384 47.579C3.35267 47.4537 3.337 47.0777 3.337 46.451C3.27433 46.3257 3.44667 45.8713 3.854 45.088C4.57467 44.5867 5.32667 44.1167 6.11 43.678C6.83067 43.114 7.73933 42.4247 8.836 41.61C9.93267 40.7953 10.481 40.341 10.481 40.247C10.6377 40.1843 11.0137 39.9807 11.609 39.636C12.2357 39.2913 12.6273 39.0407 12.784 38.884C13.5047 38.8213 13.9277 38.5863 14.053 38.179C14.617 37.8343 15.087 37.6307 15.463 37.568C15.8703 37.5053 16.0897 37.4583 16.121 37.427ZM163.392 63.841L163.298 62.901C163.298 62.619 163.58 61.209 164.144 58.671L169.361 42.738C169.925 41.4533 170.254 40.5917 170.348 40.153C171.256 38.179 171.726 37.1293 171.758 37.004C171.82 36.8787 171.883 36.769 171.946 36.675C172.29 35.9543 172.854 34.325 173.638 31.787C173.669 31.7557 173.747 31.599 173.873 31.317C174.029 31.035 174.139 30.8627 174.202 30.8L175.283 30.048C175.847 29.6407 176.348 29.437 176.787 29.437C177.257 29.437 177.601 29.578 177.821 29.86L178.385 31.035C178.385 31.5677 178.056 32.4137 177.398 33.573C175.862 37.4897 175.063 39.5577 175.001 39.777C174.938 39.965 174.797 40.3097 174.578 40.811C174.546 41.0303 174.358 41.61 174.014 42.55L172.933 45.652C172.4 46.8113 172.134 47.5007 172.134 47.72C171.288 50.5087 170.755 51.9657 170.536 52.091C170.536 52.1223 170.473 52.2633 170.348 52.514C169.972 53.454 169.768 54.1747 169.737 54.676C169.674 55.1773 169.267 57.0103 168.515 60.175C168.515 60.363 168.374 60.9583 168.092 61.961C168.092 62.243 168.013 62.8227 167.857 63.7C167.731 64.6087 167.575 65.3293 167.387 65.862C166.885 67.2093 166.212 67.883 165.366 67.883C164.927 67.883 164.441 67.601 163.909 67.037C163.407 66.473 163.157 65.721 163.157 64.781L163.392 63.841ZM182.253 37.38C182.441 37.0667 182.801 36.9257 183.334 36.957C183.898 36.9883 184.211 37.0197 184.274 37.051C184.336 37.0823 184.399 37.2077 184.462 37.427C184.493 37.4583 184.665 37.5053 184.979 37.568C185.449 37.6307 185.966 37.8343 186.53 38.179C186.655 38.5863 187.078 38.8213 187.799 38.884C187.955 39.0407 188.331 39.2913 188.927 39.636C189.553 39.9807 189.945 40.1843 190.102 40.247C190.102 40.341 190.337 40.576 190.807 40.952C192.53 42.2053 193.752 43.114 194.473 43.678L196.729 45.088C197.136 45.8713 197.308 46.3257 197.246 46.451C197.246 47.1717 197.199 47.579 197.105 47.673C197.042 47.7357 196.932 47.7827 196.776 47.814C196.086 48.1587 195.663 48.5033 195.507 48.848C194.786 49.0987 194.332 49.4433 194.144 49.882C194.144 50.0387 193.862 50.2893 193.298 50.634L192.687 51.433C192.154 51.6523 191.747 52.044 191.465 52.608C191.308 52.6707 191.12 52.8117 190.901 53.031C190.681 53.219 190.525 53.3287 190.431 53.36C190.023 53.8613 189.694 54.1747 189.444 54.3C189.099 54.9267 188.645 55.24 188.081 55.24C188.018 55.4593 187.83 55.71 187.517 55.992C187.203 56.2427 186.89 56.3837 186.577 56.415C186.044 56.7597 185.276 56.9163 184.274 56.885C183.553 56.791 182.879 56.603 182.253 56.321C181.657 56.039 181.344 55.8197 181.313 55.663C181.344 55.1617 182.378 54.018 184.415 52.232C184.477 52.138 184.665 51.997 184.979 51.809C185.292 51.5897 185.48 51.433 185.543 51.339C185.668 51.151 186.561 50.5557 188.222 49.553C188.222 49.5217 188.739 49.1143 189.773 48.331C190.807 47.5163 191.371 47.0777 191.465 47.015C191.935 46.827 191.872 46.6077 191.277 46.357C187.266 44.007 185.104 42.7537 184.791 42.597C182.973 41.281 181.673 40.435 180.89 40.059C180.106 39.683 179.683 39.495 179.621 39.495C179.433 39.213 179.762 38.743 180.608 38.085C181.454 37.427 182.002 37.192 182.253 37.38Z" fill="#00FFD1"/>
</g>
<defs>
<filter id="filter0_i" x="36.1233" y="15.435" width="113.391" height="36.0121" filterUnits="userSpaceOnUse" color-interpolation-filters="sRGB">
<feFlood flood-opacity="0" result="BackgroundImageFix"/>
<feBlend mode="normal" in="SourceGraphic" in2="BackgroundImageFix" result="shape"/>
<feColorMatrix in="SourceAlpha" type="matrix" values="0 0 0 0 0 0 0 0 0 0 0 0 0 0 0 0 0 0 127 0" result="hardAlpha"/>
<feOffset dy="4"/>
<feGaussianBlur stdDeviation="2"/>
<feComposite in2="hardAlpha" operator="arithmetic" k2="-1" k3="1"/>
<feColorMatrix type="matrix" values="0 0 0 0 0 0 0 0 0 0 0 0 0 0 0 0 0 0 0.25 0"/>
<feBlend mode="normal" in2="shape" result="effect1_innerShadow"/>
</filter>
<filter id="filter1_i" x="52.66" y="53.4714" width="97.4757" height="25.9965" filterUnits="userSpaceOnUse" color-interpolation-filters="sRGB">
<feFlood flood-opacity="0" result="BackgroundImageFix"/>
<feBlend mode="normal" in="SourceGraphic" in2="BackgroundImageFix" result="shape"/>
<feColorMatrix in="SourceAlpha" type="matrix" values="0 0 0 0 0 0 0 0 0 0 0 0 0 0 0 0 0 0 127 0" result="hardAlpha"/>
<feOffset dy="4"/>
<feGaussianBlur stdDeviation="2"/>
<feComposite in2="hardAlpha" operator="arithmetic" k2="-1" k3="1"/>
<feColorMatrix type="matrix" values="0 0 0 0 0 0 0 0 0 0 0 0 0 0 0 0 0 0 0.25 0"/>
<feBlend mode="normal" in2="shape" result="effect1_innerShadow"/>
</filter>
<filter id="filter2_i" x="3.32446" y="29.437" width="193.934" height="42.446" filterUnits="userSpaceOnUse" color-interpolation-filters="sRGB">
<feFlood flood-opacity="0" result="BackgroundImageFix"/>
<feBlend mode="normal" in="SourceGraphic" in2="BackgroundImageFix" result="shape"/>
<feColorMatrix in="SourceAlpha" type="matrix" values="0 0 0 0 0 0 0 0 0 0 0 0 0 0 0 0 0 0 127 0" result="hardAlpha"/>
<feOffset dy="4"/>
<feGaussianBlur stdDeviation="2"/>
<feComposite in2="hardAlpha" operator="arithmetic" k2="-1" k3="1"/>
<feColorMatrix type="matrix" values="0 0 0 0 0 0 0 0 0 0 0 0 0 0 0 0 0 0 0.25 0"/>
<feBlend mode="normal" in2="shape" result="effect1_innerShadow"/>
</filter>
</defs>
</svg>
