<svg width="136" height="124" viewBox="0 0 136 124" fill="none" xmlns="http://www.w3.org/2000/svg">
<path fill-rule="evenodd" clip-rule="evenodd" d="M102.884 38.6613C115.352 42.3914 123.46 48.5008 123.46 55.39L123.46 55.3961L123.46 55.41C123.46 55.4054 123.46 55.4007 123.46 55.3961C123.458 56.1239 123.366 56.8428 123.187 57.5509M102.884 38.6613C103.912 34.3155 104.433 30.2746 104.432 26.7037C104.434 19.861 102.523 14.7406 98.6 12.5C97.1361 11.687 95.4843 11.2732 93.81 11.3C88.24 11.3 81.2 15.19 74.09 21.92C66.98 15.24 59.96 11.37 54.4 11.37C52.6998 11.3324 51.0209 11.7539 49.54 12.59C47.0348 14.0324 45.3674 16.6487 44.4988 20.1382C43.298 24.9191 43.6026 31.3476 45.3119 38.6454C34.2019 41.9699 26.5741 47.1786 25.0931 53.1581C24.9146 53.8652 24.8221 54.5831 24.82 55.31C24.8107 58.4955 26.5631 61.5128 29.6917 64.2058C33.2954 67.3256 38.7297 70.0127 45.4062 72.0059C43.2445 81.1523 43.3209 88.9393 45.7782 93.8462C46.7264 95.7476 48.0309 97.2182 49.7 98.17C51.1584 98.9876 52.8084 99.4018 54.48 99.37C60.06 99.37 67.1 95.48 74.21 88.75C81.31 95.43 88.33 99.3 93.9 99.3C95.5995 99.3312 97.2767 98.9102 98.76 98.08C102.648 95.8416 104.514 90.7761 104.512 84.0216C104.513 80.4561 103.993 76.4193 102.974 72.0787C104.919 71.4863 106.757 70.838 108.473 70.1394C116.561 66.8784 121.964 62.4748 123.186 57.5522M98.31 37.43C94.1662 36.4668 89.9639 35.7754 85.73 35.36C83.2126 31.8273 80.4645 28.4649 77.5036 25.2946C77.8766 24.8947 78.2685 24.5326 78.67 24.18L78.66 24.22C86.85 16.89 91.97 16.1 93.79 16.1C94.6341 16.0729 95.4699 16.2732 96.21 16.68C99.07 18.31 100.21 24.06 99.3 31.68C99.0685 33.6123 98.7387 35.5317 98.31 37.43ZM56.35 65.57C55.5025 64.0819 54.684 62.6035 53.9139 61.1252C52.8965 63.6701 52.0085 66.2049 51.27 68.66C53.77 69.24 56.4 69.73 59.11 70.12C58.11 68.61 57.21 67.08 56.35 65.57ZM59.04 40.56C56.29 40.94 53.64 41.43 51.11 42.02C51.8939 44.5112 52.8069 47.0422 53.849 49.6128C54.6098 48.1146 55.3913 46.7201 56.28 45.15L56.2863 45.1389C57.184 43.5529 58.0423 42.0365 59.04 40.56ZM59.2406 61.0393C58.2154 59.1462 57.2667 57.2531 56.36 55.36H56.324L56.322 55.3558C57.5614 52.7372 58.9241 50.1186 60.41 47.5C61.91 44.88 63.52 42.33 65.18 39.89C68.09 39.67 71.09 39.55 74.18 39.56C77.27 39.57 80.18 39.68 83.07 39.91C84.73 42.33 86.32 44.91 87.82 47.46C88.4609 48.5495 89.0798 49.6608 89.6753 50.7801C90.4642 52.2726 91.2125 53.7809 91.9132 55.2546C90.6849 57.8698 89.3173 60.4948 87.84 63.09C86.36 65.69 84.73 68.27 83.07 70.71C80.16 70.94 77.16 71.05 74.07 71.05C70.98 71.05 68.07 70.92 65.18 70.69C63.52 68.27 61.92 65.75 60.42 63.14C60.0176 62.4398 59.6245 61.7396 59.2406 61.0393ZM89.2237 40.5961C89.426 40.9279 89.6298 41.2628 89.8342 41.6C90.5471 42.7542 91.2565 43.9111 91.93 45.08C92.7937 46.5791 93.6082 48.0684 94.3929 49.5576C95.4074 47.0186 96.2831 44.4995 97.02 42.04C94.5434 41.4631 91.9282 40.9753 89.2237 40.5961ZM89.2129 70.0396C90.1678 68.5753 91.0902 67.0655 91.98 65.51H91.9414C91.9509 65.4933 91.9605 65.4767 91.97 65.46C92.8586 63.9066 93.6693 62.4149 94.4019 60.9849C94.4539 61.1202 94.506 61.2554 94.558 61.3905C95.4991 63.8356 96.4263 66.2442 97.0887 68.5997C94.5819 69.185 91.9468 69.6617 89.2129 70.0396ZM79.41 34.91C77.68 32.68 75.91 30.6 74.11 28.68C72.31 30.6 70.56 32.69 68.85 34.91C70.6 34.79 72.41 34.79 74.18 34.79C75.95 34.79 77.7 34.84 79.41 34.91ZM54.4 16.12C53.5415 16.0832 52.6887 16.2765 51.93 16.68L51.92 16.72C49.11 18.36 47.91 24.12 48.95 31.67C49.15 33.5 49.51 35.4 49.95 37.34C54.1177 36.3805 58.3432 35.6924 62.6 35.28C65.0984 31.7718 67.8243 28.4313 70.76 25.28L69.59 24.21C66.6284 21.4452 63.2547 19.1578 59.59 17.43C57.9685 16.641 56.2017 16.1951 54.4 16.12ZM29.6 55.24C29.6 58.1098 32.9478 61.4057 38.5152 64.1919C39.3246 64.5963 40.1806 64.99 41.08 65.37C42.8921 66.1289 44.7411 66.7964 46.62 67.37C47.8552 63.277 49.3551 59.2686 51.11 55.37C49.3234 51.4285 47.8001 47.373 46.55 43.23C44.7054 43.7853 42.8898 44.4328 41.11 45.17C40.9416 45.2401 40.7747 45.3106 40.6093 45.3817L40.6047 45.3836C33.8106 48.3033 29.6 52.0289 29.6 55.24ZM54.3339 94.5926C53.5465 94.5909 52.7712 94.391 52.08 94.01C49.22 92.38 48.08 86.63 48.99 79.01C49.2221 77.0687 49.5555 75.1408 49.989 73.2344C54.1278 74.1869 58.3234 74.8736 62.55 75.29C65.0682 78.8304 67.8211 82.198 70.79 85.37L69.62 86.48C61.43 93.81 56.31 94.59 54.48 94.59C54.4313 94.5916 54.3826 94.5925 54.3339 94.5926ZM74.205 81.9646C74.4814 81.6664 74.7574 81.3643 75.0329 81.0584C75.1002 80.9836 75.1674 80.9086 75.2346 80.8335C76.6619 79.2371 78.0742 77.5386 79.46 75.75C78.1508 75.8319 76.8077 75.8531 75.4734 75.8583C75.4701 75.8583 75.4668 75.8583 75.4634 75.8583C75.0208 75.86 74.5792 75.86 74.14 75.86M74.205 81.9646C72.4068 80.0463 70.6383 77.9678 68.9 75.74ZM73.4895 75.8582C73.4822 75.8582 73.4748 75.8581 73.4675 75.8581C71.9267 75.8493 70.4017 75.8097 68.9 75.74M73.4895 75.8582C73.5957 75.8588 73.702 75.8592 73.8084 75.8595ZM73.8084 75.8595C73.9155 75.8598 74.0227 75.86 74.13 75.86ZM93.91 94.56C93.9631 94.5618 94.0162 94.5627 94.0692 94.5628C94.8761 94.562 95.6708 94.3585 96.38 93.97V93.93C96.9319 93.6143 97.4201 93.1438 97.8413 92.5355C97.8428 92.5333 97.8442 92.5311 97.8458 92.5289C99.5958 89.9938 100.186 85.0746 99.38 79C99.1701 77.1707 98.8203 75.2714 98.3805 73.3322C94.2136 74.2963 89.9876 74.9837 85.73 75.39C83.2349 78.8979 80.5124 82.2385 77.58 85.39L78.75 86.46C86.91 93.76 92.09 94.56 93.91 94.56ZM101.75 67.46C103.67 66.88 105.48 66.23 107.19 65.53L107.18 65.49C111.974 63.4982 115.541 61.1234 117.356 58.7781C118.223 57.6419 118.687 56.5155 118.69 55.45C118.694 54.0182 117.862 52.4802 116.335 50.9525C114.353 48.9733 111.208 47.0115 107.21 45.32C105.398 44.5611 103.549 43.8936 101.67 43.32C100.58 46.9382 99.2813 50.49 97.7815 53.9576C97.5851 54.4145 97.3851 54.8699 97.1817 55.3238C98.9693 59.2645 100.495 63.3187 101.75 67.46ZM79.2118 62.9684C77.7011 63.9755 75.9256 64.512 74.11 64.51C72.9041 64.51 71.71 64.2722 70.5962 63.8101C69.4823 63.348 68.4705 62.6707 67.6188 61.8171C66.767 60.9635 66.0919 59.9502 65.6323 58.8354C65.1726 57.7205 64.9374 56.5259 64.94 55.32C64.942 53.5044 65.4823 51.7301 66.4927 50.2216C66.8243 49.7264 67.2016 49.2673 67.6183 48.8492C66.7679 49.6972 66.0879 50.708 65.6226 51.8277C64.926 53.5044 64.7422 55.35 65.0945 57.1311C65.4467 58.9122 66.3193 60.5489 67.6017 61.8342C68.8841 63.1194 70.5189 63.9955 72.2993 64.3516C74.0796 64.7078 75.9256 64.528 77.6038 63.835C78.6982 63.3831 79.6889 62.726 80.5262 61.9052C80.1236 62.2975 79.6839 62.6537 79.2118 62.9684ZM80.6025 61.83C81.4525 60.9822 82.1323 59.9717 82.5974 58.8523C83.294 57.1756 83.4778 55.33 83.1255 53.5489C82.9566 52.6947 82.6677 51.8739 82.2717 51.1091C82.2603 51.0868 82.2488 51.0647 82.2373 51.0425C81.8125 50.2298 81.2674 49.4838 80.619 48.8305C79.7666 47.9716 78.7526 47.2899 77.6355 46.8247C76.5183 46.3595 75.3201 46.12 74.11 46.12V46.15C72.917 46.1513 71.7297 46.3852 70.6162 46.845C69.5218 47.2969 68.5311 47.954 67.6938 48.7748C68.0965 48.3825 68.5361 48.0263 69.0082 47.7116C70.5189 46.7045 72.2944 46.168 74.11 46.17V46.15C74.1532 46.15 74.1964 46.1502 74.2395 46.1508C74.8016 46.1581 75.3644 46.2171 75.9207 46.3284C77.7011 46.6845 79.3359 47.5606 80.6183 48.8458C81.2679 49.4969 81.8123 50.2381 82.2373 51.0425C82.2488 51.0647 82.2603 51.0868 82.2717 51.1091C82.392 51.3439 82.5023 51.5842 82.6022 51.8293C83.0589 52.9499 83.2892 54.1499 83.28 55.36C83.278 57.1756 82.7377 58.9499 81.7273 60.4585C81.3959 60.9533 81.0188 61.4122 80.6025 61.83ZM13.11 110.65V0H135.18V110.65H13.11ZM17.89 105.89H130.41V4.77H17.89V105.89ZM4.79 8.32V119.01H126.83L122.05 123.78H0V13.12L4.79 8.32Z" fill="#09D3AC"/>
<path d="M64.492 51.416C64.696 51.296 65.002 51.182 65.41 51.074C65.83 50.966 66.25 50.912 66.67 50.912C67.27 50.912 67.798 51.002 68.254 51.182C68.722 51.35 69.022 51.62 69.154 51.992C69.37 52.616 69.604 53.342 69.856 54.17C70.108 54.998 70.36 55.856 70.612 56.744C70.864 57.62 71.11 58.49 71.35 59.354C71.59 60.206 71.8 60.962 71.98 61.622C71.836 61.79 71.62 61.922 71.332 62.018C71.044 62.126 70.702 62.18 70.306 62.18C70.018 62.18 69.772 62.156 69.568 62.108C69.376 62.06 69.214 61.988 69.082 61.892C68.962 61.796 68.86 61.67 68.776 61.514C68.704 61.358 68.638 61.178 68.578 60.974L68.254 59.732H64.996C64.9 60.092 64.804 60.464 64.708 60.848C64.612 61.232 64.516 61.604 64.42 61.964C64.252 62.024 64.072 62.072 63.88 62.108C63.7 62.156 63.478 62.18 63.214 62.18C62.602 62.18 62.146 62.078 61.846 61.874C61.558 61.658 61.414 61.364 61.414 60.992C61.414 60.824 61.438 60.656 61.486 60.488C61.534 60.32 61.588 60.122 61.648 59.894C61.732 59.57 61.846 59.168 61.99 58.688C62.146 58.208 62.314 57.692 62.494 57.14C62.674 56.576 62.866 56 63.07 55.412C63.274 54.824 63.466 54.272 63.646 53.756C63.826 53.228 63.988 52.76 64.132 52.352C64.288 51.944 64.408 51.632 64.492 51.416ZM66.652 53.738C66.484 54.242 66.292 54.806 66.076 55.43C65.872 56.042 65.686 56.666 65.518 57.302H67.75C67.582 56.654 67.408 56.024 67.228 55.412C67.06 54.788 66.904 54.23 66.76 53.738H66.652ZM73.0327 60.542C73.0327 60.038 73.1887 59.618 73.5007 59.282C73.8127 58.946 74.2387 58.778 74.7787 58.778C75.3187 58.778 75.7447 58.946 76.0567 59.282C76.3687 59.618 76.5247 60.038 76.5247 60.542C76.5247 61.046 76.3687 61.466 76.0567 61.802C75.7447 62.138 75.3187 62.306 74.7787 62.306C74.2387 62.306 73.8127 62.138 73.5007 61.802C73.1887 61.466 73.0327 61.046 73.0327 60.542ZM81.1918 57.662C80.6638 57.482 80.1838 57.302 79.7518 57.122C79.3198 56.93 78.9478 56.702 78.6358 56.438C78.3238 56.174 78.0778 55.862 77.8978 55.502C77.7298 55.13 77.6458 54.68 77.6458 54.152C77.6458 53.132 78.0358 52.316 78.8158 51.704C79.6078 51.092 80.7118 50.786 82.1278 50.786C82.6438 50.786 83.1238 50.822 83.5678 50.894C84.0118 50.966 84.3898 51.08 84.7018 51.236C85.0258 51.38 85.2778 51.572 85.4578 51.812C85.6378 52.04 85.7278 52.31 85.7278 52.622C85.7278 52.934 85.6558 53.204 85.5118 53.432C85.3678 53.648 85.1938 53.834 84.9898 53.99C84.7258 53.822 84.3718 53.678 83.9278 53.558C83.4838 53.426 82.9978 53.36 82.4698 53.36C81.9298 53.36 81.5338 53.438 81.2818 53.594C81.0298 53.738 80.9038 53.924 80.9038 54.152C80.9038 54.332 80.9818 54.482 81.1378 54.602C81.2938 54.71 81.5278 54.812 81.8398 54.908L82.7938 55.214C83.9218 55.574 84.7858 56.036 85.3858 56.6C85.9978 57.152 86.3038 57.908 86.3038 58.868C86.3038 59.888 85.9018 60.716 85.0978 61.352C84.2938 61.976 83.1118 62.288 81.5518 62.288C80.9998 62.288 80.4838 62.24 80.0038 62.144C79.5358 62.06 79.1218 61.934 78.7618 61.766C78.4138 61.586 78.1378 61.37 77.9338 61.118C77.7418 60.854 77.6458 60.554 77.6458 60.218C77.6458 59.87 77.7478 59.576 77.9518 59.336C78.1558 59.084 78.3778 58.892 78.6178 58.76C78.9538 59.024 79.3618 59.252 79.8418 59.444C80.3338 59.636 80.8678 59.732 81.4438 59.732C82.0318 59.732 82.4458 59.642 82.6858 59.462C82.9258 59.282 83.0458 59.072 83.0458 58.832C83.0458 58.592 82.9498 58.412 82.7578 58.292C82.5658 58.16 82.2958 58.034 81.9478 57.914L81.1918 57.662Z" fill="#09D3AC"/>
</svg>
