<svg width="208" height="208" viewBox="0 0 208 208" fill="none" xmlns="http://www.w3.org/2000/svg">
<g filter="url(#filter0_d)">
<circle cx="104" cy="100" r="98.5" stroke="#f9b253" stroke-width="3"/>
<path d="M138.768 126.5H102H65.2267C61.1692 126.5 57.2051 125.282 53.8475 123.004C42.5231 115.319 41.9141 98.8511 52.6401 90.3512L54.483 88.8908C56.4676 87.3181 58.788 86.224 61.264 85.6934C63.4 85.2357 65.6057 85.2073 67.7528 85.6099L72.5 86.5L73.0557 84.944C74.3326 81.3687 76.4628 78.1591 79.2613 75.5938C80.4175 74.534 81.6776 73.5934 83.0225 72.7865L87.6937 69.9838C95.9327 65.0404 106.178 64.8479 114.597 69.4783L117.635 71.1494C119.867 72.377 121.914 73.9142 123.715 75.7153L123.898 75.8976C126.278 78.2782 128.193 81.083 129.542 84.1674L131 87.5L132.784 86.8629C136.194 85.6451 139.875 85.4019 143.416 86.1605C144.47 86.3864 145.506 86.7003 146.508 87.0974C163.799 93.9453 163.41 118.61 146.01 125.176C143.701 126.047 141.236 126.5 138.768 126.5Z" stroke="#f9b253" stroke-width="2"/>
</g>
<defs>
<filter id="filter0_d" x="0" y="0" width="208" height="208" filterUnits="userSpaceOnUse" color-interpolation-filters="sRGB">
<feFlood flood-opacity="0" result="BackgroundImageFix"/>
<feColorMatrix in="SourceAlpha" type="matrix" values="0 0 0 0 0 0 0 0 0 0 0 0 0 0 0 0 0 0 127 0"/>
<feOffset dy="4"/>
<feGaussianBlur stdDeviation="2"/>
<feColorMatrix type="matrix" values="0 0 0 0 0 0 0 0 0 0 0 0 0 0 0 0 0 0 0.25 0"/>
<feBlend mode="normal" in2="BackgroundImageFix" result="effect1_dropShadow"/>
<feBlend mode="normal" in="SourceGraphic" in2="effect1_dropShadow" result="shape"/>
</filter>
</defs>
</svg>
