<svg width="200" height="200" viewBox="0 0 200 200" fill="none" xmlns="http://www.w3.org/2000/svg">
<circle cx="100" cy="100" r="98.5" stroke="#00FFD1" stroke-width="3"/>
<rect x="97" y="126" width="7" height="28" fill="#00FFD1"/>
<rect x="76" y="153" width="49" height="2" fill="#00FFD1"/>
<rect x="42" y="45" width="116" height="82" rx="3" stroke="#00FFD1" stroke-width="2"/>
<path d="M82.74 94.16C81.7533 94.16 80.96 93.82 80.36 93.14C79.76 92.4467 79.46 91.5267 79.46 90.38V80.2C79.46 80.0667 79.5267 80 79.66 80H80.32C80.4533 80 80.52 80.0667 80.52 80.2V90.5C80.52 91.3133 80.72 91.9733 81.12 92.48C81.5333 92.9733 82.0733 93.22 82.74 93.22C83.4067 93.22 83.9467 92.9733 84.36 92.48C84.7867 91.9733 85 91.3133 85 90.5V80.2C85 80.0667 85.0667 80 85.2 80H85.86C85.9933 80 86.06 80.0667 86.06 80.2V90.38C86.06 91.5133 85.7533 92.4267 85.14 93.12C84.5267 93.8133 83.7267 94.16 82.74 94.16ZM88.4722 94C88.4055 94 88.3522 93.98 88.3122 93.94C88.2855 93.8867 88.2855 93.8267 88.3122 93.76L91.1522 87.06C91.1789 87.02 91.1789 86.98 91.1522 86.94L88.3122 80.24L88.2922 80.16C88.2922 80.0533 88.3522 80 88.4722 80H89.1922C89.2989 80 89.3722 80.0533 89.4122 80.16L91.6722 85.86C91.6855 85.9 91.7055 85.92 91.7322 85.92C91.7589 85.92 91.7789 85.9 91.7922 85.86L94.0522 80.16C94.0922 80.0533 94.1655 80 94.2722 80H94.9722C95.0389 80 95.0855 80.0267 95.1122 80.08C95.1522 80.12 95.1589 80.1733 95.1322 80.24L92.2922 86.96C92.2789 87 92.2789 87.04 92.2922 87.08L95.1322 93.76L95.1522 93.84C95.1522 93.9467 95.0922 94 94.9722 94H94.2722C94.1655 94 94.0922 93.9467 94.0522 93.84L91.7922 88.16C91.7789 88.12 91.7589 88.1067 91.7322 88.12C91.7055 88.12 91.6855 88.1333 91.6722 88.16L89.3922 93.84C89.3522 93.9467 89.2789 94 89.1722 94H88.4722ZM100.653 94C100.506 94 100.453 93.9267 100.493 93.78L103.893 80.18C103.92 80.06 103.993 80 104.113 80H104.773C104.92 80 104.973 80.0733 104.933 80.22L101.533 93.82C101.52 93.94 101.446 94 101.313 94H100.653ZM114.967 94.16C113.98 94.16 113.187 93.82 112.587 93.14C111.987 92.4467 111.687 91.5267 111.687 90.38V80.2C111.687 80.0667 111.753 80 111.887 80H112.547C112.68 80 112.747 80.0667 112.747 80.2V90.5C112.747 91.3133 112.947 91.9733 113.347 92.48C113.76 92.9733 114.3 93.22 114.967 93.22C115.633 93.22 116.173 92.9733 116.587 92.48C117.013 91.9733 117.227 91.3133 117.227 90.5V80.2C117.227 80.0667 117.293 80 117.427 80H118.087C118.22 80 118.287 80.0667 118.287 80.2V90.38C118.287 91.5133 117.98 92.4267 117.367 93.12C116.753 93.8133 115.953 94.16 114.967 94.16ZM121.499 94C121.365 94 121.299 93.9333 121.299 93.8V80.2C121.299 80.0667 121.365 80 121.499 80H122.159C122.292 80 122.359 80.0667 122.359 80.2V93.8C122.359 93.9333 122.292 94 122.159 94H121.499Z" fill="#00FFD1"/>
</svg>
